<svg width="1440" height="450" viewBox="0 0 1440 450" fill="none" xmlns="http://www.w3.org/2000/svg">
<g clip-path="url(#clip0_224_12698)">
<rect width="1440" height="450" fill="#F9F1C6"/>
<ellipse cx="1081" cy="399" rx="224" ry="163" fill="#FFD700"/>
<ellipse cx="841" cy="443" rx="42" ry="30" fill="#DDB900"/>
<ellipse cx="1323" cy="443" rx="42" ry="30" fill="#DDB900"/>
<ellipse cx="1161.5" cy="354" rx="39.5" ry="45" fill="#F7F7F7"/>
<ellipse cx="984.5" cy="354" rx="39.5" ry="45" fill="#F7F7F7"/>
<ellipse cx="984.017" cy="370.5" rx="25.0167" ry="28.5" fill="#333333"/>
<ellipse cx="1161.02" cy="370.5" rx="25.0167" ry="28.5" fill="#333333"/>
<path d="M1100.5 206.5C1101 212.167 1097.1 227.5 1077.5 243.5C1105.5 249.167 1160.2 259 1155 253C1149.8 247 1152.83 227.5 1155 218.5L1181 224.5L1186 206.5L1082.5 182L1077.5 201L1100.5 206.5Z" fill="#FFD700"/>
<path d="M198.234 107.484V171.469H189.727V139.336H183.539V168.375H175.312V108.539H183.539V132.164H189.727V107.484H198.234ZM168.562 114.867V122.109H153.727V149.391C159.914 149.355 165.398 149.039 171.586 147.914L172.219 155.227C164.414 156.703 157.594 156.914 149.156 156.984H144.727V114.867H168.562ZM255.891 107.555V127.172H264.539V134.484H255.891V155.297H246.891V107.555H255.891ZM243.094 114.234V121.336H205.125V114.234H219.68V107.414H228.609V114.234H243.094ZM224.109 123.586C233.391 123.586 239.859 128.578 239.859 135.961C239.859 143.344 233.391 148.195 224.109 148.195C214.758 148.195 208.219 143.344 208.219 135.961C208.219 128.578 214.758 123.586 224.109 123.586ZM224.109 130.406C219.82 130.477 216.938 132.445 217.008 135.961C216.938 139.477 219.82 141.375 224.109 141.375C228.398 141.375 231.352 139.477 231.352 135.961C231.352 132.445 228.398 130.477 224.109 130.406ZM258.211 163.172V170.344H214.406V151.641H223.336V163.172H258.211ZM301.875 112.617V143.484H270.586V112.617H301.875ZM279.445 119.719V136.383H292.945V119.719H279.445ZM320.93 107.555V153.047H311.93V107.555H320.93ZM322.617 162.82V170.062H278.039V148.828H287.109V162.82H322.617ZM381.188 110.297V115.289C381.188 120 381.188 125.414 379.922 132.305H388.148V139.477H363.258V148.688H381.258V171.469H372.258V155.719H335.484V148.688H354.258V139.477H329.578V132.305H370.852C372.047 126.328 372.223 121.617 372.258 117.398H336.75V110.297H381.188ZM383.156 193.484V257.609H374.086V193.484H383.156ZM348.422 197.984C358.055 197.984 365.227 206.844 365.227 220.766C365.227 234.828 358.055 243.617 348.422 243.617C338.578 243.617 331.406 234.828 331.477 220.766C331.406 206.844 338.578 197.984 348.422 197.984ZM348.422 206.07C343.43 206.07 340.125 211.273 340.125 220.766C340.125 230.328 343.43 235.461 348.422 235.461C353.273 235.461 356.578 230.328 356.578 220.766C356.578 211.273 353.273 206.07 348.422 206.07ZM179.391 285.391V292.562H173.695V320.477C176.297 320.266 178.828 320.02 181.289 319.703L181.781 326.172C168.703 328.492 154.008 328.703 143.039 328.773L142.055 321.461L149.367 321.391V292.562H143.672V285.391H179.391ZM193.383 279.484V303.812H202.805V311.125H193.383V343.469H184.383V279.484H193.383ZM158.016 321.25L165.047 320.969V292.562H158.016V321.25ZM260.602 279.484V343.469H252.023V279.484H260.602ZM247.805 280.539V340.656H239.367V310.422H234.023V303.109H239.367V280.539H247.805ZM235.5 289.188V296.289H205.055V289.188H215.883V281.031H224.812V289.188H235.5ZM220.102 299.242C228.117 299.242 233.883 305.57 233.883 314.43C233.883 323.359 228.117 329.688 220.102 329.688C212.227 329.688 206.391 323.359 206.461 314.43C206.391 305.57 212.227 299.242 220.102 299.242ZM220.102 306.695C216.586 306.695 214.266 309.578 214.266 314.43C214.266 319.352 216.586 322.234 220.102 322.234C223.688 322.234 226.078 319.352 226.148 314.43C226.078 309.578 223.688 306.695 220.102 306.695ZM321.352 279.484V343.609H312.422V319.211H301.383V311.969H312.422V306.062H301.383V298.68H312.422V279.484H321.352ZM291.328 299.523C291.328 308.805 296.391 319.281 306.867 323.852L301.945 330.672C294.773 327.648 289.711 321.461 286.898 314.148C284.156 321.883 279.094 328.387 271.781 331.516L267.07 324.625C277.336 320.055 282.328 309.156 282.398 299.523V297.062H269.109V289.891H282.398V280.891H291.398V289.891H304.336V297.062H291.328V299.523ZM381.75 309.086V316.258H336.469V284.828H381.258V292.07H345.328V309.086H381.75ZM388.148 328.281V335.664H329.578V328.281H388.148ZM445.734 279.484V343.609H436.805V317.805H425.836V310.422H436.805V300.367H426.047V293.055H436.805V279.484H445.734ZM422.672 284.828V309.438H402.984V321.883C410.895 321.848 417.926 321.461 425.977 320.266L426.68 327.578C417.117 329.125 408.961 329.266 399.117 329.266H394.055V302.477H413.883V291.93H393.914V284.828H422.672ZM512.602 328.633V336.016H454.031V328.633H467.109V312.953C462.152 310 459.164 305.465 459.164 299.805C459.164 289.469 469.289 282.578 483.211 282.578C497.062 282.578 507.258 289.469 507.328 299.805C507.293 305.324 504.375 309.824 499.594 312.812V328.633H512.602ZM483.211 289.68C474.07 289.68 468.023 293.336 468.023 299.805C468.023 306.062 474.07 309.93 483.211 309.93C492.281 309.93 498.398 306.062 498.469 299.805C498.398 293.336 492.281 289.68 483.211 289.68ZM475.969 328.633H490.523V316.188C488.238 316.645 485.777 316.891 483.211 316.891C480.645 316.891 478.219 316.68 475.969 316.188V328.633ZM530.812 286.094L529.898 321.742H520.898L519.984 286.094H530.812ZM525.469 337.633C522.164 337.633 519.492 334.961 519.562 331.727C519.492 328.492 522.164 325.891 525.469 325.891C528.562 325.891 531.305 328.492 531.305 331.727C531.305 334.961 528.562 337.633 525.469 337.633Z" fill="#333333"/>
<path d="M459.938 111.211V116.977C459.938 122.953 459.938 129.492 458.32 138.422H466.758V145.664H441.797V171.539H432.797V145.664H408.398V138.422H449.25C450.867 130.16 451.008 123.902 451.008 118.383H415.078V111.211H459.938ZM494.602 117.469C494.531 125.414 499.031 133.148 509.156 136.383L504.375 143.484C497.484 141.164 492.809 136.559 490.102 130.758C487.254 137.086 482.297 142.043 475.055 144.609L470.203 137.438C480.891 133.992 485.461 125.625 485.531 116.906V110.789H494.602V117.469ZM524.555 148.477V171.469H515.625V155.578H480.609V148.477H524.555ZM524.555 107.484V145.594H515.625V126.75H503.602V119.367H515.625V107.484H524.555ZM584.391 111.211V116.977C584.391 122.953 584.391 129.492 582.773 138.422H591.211V145.664H566.25V171.539H557.25V145.664H532.852V138.422H573.703C575.32 130.16 575.461 123.902 575.461 118.383H539.531V111.211H584.391ZM619.055 117.469C618.984 125.414 623.484 133.148 633.609 136.383L628.828 143.484C621.938 141.164 617.262 136.559 614.555 130.758C611.707 137.086 606.75 142.043 599.508 144.609L594.656 137.438C605.344 133.992 609.914 125.625 609.984 116.906V110.789H619.055V117.469ZM649.008 148.477V171.469H640.078V155.578H605.062V148.477H649.008ZM649.008 107.484V145.594H640.078V126.75H628.055V119.367H640.078V107.484H649.008ZM153.164 199.18V213.594H161.883V199.18H170.18V242.281H144.727V199.18H153.164ZM153.164 235.109H161.883V220.625H153.164V235.109ZM198.375 193.484V257.469H189.797V225.195H184.031V254.516H175.523V194.398H184.031V217.883H189.797V193.484H198.375ZM264.68 217.742V225.055H255.609V257.328H246.609V193.484H255.609V217.742H264.68ZM216.094 199.602V234.266C224.285 234.16 233.074 233.387 242.32 231.523L243.234 238.977C232.547 241.156 222.141 241.719 212.719 241.719H207.164V199.602H216.094ZM318.117 193.484V208.25H326.766V215.633H318.117V230.891H309.117V193.484H318.117ZM297.023 231.664C310.172 231.594 318.75 236.656 318.75 244.531C318.75 252.688 310.172 257.539 297.023 257.539C283.734 257.539 275.086 252.688 275.086 244.531C275.086 236.656 283.734 231.594 297.023 231.664ZM297.023 238.836C288.727 238.836 283.875 240.734 283.945 244.531C283.875 248.398 288.727 250.438 297.023 250.438C305.039 250.438 309.891 248.398 309.891 244.531C309.891 240.734 305.039 238.836 297.023 238.836ZM278.953 197.07V219.57C286.688 219.465 295.02 218.727 303.914 216.969L304.969 224.211C294.422 226.32 284.508 226.953 275.438 226.953H269.953V197.07H278.953Z" fill="#DDB900"/>
</g>
<defs>
<clipPath id="clip0_224_12698">
<rect width="1440" height="450" fill="white"/>
</clipPath>
</defs>
</svg>
