<svg width="1440" height="450" viewBox="0 0 1440 450" fill="none" xmlns="http://www.w3.org/2000/svg">
<g clip-path="url(#clip0_224_12184)">
<rect width="1440" height="450" fill="#F9F1C6"/>
<ellipse cx="359.472" cy="364.511" rx="267.694" ry="220.489" fill="#FFD700"/>
<ellipse cx="638.79" cy="395.649" rx="50.1926" ry="35.8519" transform="rotate(-20 638.79 395.649)" fill="#DDB900"/>
<ellipse cx="88.1926" cy="415.301" rx="50.1926" ry="35.8519" fill="#DDB900"/>
<ellipse cx="455.674" cy="308.941" rx="47.2049" ry="53.7778" fill="#F7F7F7"/>
<ellipse cx="244.148" cy="308.941" rx="47.2049" ry="53.7778" fill="#F7F7F7"/>
<ellipse cx="261.497" cy="295.197" rx="29.8965" ry="34.0593" fill="#333333"/>
<ellipse cx="473.022" cy="295.197" rx="29.8965" ry="34.0593" fill="#333333"/>
<path d="M263.269 130.279C262.671 137.051 267.332 155.375 290.755 174.496C257.294 181.268 191.924 193.02 198.138 185.849C204.352 178.679 200.727 155.375 198.138 144.62L167.066 151.79L161.091 130.279L284.78 101L290.755 123.706L263.269 130.279Z" fill="#FFD700"/>
<path d="M791.547 111.984C800.195 111.984 806.629 119.121 807.93 130.617H819.039V107.484H827.898V171.609H819.039V137.789H808C807.051 150.094 800.477 157.617 791.547 157.617C781.844 157.617 774.883 148.828 774.953 134.766C774.883 120.844 781.844 111.984 791.547 111.984ZM791.547 120.07C786.766 120.07 783.461 125.273 783.531 134.766C783.461 144.328 786.766 149.461 791.547 149.461C796.398 149.461 799.562 144.328 799.562 134.766C799.562 125.273 796.398 120.07 791.547 120.07ZM889.703 107.484V171.609H880.633V107.484H889.703ZM871.141 113.109V120.422H848.992V148.758C860.453 148.723 867.484 148.477 875.57 147L876.414 154.383C867.555 156.07 859.398 156.352 845.547 156.352H839.992V113.109H871.141ZM948.836 107.484V132.023H957.906V139.406H948.836V171.328H939.836V107.484H948.836ZM931.75 114.023C931.68 133.148 924.227 149.742 902.711 160.289L897.648 153.398C912.801 145.805 920.922 135.609 922.609 121.336H901.305V114.023H931.75ZM985.398 124.922C985.398 135.258 990.672 146.297 1001.43 150.797L996.578 157.828C989.02 154.629 983.816 148.266 980.969 140.461C978.051 148.934 972.742 155.965 965.219 159.445L960.086 152.344C970.703 147.633 976.188 135.75 976.188 124.922V120.984H962.617V113.672H998.758V120.984H985.398V124.922ZM1014.16 107.484V171.469H1005.09V107.484H1014.16ZM1033.98 148.969C1034.05 140.25 1036.38 137.508 1040.59 134.906C1043.62 132.938 1045.94 130.758 1045.94 127.523C1045.94 124.008 1043.2 121.688 1039.82 121.688C1036.52 121.688 1033.49 123.867 1033.35 128.016H1023.37C1023.58 118.102 1030.89 113.391 1039.89 113.391C1049.66 113.391 1056.62 118.523 1056.62 127.172C1056.62 132.938 1053.67 136.664 1049.03 139.406C1045.09 141.797 1043.34 144.047 1043.27 148.969V149.742H1033.98V148.969ZM1038.84 165.633C1035.53 165.633 1032.86 162.961 1032.93 159.727C1032.86 156.492 1035.53 153.891 1038.84 153.891C1041.93 153.891 1044.67 156.492 1044.67 159.727C1044.67 162.961 1041.93 165.633 1038.84 165.633ZM784.164 285.18V299.594H792.883V285.18H801.18V328.281H775.727V285.18H784.164ZM784.164 321.109H792.883V306.625H784.164V321.109ZM829.375 279.484V343.469H820.797V311.195H815.031V340.516H806.523V280.398H815.031V303.883H820.797V279.484H829.375ZM895.68 303.742V311.055H886.609V343.328H877.609V279.484H886.609V303.742H895.68ZM847.094 285.602V320.266C855.285 320.16 864.074 319.387 873.32 317.523L874.234 324.977C863.547 327.156 853.141 327.719 843.719 327.719H838.164V285.602H847.094ZM949.117 279.484V294.25H957.766V301.633H949.117V316.891H940.117V279.484H949.117ZM928.023 317.664C941.172 317.594 949.75 322.656 949.75 330.531C949.75 338.688 941.172 343.539 928.023 343.539C914.734 343.539 906.086 338.688 906.086 330.531C906.086 322.656 914.734 317.594 928.023 317.664ZM928.023 324.836C919.727 324.836 914.875 326.734 914.945 330.531C914.875 334.398 919.727 336.438 928.023 336.438C936.039 336.438 940.891 334.398 940.891 330.531C940.891 326.734 936.039 324.836 928.023 324.836ZM909.953 283.07V305.57C917.688 305.465 926.02 304.727 934.914 302.969L935.969 310.211C925.422 312.32 915.508 312.953 906.438 312.953H900.953V283.07H909.953Z" fill="#DDB900"/>
<path d="M826.633 199.039V205.086C826.633 213.102 826.633 222.102 824.031 235.672L815.031 234.758C817.457 222.664 817.562 213.664 817.633 206.141H779.945V199.039H826.633ZM832.258 242.352V249.664H773.898V242.352H794.781V220.344H803.711V242.352H832.258ZM870.648 198.617V229.484H839.359V198.617H870.648ZM848.219 205.719V222.383H861.719V205.719H848.219ZM889.703 193.555V239.047H880.703V193.555H889.703ZM891.391 248.82V256.062H846.812V234.828H855.883V248.82H891.391ZM951.93 193.484V257.609H942.859V193.484H951.93ZM917.195 197.984C926.828 197.984 934 206.844 934 220.766C934 234.828 926.828 243.617 917.195 243.617C907.352 243.617 900.18 234.828 900.25 220.766C900.18 206.844 907.352 197.984 917.195 197.984ZM917.195 206.07C912.203 206.07 908.898 211.273 908.898 220.766C908.898 230.328 912.203 235.461 917.195 235.461C922.047 235.461 925.352 230.328 925.352 220.766C925.352 211.273 922.047 206.07 917.195 206.07ZM1035.67 218.445V225.477H977.172V218.445H1035.67ZM1028.71 207.898V214.93H984.484V194.75H1028.22V201.922H993.414V207.898H1028.71ZM1028.43 229.273V246.008H992.781V249.945H1030.12V256.906H983.992V239.609H1019.57V236.023H983.922V229.273H1028.43ZM1082.57 194.68V211.273H1087.07V193.484H1095.58V240.805H1087.07V218.305H1082.57V238.977H1074.34V194.68H1082.57ZM1054.09 199.18V206.352H1048.82V223.227C1050.54 223.086 1052.41 222.84 1054.45 222.453L1055.08 229.555C1050.37 230.539 1046.78 230.539 1043.41 230.539H1040.59V199.18H1054.09ZM1070.97 199.18V206.352H1065.06V223.297C1067 223.121 1069.11 222.84 1071.46 222.312L1072.23 229.625C1067.31 230.539 1063.59 230.539 1059.86 230.539H1056.91V199.18H1070.97ZM1096.98 249.172V256.344H1050.44V235.602H1059.44V249.172H1096.98ZM1115.12 245.797L1109.08 265.836H1101.62L1105.14 245.797H1115.12ZM1016.05 279.484V343.469H1007.48V279.484H1016.05ZM1002.7 280.398V340.516H994.258V310.281H989.125C988.281 322.867 982.938 330.461 975.062 330.461C966.625 330.461 961.141 321.602 961.141 307.188C961.141 292.844 966.625 284.055 975.062 284.055C982.762 284.055 988.035 291.227 989.055 303.18H994.258V280.398H1002.7ZM975.062 292.492C971.477 292.492 969.367 297.414 969.438 307.188C969.367 317.031 971.477 321.883 975.062 321.812C978.719 321.883 980.898 317.031 980.898 307.188C980.898 297.414 978.719 292.492 975.062 292.492ZM1078.28 279.484V343.469H1069.84V279.484H1078.28ZM1064.64 280.891V340.656H1056.27V311.266H1045.8C1042.14 318.578 1036.2 324.906 1027.09 330.18L1022.03 323.852C1034.93 316.188 1040.63 306.871 1041.86 294.32H1025.55V287.078H1050.79C1050.75 293.16 1050.12 298.891 1048.61 304.164H1056.27V280.891H1064.64ZM1159.98 304.867V311.969H1135.23V316.047H1152.88V332.43H1117.23V336.297H1154.57V343.047H1108.45V326.102H1144.02V322.797H1108.38V316.047H1126.23V311.969H1101.62V304.867H1159.98ZM1152.6 281.312V301.492H1108.87V281.312H1152.6ZM1117.66 288.273V294.602H1143.67V288.273H1117.66ZM1181.5 283.984C1190.15 283.984 1196.58 291.121 1197.88 302.617H1208.99V279.484H1217.85V343.609H1208.99V309.789H1197.95C1197 322.094 1190.43 329.617 1181.5 329.617C1171.8 329.617 1164.84 320.828 1164.91 306.766C1164.84 292.844 1171.8 283.984 1181.5 283.984ZM1181.5 292.07C1176.72 292.07 1173.41 297.273 1173.48 306.766C1173.41 316.328 1176.72 321.461 1181.5 321.461C1186.35 321.461 1189.52 316.328 1189.52 306.766C1189.52 297.273 1186.35 292.07 1181.5 292.07ZM1238.03 284.547V292.562H1252.73V284.547H1261.73V314.008H1249.98V323.711C1254.94 323.465 1259.9 323.078 1264.54 322.445L1265.17 328.984C1251.81 331.375 1237.4 331.445 1226.5 331.445L1225.3 324.133C1230.02 324.098 1235.39 324.098 1241.05 323.992V314.008H1229.24V284.547H1238.03ZM1238.03 306.977H1252.73V299.383H1238.03V306.977ZM1276.91 279.484V305.078H1285.63V312.531H1276.91V343.469H1267.91V279.484H1276.91Z" fill="#333333"/>
<circle cx="456" cy="309" r="75" stroke="#333333" stroke-width="10"/>
<circle cx="244" cy="309" r="75" stroke="#333333" stroke-width="10"/>
<line x1="319.996" y1="307.5" x2="384.004" y2="307.5" stroke="#333333" stroke-width="10"/>
</g>
<defs>
<clipPath id="clip0_224_12184">
<rect width="1440" height="450" fill="white"/>
</clipPath>
</defs>
</svg>
