<svg width="48" height="48" viewBox="0 0 48 48" fill="none" xmlns="http://www.w3.org/2000/svg">
<path d="M40 18.765C40 25.4026 33.5002 45.235 24.6636 45.235C15.827 45.235 8 25.4026 8 18.765C8 12.1274 15.1634 6.74657 24 6.74657C32.8366 6.74657 40 12.1274 40 18.765Z" fill="#F49B36"/>
<ellipse cx="17.4015" cy="15.447" rx="2.91244" ry="3.31797" fill="#F7F7F7"/>
<ellipse cx="17.4388" cy="15.4101" rx="1.84455" ry="2.10138" fill="#333333"/>
<ellipse cx="30.4515" cy="15.447" rx="2.91244" ry="3.31797" fill="#F7F7F7"/>
<ellipse cx="30.4898" cy="15.4101" rx="1.84455" ry="2.10138" fill="#333333"/>
<path d="M25.9544 4.57142C25.9913 4.98924 25.7037 6.11981 24.2585 7.29953C26.3231 7.71735 30.3562 8.44239 29.9728 7.99999C29.5894 7.5576 29.8131 6.11981 29.9728 5.45621L31.8899 5.89861L32.2585 4.57142L24.6272 2.76497L24.2585 4.16589L25.9544 4.57142Z" fill="#F49B36"/>
</svg>
