<svg width="150" height="100" viewBox="0 0 150 100" fill="none" xmlns="http://www.w3.org/2000/svg">
<g clip-path="url(#clip0_613_2266)">
<rect width="150" height="100" rx="5" fill="#525252"/>
<path d="M32.8389 47.791C30.0973 40.0759 31.5328 36.893 34.5326 33.0742C36.4435 30.6494 37.5533 27.8511 36.4204 24.7383C35.0737 21.0383 31.4209 19.7739 27.8971 21.0564C24.7256 22.2108 22.377 25.2604 23.6652 29.7134L17.3223 32.022C14.8424 24.4777 18.9842 18.3144 25.9732 15.7707C33.6082 12.9918 40.3851 15.713 42.822 22.4083C44.5321 27.1068 43.4547 31.0906 40.5296 34.7491C37.7753 38.146 37.2154 40.8107 38.8294 45.6107L38.9577 45.9631L32.9671 48.1434L32.8389 47.791ZM40.8146 59.6536C38.5241 60.4873 35.9019 59.3133 35.127 57.0014C34.2346 54.7323 35.4887 52.1475 37.7792 51.3138C40.0109 50.5015 42.6331 51.6755 43.4668 53.966C44.3004 56.2565 43.0464 58.8413 40.8146 59.6536Z" fill="#F7F7F7"/>
<path d="M119.61 53.0111C121.218 48.6954 122.987 47.8429 125.661 47.2821C127.361 46.9281 128.851 46.1236 129.488 44.3727C130.246 42.2914 129.129 40.4259 127.147 39.7044C125.363 39.0551 123.248 39.52 122.193 41.9046L118.625 40.606C120.284 36.4585 124.298 35.3003 128.229 36.7312C132.524 38.2943 134.46 41.9172 133.089 45.6833C132.127 48.3262 130.222 49.6532 127.639 50.1721C125.224 50.64 124.019 51.5857 122.979 54.2376L122.907 54.4358L119.538 53.2094L119.61 53.0111ZM118.757 61.0065C117.469 60.5375 116.764 59.0836 117.266 57.8072C117.701 56.5068 119.176 55.8464 120.465 56.3154C121.72 56.7723 122.426 58.2262 121.957 59.5146C121.488 60.803 120.013 61.4634 118.757 61.0065Z" fill="#F7F7F7"/>
<ellipse cx="118.856" cy="95.2918" rx="9.14397" ry="7.49027" fill="#DDB900"/>
<ellipse cx="37.144" cy="97.6265" rx="9.14397" ry="7.49027" fill="#DDB900"/>
<ellipse cx="77.8055" cy="87.2179" rx="42.2179" ry="31.7121" fill="#FFD700"/>
<ellipse cx="60.3931" cy="78.463" rx="7.68482" ry="8.75486" fill="#F7F7F7"/>
<ellipse cx="60.4935" cy="78.3658" rx="4.86706" ry="5.54475" fill="#333333"/>
<ellipse cx="94.8289" cy="78.463" rx="7.68482" ry="8.75486" fill="#F7F7F7"/>
<ellipse cx="94.9293" cy="78.3658" rx="4.86706" ry="5.54475" fill="#333333"/>
<path d="M82.961 49.7665C83.0583 50.869 82.2996 53.8521 78.4863 56.965C83.9338 58.0674 94.5758 59.9805 93.5641 58.8132C92.5525 57.6459 93.1426 53.8521 93.5641 52.1012L98.6225 53.2685L99.5953 49.7665L79.4591 45L78.4863 48.6965L82.961 49.7665Z" fill="#FFD700"/>
</g>
<defs>
<clipPath id="clip0_613_2266">
<rect width="150" height="100" rx="5" fill="white"/>
</clipPath>
</defs>
</svg>
