<svg width="36" height="36" viewBox="0 0 36 36" fill="none" xmlns="http://www.w3.org/2000/svg">
<path d="M30 14.0737C30 19.0519 25.1251 33.9263 18.4977 33.9263C11.8703 33.9263 6 19.0519 6 14.0737C6 9.09555 11.3726 5.05992 18 5.05992C24.6274 5.05992 30 9.09555 30 14.0737Z" fill="#FFD700"/>
<ellipse cx="13.051" cy="11.5852" rx="2.18433" ry="2.48848" fill="#F7F7F7"/>
<ellipse cx="13.0792" cy="11.5576" rx="1.38341" ry="1.57604" fill="#333333"/>
<ellipse cx="22.8386" cy="11.5852" rx="2.18433" ry="2.48848" fill="#F7F7F7"/>
<ellipse cx="22.8673" cy="11.5576" rx="1.38341" ry="1.57604" fill="#333333"/>
<path d="M19.4657 3.42857C19.4934 3.74193 19.2777 4.58986 18.1938 5.47465C19.7422 5.78801 22.7671 6.33179 22.4796 5.99999C22.192 5.6682 22.3597 4.58986 22.4796 4.09216L23.9173 4.42396L24.1938 3.42857L18.4703 2.07373L18.1938 3.12442L19.4657 3.42857Z" fill="#FFD700"/>
</svg>
