<svg width="408" height="64" viewBox="0 0 408 64" fill="none" xmlns="http://www.w3.org/2000/svg">
<rect width="408" height="64" rx="32" fill="#FFD700"/>
<path d="M75.3359 40.0547L73.625 38.3672L78.7578 33.2578H66.3125V30.7969H78.7578L73.625 25.6875L75.3359 24L83.3516 32.0156L75.3359 40.0547ZM94.9766 40.5H91.7188L97.6953 23.5312H101.445L107.445 40.5H104.188L102.781 36.3047H96.3828L94.9766 40.5ZM97.2031 33.8438H101.961L99.6406 27H99.5L97.2031 33.8438ZM112.508 23.5312V40.5H109.461V23.5312H112.508ZM133.086 21.3984V42.5859H130.578V21.3984H133.086ZM128.727 21.7734V41.5547H126.242V31.4766H124.227C123.98 35.6016 122.211 38.1562 119.586 38.1328C116.82 38.1562 115.016 35.2266 115.016 30.5625C115.016 25.8984 116.82 23.0156 119.586 23.0156C122.152 23.0156 123.898 25.4062 124.203 29.3672H126.242V21.7734H128.727ZM119.586 25.4766C118.25 25.4531 117.406 27.2578 117.43 30.5625C117.406 33.8672 118.25 35.6719 119.586 35.6484C120.992 35.6719 121.836 33.8672 121.836 30.5625C121.836 27.2578 120.992 25.4531 119.586 25.4766ZM153.828 21.3984V42.5859H151.344V21.3984H153.828ZM149.328 21.9141V41.5781H146.867V31.8281H143.094C141.852 34.2656 139.859 36.375 136.859 38.1094L135.383 36.2578C139.777 33.668 141.781 30.3516 142.18 26.0859H136.461V23.9766H144.758C144.758 26.0273 144.512 27.9492 143.938 29.7422H146.867V21.9141H149.328ZM172.742 22.8047V32.0156H162.711V22.8047H172.742ZM165.266 24.8906V29.9297H170.188V24.8906H165.266ZM178.695 21.3984V26.1562H181.648V28.3125H178.695V33.3516H176.094V21.3984H178.695ZM179 34.4297V36.4922H173.375C173.785 38.2969 176.188 39.9961 179.891 40.5234L178.953 42.5156C175.648 42.0469 173.129 40.6289 171.922 38.7188C170.691 40.6289 168.219 42.0352 164.914 42.4688L163.953 40.5C167.691 39.9961 170.035 38.3438 170.469 36.4922H164.82V34.4297H179ZM202.039 31.6875V33.75H193.648V35.6016H199.695V42.3281H185V35.6016H191.07V33.75H182.727V31.6875H202.039ZM193.648 21.375V23.2734H200.141V25.3359H193.836C194.141 27.0703 196.637 28.5 201.078 28.8047L200.328 30.7266C196.496 30.4336 193.684 29.3086 192.359 27.5156C191.023 29.3086 188.211 30.4336 184.414 30.7266L183.641 28.8047C188.105 28.5 190.566 27.0703 190.883 25.3359H184.625V23.2734H191.07V21.375H193.648ZM187.578 37.6875V40.2188H197.164V37.6875H187.578ZM214.953 22.9453C216.875 22.9453 218.457 24.0117 219.406 25.875H224.352V21.3984H226.93V42.6094H224.352V34.5938H219.594C218.68 36.7031 217.004 37.9219 214.953 37.9219C211.766 37.9219 209.516 35.0391 209.516 30.4219C209.516 25.8516 211.766 22.9453 214.953 22.9453ZM214.953 25.2891C213.195 25.2891 212 27.1875 212.023 30.4219C212 33.6797 213.195 35.5781 214.953 35.5781C216.711 35.5781 217.883 33.6797 217.906 30.4219C217.883 27.1875 216.711 25.2891 214.953 25.2891ZM220.133 28.0078C220.285 28.7461 220.367 29.5547 220.367 30.4219C220.367 31.1602 220.309 31.8398 220.203 32.4844H224.352V28.0078H220.133ZM248.023 21.3984V34.7109H245.539V28.9453H243.477V34.0078H241.039V21.8203H243.477V26.8359H245.539V21.3984H248.023ZM240.336 23.6953V25.7344H229.789V23.6953H233.797V21.5859H236.375V23.6953H240.336ZM235.086 26.6016C237.781 26.6016 239.68 28.0547 239.703 30.2578C239.68 32.4609 237.781 33.9141 235.086 33.9141C232.438 33.9141 230.516 32.4609 230.539 30.2578C230.516 28.0547 232.438 26.6016 235.086 26.6016ZM235.086 28.4766C233.773 28.4766 232.859 29.1562 232.859 30.2578C232.859 31.3594 233.75 32.0391 235.086 32.0391C236.422 32.0391 237.336 31.3594 237.336 30.2578C237.336 29.1562 236.422 28.4766 235.086 28.4766ZM240.875 34.9688C245.398 34.9688 248.117 36.3516 248.141 38.7891C248.117 41.1797 245.398 42.5625 240.875 42.5625C236.352 42.5625 233.609 41.1797 233.609 38.7891C233.609 36.3516 236.352 34.9688 240.875 34.9688ZM240.875 36.9609C237.852 36.9375 236.211 37.5469 236.211 38.7891C236.211 39.9609 237.852 40.5703 240.875 40.5703C243.875 40.5703 245.516 39.9609 245.516 38.7891C245.516 37.5469 243.875 36.9375 240.875 36.9609ZM274.086 21.3984V33.9844H271.484V28.8047H267.875V26.6719H271.484V21.3984H274.086ZM266.914 34.5234C271.414 34.5234 274.156 36 274.156 38.5547C274.156 41.1094 271.414 42.5859 266.914 42.5859C262.438 42.5859 259.695 41.1094 259.719 38.5547C259.695 36 262.438 34.5234 266.914 34.5234ZM266.914 36.5156C263.961 36.5156 262.297 37.2188 262.297 38.5547C262.297 39.8672 263.961 40.5703 266.914 40.5703C269.867 40.5703 271.555 39.8672 271.555 38.5547C271.555 37.2188 269.867 36.5156 266.914 36.5156ZM264.125 25.0312C264.125 27.6094 265.836 30.2109 269.117 31.3125L267.805 33.375C265.449 32.5781 263.773 30.9609 262.859 28.9688C261.922 31.2305 260.152 33.0352 257.633 33.9375L256.273 31.875C259.672 30.7031 261.477 27.8438 261.477 25.0547V24.8906H257.07V22.7812H268.508V24.8906H264.125V25.0312ZM296.445 37.8984V40.0312H277.086V37.8984H285.43V33.7734H279.219V22.8047H281.82V26.2734H291.641V22.8047H294.242V33.7734H288.008V37.8984H296.445ZM281.82 31.6641H291.641V28.3594H281.82V31.6641ZM321.383 34.5V36.6094H309.781V40.2188H321.688V42.3281H307.18V34.5H321.383ZM321.266 21.3984V33.4688H318.664V28.6172H314.867C314.387 31.043 312.195 32.7422 309.406 32.7656C306.219 32.7422 303.805 30.5859 303.805 27.6562C303.805 24.6562 306.219 22.5 309.406 22.5C312.125 22.5 314.27 24.1055 314.82 26.4844H318.664V21.3984H321.266ZM309.406 24.7031C307.578 24.6797 306.289 25.8281 306.289 27.6562C306.289 29.3906 307.578 30.5391 309.406 30.5391C311.141 30.5391 312.453 29.3906 312.477 27.6562C312.453 25.8281 311.141 24.6797 309.406 24.7031ZM341.961 21.3984V42.5859H339.336V21.3984H341.961ZM335.633 23.6484C335.633 29.9531 333.195 35.3203 325.766 38.8359L324.406 36.75C329.949 34.1133 332.527 30.5273 332.984 25.7109H325.484V23.6484H335.633Z" fill="#333333"/>
</svg>
