<svg width="408" height="64" viewBox="0 0 408 64" fill="none" xmlns="http://www.w3.org/2000/svg">
<rect width="408" height="64" rx="32" fill="#FFD700"/>
<path d="M89.3359 40.0547L87.625 38.3672L92.7578 33.2578H80.3125V30.7969H92.7578L87.625 25.6875L89.3359 24L97.3516 32.0156L89.3359 40.0547ZM123.578 21.3984V42.6094H120.953V21.3984H123.578ZM112.164 22.9453C115.352 22.9453 117.672 25.8516 117.695 30.4219C117.672 35.0391 115.352 37.9219 112.164 37.9219C108.953 37.9219 106.633 35.0391 106.633 30.4219C106.633 25.8516 108.953 22.9453 112.164 22.9453ZM112.164 25.2891C110.359 25.2891 109.141 27.1875 109.141 30.4219C109.141 33.6797 110.359 35.5781 112.164 35.5781C113.945 35.5781 115.164 33.6797 115.164 30.4219C115.164 27.1875 113.945 25.2891 112.164 25.2891ZM134.195 24.7734C134.195 27.4453 135.93 29.9531 139.188 30.9844L137.781 33.0234C135.496 32.25 133.855 30.7031 132.953 28.7344C132.016 30.9844 130.305 32.7539 127.867 33.6094L126.461 31.5703C129.883 30.375 131.57 27.5625 131.594 24.5391V22.5234H134.195V24.7734ZM143.406 21.3984V26.5547H146.359V28.7109H143.406V34.0781H140.805V21.3984H143.406ZM136.516 34.5469C140.898 34.5234 143.594 36.0234 143.617 38.5312C143.594 41.0859 140.898 42.5625 136.516 42.5625C132.086 42.5625 129.344 41.0859 129.344 38.5312C129.344 36.0234 132.086 34.5234 136.516 34.5469ZM136.516 36.5859C133.609 36.5859 131.945 37.2891 131.945 38.5312C131.945 39.8438 133.609 40.5 136.516 40.5C139.422 40.5 141.039 39.8438 141.039 38.5312C141.039 37.2891 139.422 36.5859 136.516 36.5859ZM159.32 23.5078V25.5703H147.484V23.5078H152.219V21.2109H154.82V23.5078H159.32ZM153.484 26.4141C156.367 26.4141 158.43 28.0078 158.453 30.375C158.43 32.7188 156.367 34.2891 153.484 34.2891C150.602 34.2891 148.562 32.7188 148.586 30.375C148.562 28.0078 150.602 26.4141 153.484 26.4141ZM153.484 28.3594C151.984 28.3594 151 29.1094 151.023 30.375C151 31.6172 151.984 32.3438 153.484 32.3438C154.984 32.3438 156.016 31.6172 156.016 30.375C156.016 29.1094 154.984 28.3594 153.484 28.3594ZM165.18 21.3984V34.9688H162.578V32.4844H159.438V30.3984H162.578V28.3125H159.461V26.2031H162.578V21.3984H165.18ZM158.055 35.2031C162.531 35.2031 165.297 36.5625 165.297 38.8828C165.297 41.1797 162.531 42.5625 158.055 42.5625C153.578 42.5625 150.812 41.1797 150.812 38.8828C150.812 36.5625 153.578 35.2031 158.055 35.2031ZM158.055 37.1953C155.195 37.1953 153.555 37.7578 153.555 38.8828C153.555 39.9844 155.195 40.5703 158.055 40.5703C160.891 40.5703 162.508 39.9844 162.508 38.8828C162.508 37.7578 160.891 37.1953 158.055 37.1953ZM191.641 21.4219V33.7734H189.016V32.9062H185.055V31.3125H189.016V21.4219H191.641ZM173.852 29.0625C177.953 29.0625 183.062 29.0156 187.609 28.5703L187.75 30.2109C185.816 30.4805 183.824 30.6445 181.867 30.7266V33.7969H179.289V30.8438C177.473 30.8906 175.727 30.9023 174.133 30.8906L173.852 29.0625ZM191.641 34.4297V39.1875H179.594V40.5469H192.203V42.3984H177.039V37.4766H189.062V36.2109H176.945V34.4297H191.641ZM180.695 21.75C183.836 21.75 185.992 23.0156 185.992 24.9375C185.992 26.9062 183.836 28.1016 180.695 28.1016C177.484 28.1016 175.352 26.9062 175.352 24.9375C175.352 23.0156 177.484 21.75 180.695 21.75ZM180.695 23.4844C178.914 23.4844 177.812 24.0469 177.836 24.9375C177.812 25.8281 178.914 26.3672 180.695 26.3672C182.43 26.3672 183.555 25.8281 183.555 24.9375C183.555 24.0469 182.43 23.4844 180.695 23.4844ZM211.82 31.3359V33.4219H196.961V23.25H211.656V25.3594H199.539V31.3359H211.82ZM213.977 37.7344V39.8906H194.617V37.7344H213.977ZM233.102 21.3984V33.0703H230.5V28.8281H226.398V26.7188H230.5V21.3984H233.102ZM221.758 34.0312V36.1406H230.523V34.0312H233.102V42.3281H219.203V34.0312H221.758ZM221.758 40.2188H230.523V38.1562H221.758V40.2188ZM226.516 22.4062C226.492 28.0781 223.586 31.875 216.789 33.8906L215.781 31.8047C218.887 30.9258 220.949 29.6953 222.203 28.1484L216.133 28.6172L215.734 26.5547L223.305 26.2734C223.504 25.7109 223.645 25.125 223.727 24.5156H216.812V22.4062H226.516ZM258.391 21.3984V29.4609H261.648V31.6641H258.391V42.5859H255.789V21.3984H258.391ZM245.125 23.1328V28.4297H250.117V23.1328H252.719V37.6172H242.547V23.1328H245.125ZM245.125 35.4844H250.117V30.4688H245.125V35.4844ZM281.898 37.9688V40.125H262.539V37.9688H270.883V34.5234H264.836V27.5859H277.023V24.9609H264.789V22.8516H279.602V29.6484H267.438V32.3906H280.094V34.5234H273.461V37.9688H281.898ZM305.57 21.3984V29.6719H308.711V31.8516H305.57V42.5391H302.969V21.3984H305.57ZM299.969 23.6016C299.969 29.8359 297.391 35.2969 290.336 38.7656L288.859 36.75C294.016 34.1836 296.805 30.5742 297.344 25.7578H290.008V23.6016H299.969ZM327.414 21.3984V42.5859H324.789V21.3984H327.414ZM321.086 23.6484C321.086 29.9531 318.648 35.3203 311.219 38.8359L309.859 36.75C315.402 34.1133 317.98 30.5273 318.438 25.7109H310.938V23.6484H321.086Z" fill="#333333"/>
</svg>
