<svg width="1440" height="431" viewBox="0 0 1440 431" fill="none" xmlns="http://www.w3.org/2000/svg">
<rect width="1440" height="431" fill="#FFD700"/>
<rect x="144" y="103" width="227" height="37" rx="18.5" fill="#DDB900"/>
<path d="M182.273 112.582V130.258H180.086V112.582H182.273ZM172.762 113.871C175.418 113.871 177.352 116.293 177.371 120.102C177.352 123.949 175.418 126.352 172.762 126.352C170.086 126.352 168.152 123.949 168.152 120.102C168.152 116.293 170.086 113.871 172.762 113.871ZM172.762 115.824C171.258 115.824 170.242 117.406 170.242 120.102C170.242 122.816 171.258 124.398 172.762 124.398C174.246 124.398 175.262 122.816 175.262 120.102C175.262 117.406 174.246 115.824 172.762 115.824ZM193.465 113.539V115.277H187.703V119.203C190.916 119.184 192.84 119.057 195.027 118.617L195.262 120.297C192.898 120.844 190.73 120.902 186.98 120.902H185.555V113.539H193.465ZM198.797 112.582V116.059H201.258V117.836H198.797V121.41H196.629V112.582H198.797ZM198.797 122.172V126.859H189.422V128.266H199.344V130.023H187.273V125.219H196.629V123.91H187.254V122.172H198.797ZM207.879 113.812C210.672 113.793 212.723 115.57 212.742 118.07C212.723 120.59 210.672 122.348 207.879 122.348C205.105 122.348 203.035 120.59 203.035 118.07C203.035 115.57 205.105 113.793 207.879 113.812ZM207.879 115.688C206.336 115.688 205.184 116.605 205.184 118.07C205.184 119.555 206.336 120.453 207.879 120.453C209.441 120.453 210.613 119.555 210.613 118.07C210.613 116.605 209.441 115.688 207.879 115.688ZM216.863 112.582V130.258H214.695V112.582H216.863ZM202.234 124.789C205.418 124.789 209.832 124.75 213.641 124.203L213.816 125.785C209.852 126.547 205.613 126.566 202.508 126.566L202.234 124.789ZM224.285 116.488V114.359H235.555V116.488H231.199V128.5H228.66V116.488H224.285ZM249.539 121.43C249.539 126 246.766 128.695 243.055 128.695C239.344 128.695 236.57 125.98 236.57 121.43C236.57 116.859 239.344 114.164 243.055 114.164C246.766 114.164 249.539 116.859 249.539 121.43ZM246.98 121.43C246.98 118.207 245.359 116.449 243.055 116.449C240.75 116.449 239.129 118.207 239.129 121.43C239.129 124.652 240.75 126.41 243.055 126.41C245.359 126.41 246.98 124.652 246.98 121.43ZM251.805 128.5V114.359H257.117C260.359 114.359 262.098 116.332 262.098 119.047C262.098 121.762 260.34 123.715 257.078 123.715H254.344V128.5H251.805ZM254.344 121.625H256.727C258.641 121.625 259.5 120.551 259.5 119.047C259.5 117.523 258.641 116.488 256.727 116.488H254.344V121.625ZM273.895 128.695C270.867 128.695 268.719 127.055 268.66 124.672H271.219C271.297 125.805 272.43 126.547 273.895 126.547C275.457 126.547 276.57 125.688 276.57 124.438C276.57 123.168 275.477 122.25 273.641 122.25H272.371V120.297H273.641C275.145 120.297 276.199 119.457 276.18 118.227C276.199 117.035 275.301 116.234 273.914 116.234C272.586 116.234 271.434 116.977 271.395 118.168H268.953C269.012 115.785 271.16 114.164 273.934 114.164C276.805 114.164 278.66 115.922 278.641 118.09C278.66 119.672 277.605 120.824 276.062 121.137V121.254C278.055 121.527 279.188 122.797 279.168 124.574C279.188 126.957 276.961 128.695 273.895 128.695ZM300.34 112.582V122.973H298.172V120.531H294.617V121.898H286.316V113.91H294.617V115.277H298.172V112.582H300.34ZM288.484 115.629V120.16H292.469V115.629H288.484ZM294.363 123.441C298.113 123.441 300.398 124.691 300.398 126.84C300.398 128.988 298.113 130.219 294.363 130.219C290.633 130.219 288.348 128.988 288.367 126.84C288.348 124.691 290.633 123.441 294.363 123.441ZM294.363 125.102C291.902 125.102 290.516 125.707 290.516 126.84C290.516 127.934 291.902 128.539 294.363 128.539C296.824 128.539 298.23 127.934 298.23 126.84C298.23 125.707 296.824 125.102 294.363 125.102ZM294.617 118.773H298.172V116.996H294.617V118.773ZM318.973 126.293V128.051H302.84V126.293H309.754V122.211H311.902V126.293H318.973ZM311.961 114.945C311.961 117.621 314.637 120.258 318.348 120.844L317.41 122.641C314.422 122.074 311.98 120.365 310.809 118.051C309.637 120.355 307.215 122.094 304.246 122.641L303.309 120.844C307 120.258 309.637 117.602 309.656 114.945V113.656H311.961V114.945ZM334.422 117.582V119.301H322.195V113.227H324.344V117.582H334.422ZM336.238 121.352V123.07H320.105V121.352H336.238ZM334.539 128.07V129.828H322.039V124.633H324.207V128.07H334.539ZM340.398 124.164C340.418 121.684 341.121 120.922 342.352 120.16C343.191 119.633 343.816 118.969 343.816 117.992C343.816 116.898 342.977 116.195 341.902 116.195C340.926 116.195 339.988 116.82 339.93 118.129H337.488C337.547 115.512 339.52 114.164 341.922 114.164C344.559 114.164 346.375 115.629 346.375 117.953C346.375 119.535 345.574 120.57 344.305 121.332C343.172 122.016 342.703 122.699 342.684 124.164V124.34H340.398V124.164ZM341.609 128.656C340.77 128.656 340.086 127.973 340.086 127.133C340.086 126.312 340.77 125.629 341.609 125.629C342.41 125.629 343.113 126.312 343.113 127.133C343.113 127.973 342.41 128.656 341.609 128.656Z" fill="#F7F7F7"/>
<path d="M162.809 171.703V173.602C162.773 175.781 162.773 178.91 162.035 182.953L158.168 182.602C158.783 179.314 158.906 176.889 158.977 174.938H146.602V171.703H162.809ZM154.793 178.945V185.273C158.08 185.15 161.455 184.904 164.531 184.465L164.742 187.277C158.133 188.473 150.645 188.578 145.055 188.613L144.703 185.484C146.584 185.467 148.693 185.449 150.926 185.414V178.945H154.793ZM170.402 169.348V179.262H174.516V182.531H170.402V193.148H166.395V169.348H170.402ZM171.422 197.332V200.496H149.449V191.039H153.387V197.332H171.422ZM193.922 171.176V173.145C193.922 175.184 193.922 178.031 193.148 181.582L189.316 181.266C189.879 178.4 190.002 176.186 190.055 174.375H177.715V171.176H193.922ZM185.906 178.207V183.938C189.211 183.814 192.568 183.604 195.645 183.234L195.855 185.977C189.246 187.102 181.898 187.277 176.168 187.277L175.816 184.113C177.732 184.113 179.842 184.096 182.039 184.043V178.207H185.906ZM201.516 169.348V177.469H205.629V180.738H201.516V188.895H197.508V169.348H201.516ZM190.863 189.246C197.578 189.281 201.762 191.461 201.762 195.082C201.762 198.844 197.578 201.023 190.863 201.023C184.148 201.023 179.965 198.844 179.965 195.082C179.965 191.461 184.148 189.281 190.863 189.246ZM190.863 192.27C186.469 192.27 183.938 193.289 183.938 195.082C183.938 197.016 186.469 197.965 190.863 197.965C195.223 197.965 197.719 197.016 197.754 195.082C197.719 193.289 195.223 192.27 190.863 192.27ZM232.172 169.348V182.004H237.059V185.238H232.172V201.129H228.305V169.348H232.172ZM225.844 174.234V177.363H207.105V174.234H214.629V169.805H218.531V174.234H225.844ZM216.598 179.438C221.168 179.438 224.578 182.531 224.578 186.926C224.578 191.32 221.168 194.379 216.598 194.379C211.957 194.379 208.547 191.32 208.582 186.926C208.547 182.531 211.957 179.438 216.598 179.438ZM216.598 182.637C214.102 182.637 212.309 184.324 212.309 186.926C212.309 189.527 214.102 191.18 216.598 191.145C219.023 191.18 220.816 189.527 220.852 186.926C220.816 184.324 219.023 182.637 216.598 182.637ZM264.34 172.266V175.324C264.305 179.262 264.305 183.691 263.074 190.336L259.137 189.914C260.367 183.727 260.367 179.209 260.402 175.395H241.418V172.266H264.34ZM267.363 193.816V197.016H238.395V193.816H249.082V182.777H252.949V193.816H267.363ZM295.805 171.703V173.602C295.77 175.781 295.77 178.91 295.031 182.953L291.164 182.602C291.779 179.314 291.902 176.889 291.973 174.938H279.598V171.703H295.805ZM287.789 178.945V185.273C291.076 185.15 294.451 184.904 297.527 184.465L297.738 187.277C291.129 188.473 283.641 188.578 278.051 188.613L277.699 185.484C279.58 185.467 281.689 185.449 283.922 185.414V178.945H287.789ZM303.398 169.348V179.262H307.512V182.531H303.398V193.148H299.391V169.348H303.398ZM304.418 197.332V200.496H282.445V191.039H286.383V197.332H304.418ZM326.918 171.176V173.145C326.918 175.184 326.918 178.031 326.145 181.582L322.312 181.266C322.875 178.4 322.998 176.186 323.051 174.375H310.711V171.176H326.918ZM318.902 178.207V183.938C322.207 183.814 325.564 183.604 328.641 183.234L328.852 185.977C322.242 187.102 314.895 187.277 309.164 187.277L308.812 184.113C310.729 184.113 312.838 184.096 315.035 184.043V178.207H318.902ZM334.512 169.348V177.469H338.625V180.738H334.512V188.895H330.504V169.348H334.512ZM323.859 189.246C330.574 189.281 334.758 191.461 334.758 195.082C334.758 198.844 330.574 201.023 323.859 201.023C317.145 201.023 312.961 198.844 312.961 195.082C312.961 191.461 317.145 189.281 323.859 189.246ZM323.859 192.27C319.465 192.27 316.934 193.289 316.934 195.082C316.934 197.016 319.465 197.965 323.859 197.965C328.219 197.965 330.715 197.016 330.75 195.082C330.715 193.289 328.219 192.27 323.859 192.27ZM365.168 169.348V182.004H370.055V185.238H365.168V201.129H361.301V169.348H365.168ZM358.84 174.234V177.363H340.102V174.234H347.625V169.805H351.527V174.234H358.84ZM349.594 179.438C354.164 179.438 357.574 182.531 357.574 186.926C357.574 191.32 354.164 194.379 349.594 194.379C344.953 194.379 341.543 191.32 341.578 186.926C341.543 182.531 344.953 179.438 349.594 179.438ZM349.594 182.637C347.098 182.637 345.305 184.324 345.305 186.926C345.305 189.527 347.098 191.18 349.594 191.145C352.02 191.18 353.812 189.527 353.848 186.926C353.812 184.324 352.02 182.637 349.594 182.637ZM397.336 172.266V175.324C397.301 179.262 397.301 183.691 396.07 190.336L392.133 189.914C393.363 183.727 393.363 179.209 393.398 175.395H374.414V172.266H397.336ZM400.359 193.816V197.016H371.391V193.816H382.078V182.777H385.945V193.816H400.359ZM162.809 214.703V216.602C162.773 218.781 162.773 221.91 162.035 225.953L158.168 225.602C158.783 222.314 158.906 219.889 158.977 217.938H146.602V214.703H162.809ZM154.793 221.945V228.273C158.08 228.15 161.455 227.904 164.531 227.465L164.742 230.277C158.133 231.473 150.645 231.578 145.055 231.613L144.703 228.484C146.584 228.467 148.693 228.449 150.926 228.414V221.945H154.793ZM170.402 212.348V222.262H174.516V225.531H170.402V236.148H166.395V212.348H170.402ZM171.422 240.332V243.496H149.449V234.039H153.387V240.332H171.422ZM193.922 214.176V216.145C193.922 218.184 193.922 221.031 193.148 224.582L189.316 224.266C189.879 221.4 190.002 219.186 190.055 217.375H177.715V214.176H193.922ZM185.906 221.207V226.938C189.211 226.814 192.568 226.604 195.645 226.234L195.855 228.977C189.246 230.102 181.898 230.277 176.168 230.277L175.816 227.113C177.732 227.113 179.842 227.096 182.039 227.043V221.207H185.906ZM201.516 212.348V220.469H205.629V223.738H201.516V231.895H197.508V212.348H201.516ZM190.863 232.246C197.578 232.281 201.762 234.461 201.762 238.082C201.762 241.844 197.578 244.023 190.863 244.023C184.148 244.023 179.965 241.844 179.965 238.082C179.965 234.461 184.148 232.281 190.863 232.246ZM190.863 235.27C186.469 235.27 183.938 236.289 183.938 238.082C183.938 240.016 186.469 240.965 190.863 240.965C195.223 240.965 197.719 240.016 197.754 238.082C197.719 236.289 195.223 235.27 190.863 235.27ZM232.172 212.348V225.004H237.059V228.238H232.172V244.129H228.305V212.348H232.172ZM225.844 217.234V220.363H207.105V217.234H214.629V212.805H218.531V217.234H225.844ZM216.598 222.438C221.168 222.438 224.578 225.531 224.578 229.926C224.578 234.32 221.168 237.379 216.598 237.379C211.957 237.379 208.547 234.32 208.582 229.926C208.547 225.531 211.957 222.438 216.598 222.438ZM216.598 225.637C214.102 225.637 212.309 227.324 212.309 229.926C212.309 232.527 214.102 234.18 216.598 234.145C219.023 234.18 220.816 232.527 220.852 229.926C220.816 227.324 219.023 225.637 216.598 225.637ZM264.34 215.266V218.324C264.305 222.262 264.305 226.691 263.074 233.336L259.137 232.914C260.367 226.727 260.367 222.209 260.402 218.395H241.418V215.266H264.34ZM267.363 236.816V240.016H238.395V236.816H249.082V225.777H252.949V236.816H267.363ZM304.523 212.383V229.996H300.586V212.383H304.523ZM289.898 216.566C289.898 220.574 292.57 224.371 297.598 225.812L295.734 228.941C292.025 227.781 289.354 225.426 287.93 222.402C286.471 225.672 283.764 228.256 279.949 229.469L278.051 226.375C283.184 224.793 285.855 220.75 285.855 216.566V213.508H289.898V216.566ZM304.699 231.578V234.672H300.691V240.578H304.98V243.742H282.762V240.578H287.086V234.672H283.043V231.578H304.699ZM290.953 240.578H296.824V234.672H290.953V240.578ZM338.133 228.766V231.895H309.164V228.766H338.133ZM334.863 240.332V243.496H312.75V234.25H316.652V240.332H334.863ZM323.613 213.367C330.539 213.367 335.039 215.793 335.074 219.801C335.039 223.844 330.539 226.305 323.613 226.305C316.688 226.305 312.152 223.844 312.152 219.801C312.152 215.793 316.688 213.367 323.613 213.367ZM323.613 216.496C319.008 216.496 316.195 217.691 316.23 219.801C316.195 221.945 319.008 223.141 323.613 223.105C328.254 223.141 331.031 221.945 331.031 219.801C331.031 217.691 328.254 216.496 323.613 216.496ZM374.203 213.859V216.25C374.203 218.676 374.203 221.418 373.43 225.004L369.527 224.617C370.23 221.436 370.301 219.08 370.301 216.918H352.195V213.859H374.203ZM377.719 226.902V229.996H348.891V226.902H360.07V220.82H363.938V226.902H377.719ZM365.133 233.266C365.133 236.852 369 240.121 375.68 240.965L374.238 243.953C369.07 243.25 365.133 241.105 363.164 238.047C361.178 241.105 357.24 243.25 352.125 243.953L350.719 240.965C357.293 240.121 361.16 236.852 361.195 233.266V232.105H365.133V233.266Z" fill="#333333"/>
<path d="M152.062 283.336C152.039 287.062 154.195 290.859 157.336 292.383L155.953 294.164C153.668 292.98 151.898 290.625 150.984 287.812C150.035 290.812 148.195 293.32 145.805 294.562L144.422 292.758C147.656 291.211 149.836 287.18 149.836 283.336V279.75H152.062V283.336ZM161.133 277.992V286.359H164.508V288.258H161.133V298.992H158.906V277.992H161.133ZM182.016 278.016V283.242H185.086V285.117H182.016V290.508H179.789V278.016H182.016ZM182.016 291.492V298.734H168.562V291.492H182.016ZM170.742 293.227V296.93H179.859V293.227H170.742ZM175.922 279.117V285.047H168.609V287.672C172.254 287.66 174.832 287.555 177.891 287.039L178.125 288.82C174.867 289.406 172.102 289.523 168.07 289.523H166.383V283.359H173.742V280.898H166.359V279.117H175.922ZM205.43 286.594V288.375H186.258V286.594H205.43ZM203.156 283.289V285.07H188.766V278.602H202.945V280.406H190.992V283.289H203.156ZM202.992 290.039V295.125H190.758V297H203.578V298.758H188.578V293.484H200.789V291.75H188.555V290.039H202.992ZM224.391 277.992V299.039H222.164V277.992H224.391ZM213.164 279.562C216.281 279.562 218.578 282.422 218.578 286.922C218.578 291.445 216.281 294.305 213.164 294.305C210 294.305 207.727 291.445 207.727 286.922C207.727 282.422 210 279.562 213.164 279.562ZM213.164 281.555C211.219 281.555 209.883 283.617 209.883 286.922C209.883 290.25 211.219 292.312 213.164 292.312C215.086 292.312 216.422 290.25 216.422 286.922C216.422 283.617 215.086 281.555 213.164 281.555ZM252.82 294.516V296.367H233.602V294.516H238.195V289.031C236.473 288.082 235.43 286.57 235.43 284.695C235.43 281.391 238.664 279.211 243.164 279.211C247.688 279.211 250.922 281.391 250.922 284.695C250.922 286.547 249.914 288.035 248.227 288.984V294.516H252.82ZM243.164 280.992C239.859 280.992 237.586 282.422 237.586 284.695C237.586 286.945 239.859 288.422 243.164 288.422C246.445 288.422 248.766 286.945 248.766 284.695C248.766 282.422 246.445 280.992 243.164 280.992ZM240.398 294.516H245.977V289.828C245.121 290.051 244.172 290.156 243.164 290.156C242.18 290.156 241.242 290.051 240.398 289.852V294.516ZM271.781 278.883V280.688H265.406C265.652 282.762 268.629 284.496 272.508 284.859L271.711 286.617C268.078 286.23 265.066 284.695 263.93 282.445C262.77 284.707 259.77 286.23 256.125 286.617L255.352 284.859C259.16 284.496 262.16 282.762 262.43 280.688H256.102V278.883H271.781ZM271.148 291.562V298.734H256.641V291.562H271.148ZM258.844 293.32V296.93H268.992V293.32H258.844ZM273.492 287.742V289.523H254.344V287.742H273.492ZM286.641 279.562C288.551 279.562 290.133 280.664 291.07 282.562H296.25V277.992H298.453V299.039H296.25V290.977H291.211C290.309 293.086 288.656 294.305 286.641 294.305C283.5 294.305 281.297 291.445 281.32 286.922C281.297 282.422 283.5 279.562 286.641 279.562ZM286.641 281.555C284.742 281.555 283.43 283.617 283.43 286.922C283.43 290.25 284.742 292.312 286.641 292.312C288.539 292.312 289.852 290.25 289.852 286.922C289.852 283.617 288.539 281.555 286.641 281.555ZM291.703 284.391C291.855 285.164 291.961 286.008 291.961 286.922C291.961 287.719 291.891 288.457 291.75 289.148H296.25V284.391H291.703ZM319.148 277.992V298.992H316.898V277.992H319.148ZM312.891 280.242C312.891 286.383 310.266 291.727 303.07 295.172L301.898 293.367C307.488 290.707 310.207 286.922 310.641 282.023H302.906V280.242H312.891ZM346.312 277.992V298.992H344.18V277.992H346.312ZM342.047 278.438V297.938H339.938V287.25H336.68V285.422H339.938V278.438H342.047ZM334.617 283.852C334.617 287.438 336.07 291.023 339.023 292.734L337.688 294.375C335.684 293.18 334.301 291.059 333.586 288.516C332.824 291.258 331.395 293.59 329.344 294.867L327.984 293.203C330.961 291.398 332.484 287.578 332.484 283.852V282.164H328.617V280.359H338.227V282.164H334.617V283.852ZM354.984 278.695C358.148 278.719 360.469 280.664 360.492 283.406C360.469 286.172 358.148 288.094 354.984 288.094C351.797 288.094 349.453 286.172 349.453 283.406C349.453 280.664 351.797 278.719 354.984 278.695ZM354.984 280.57C353.039 280.547 351.609 281.695 351.633 283.406C351.609 285.141 353.039 286.289 354.984 286.289C356.906 286.289 358.336 285.141 358.336 283.406C358.336 281.695 356.906 280.547 354.984 280.57ZM366.445 277.992V288.68H364.219V277.992H366.445ZM366.445 289.641V294.938H354.867V296.953H367.148V298.734H352.711V293.273H364.242V291.422H352.641V289.641H366.445ZM392.133 277.992V282.609H395.18V284.461H392.133V288.656H389.906V277.992H392.133ZM386.273 279.352V287.977H376.453V279.352H386.273ZM378.633 281.133V286.195H384.094V281.133H378.633ZM379.922 290.484V296.602C381.152 296.543 382.57 296.367 383.906 295.922L384.234 297.68C382.289 298.336 380.391 298.43 378.82 298.43H377.742V290.484H379.922ZM394.102 290.719V292.359H383.508V290.719H387.75V288.961H389.93V290.719H394.102ZM388.805 293.039C391.125 293.062 392.766 294.164 392.766 295.992C392.766 297.82 391.125 298.945 388.805 298.945C386.438 298.945 384.82 297.82 384.844 295.992C384.82 294.164 386.438 293.062 388.805 293.039ZM388.805 294.586C387.633 294.609 386.812 295.125 386.812 295.992C386.812 296.883 387.633 297.422 388.805 297.422C389.953 297.422 390.773 296.883 390.773 295.992C390.773 295.125 389.953 294.609 388.805 294.586ZM413.766 277.992V299.039H411.539V277.992H413.766ZM402.539 279.562C405.656 279.562 407.953 282.422 407.953 286.922C407.953 291.445 405.656 294.305 402.539 294.305C399.375 294.305 397.102 291.445 397.102 286.922C397.102 282.422 399.375 279.562 402.539 279.562ZM402.539 281.555C400.594 281.555 399.258 283.617 399.258 286.922C399.258 290.25 400.594 292.312 402.539 292.312C404.461 292.312 405.797 290.25 405.797 286.922C405.797 283.617 404.461 281.555 402.539 281.555ZM439.336 277.992V286.359H442.594V288.211H439.336V298.969H437.109V277.992H439.336ZM433.852 280.195C433.828 286.266 431.156 291.68 424.242 295.102L423 293.367C428.262 290.742 431.121 286.945 431.578 282.047H424.055V280.195H433.852ZM454.594 279.633V281.461H447.164V288.492C450.68 288.48 453.035 288.375 455.719 287.859L455.953 289.664C453.023 290.18 450.492 290.32 446.578 290.32H444.961V279.633H454.594ZM461.227 278.016V293.32H459V285.492H453.281V283.711H459V278.016H461.227ZM461.766 296.859V298.664H447.539V292.125H449.789V296.859H461.766ZM482.508 277.992V298.992H480.352V277.992H482.508ZM478.172 278.438V297.938H476.062V287.742H471.75V285.891H476.062V278.438H478.172ZM473.18 280.5V282.328H467.391V292.195C470.145 292.172 471.996 292.055 474.164 291.586L474.352 293.461C471.938 293.953 469.875 294.047 466.594 294.047H465.211V280.5H473.18ZM150.469 308.562C152.379 308.562 153.961 309.664 154.898 311.562H160.078V306.992H162.281V328.039H160.078V319.977H155.039C154.137 322.086 152.484 323.305 150.469 323.305C147.328 323.305 145.125 320.445 145.148 315.922C145.125 311.422 147.328 308.562 150.469 308.562ZM150.469 310.555C148.57 310.555 147.258 312.617 147.258 315.922C147.258 319.25 148.57 321.312 150.469 321.312C152.367 321.312 153.68 319.25 153.68 315.922C153.68 312.617 152.367 310.555 150.469 310.555ZM155.531 313.391C155.684 314.164 155.789 315.008 155.789 315.922C155.789 316.719 155.719 317.457 155.578 318.148H160.078V313.391H155.531ZM182.977 306.992V327.992H180.727V306.992H182.977ZM176.719 309.242C176.719 315.383 174.094 320.727 166.898 324.172L165.727 322.367C171.316 319.707 174.035 315.922 174.469 311.023H166.734V309.242H176.719ZM209.672 307.016V327.992H207.422V323H202.781V321.289H207.422V307.016H209.672ZM192.023 317.984C196.195 317.961 201.352 317.938 205.898 317.469L206.016 319.109C204.012 319.379 201.949 319.555 199.922 319.648V327.336H197.695V319.766C195.809 319.824 193.98 319.848 192.328 319.859L192.023 317.984ZM204.211 308.141V315.781H193.852V308.141H204.211ZM196.031 309.922V314H202.031V309.922H196.031ZM229.219 306.992V315.5H232.594V317.352H229.219V327.992H227.016V306.992H229.219ZM225.188 310.273V312.102H212.742V310.273H217.922V307.273H220.148V310.273H225.188ZM219.047 313.648C222.047 313.648 224.25 315.664 224.273 318.523C224.25 321.406 222.047 323.398 219.047 323.422C216.023 323.398 213.82 321.406 213.82 318.523C213.82 315.664 216.023 313.648 219.047 313.648ZM219.047 315.477C217.266 315.477 215.93 316.719 215.953 318.523C215.93 320.352 217.266 321.57 219.047 321.547C220.828 321.57 222.141 320.352 222.141 318.523C222.141 316.719 220.828 315.477 219.047 315.477ZM250.594 313.133V314.914H236.133V307.742H238.336V313.133H250.594ZM252.797 317.562V319.344H233.578V317.562H252.797ZM250.734 325.672V327.5H235.969V321.336H238.195V325.672H250.734ZM276.938 308V309.523C276.938 311.117 276.938 312.945 276.422 315.383L274.219 315.148C274.711 312.875 274.734 311.246 274.734 309.758H262.453V308H276.938ZM279.328 316.719V318.5H260.227V316.719H267.891V312.594H270.07V316.719H279.328ZM270.82 320.891C270.797 323.469 273.773 325.602 277.898 326.164L277.055 327.898C273.727 327.395 270.984 325.93 269.695 323.773C268.395 325.93 265.641 327.395 262.336 327.898L261.539 326.164C265.594 325.602 268.547 323.469 268.57 320.891V320.047H270.82V320.891ZM298.359 307.016V322.273H296.133V307.016H298.359ZM298.992 325.742V327.547H284.625V320.727H286.875V325.742H298.992ZM286.969 308.422C290.133 308.422 292.547 310.578 292.547 313.625C292.547 316.719 290.133 318.852 286.969 318.852C283.805 318.852 281.367 316.719 281.367 313.625C281.367 310.578 283.805 308.422 286.969 308.422ZM286.969 310.367C285 310.367 283.547 311.703 283.547 313.625C283.547 315.594 285 316.906 286.969 316.906C288.891 316.906 290.367 315.594 290.367 313.625C290.367 311.703 288.891 310.367 286.969 310.367ZM319.734 306.992V327.992H317.578V306.992H319.734ZM315.398 307.438V326.938H313.289V316.742H308.977V314.891H313.289V307.438H315.398ZM310.406 309.5V311.328H304.617V321.195C307.371 321.172 309.223 321.055 311.391 320.586L311.578 322.461C309.164 322.953 307.102 323.047 303.82 323.047H302.438V309.5H310.406ZM344.789 306.992V311.609H347.836V313.461H344.789V317.656H342.562V306.992H344.789ZM338.93 308.352V316.977H329.109V308.352H338.93ZM331.289 310.133V315.195H336.75V310.133H331.289ZM332.578 319.484V325.602C333.809 325.543 335.227 325.367 336.562 324.922L336.891 326.68C334.945 327.336 333.047 327.43 331.477 327.43H330.398V319.484H332.578ZM346.758 319.719V321.359H336.164V319.719H340.406V317.961H342.586V319.719H346.758ZM341.461 322.039C343.781 322.062 345.422 323.164 345.422 324.992C345.422 326.82 343.781 327.945 341.461 327.945C339.094 327.945 337.477 326.82 337.5 324.992C337.477 323.164 339.094 322.062 341.461 322.039ZM341.461 323.586C340.289 323.609 339.469 324.125 339.469 324.992C339.469 325.883 340.289 326.422 341.461 326.422C342.609 326.422 343.43 325.883 343.43 324.992C343.43 324.125 342.609 323.609 341.461 323.586ZM366.422 306.992V328.039H364.195V306.992H366.422ZM355.195 308.562C358.312 308.562 360.609 311.422 360.609 315.922C360.609 320.445 358.312 323.305 355.195 323.305C352.031 323.305 349.758 320.445 349.758 315.922C349.758 311.422 352.031 308.562 355.195 308.562ZM355.195 310.555C353.25 310.555 351.914 312.617 351.914 315.922C351.914 319.25 353.25 321.312 355.195 321.312C357.117 321.312 358.453 319.25 358.453 315.922C358.453 312.617 357.117 310.555 355.195 310.555ZM391.992 306.992V315.359H395.25V317.211H391.992V327.969H389.766V306.992H391.992ZM386.508 309.195C386.484 315.266 383.812 320.68 376.898 324.102L375.656 322.367C380.918 319.742 383.777 315.945 384.234 311.047H376.711V309.195H386.508ZM399.82 320.961C399.844 317.891 400.758 316.953 402.305 315.992C403.289 315.383 404.039 314.539 404.039 313.297C404.039 311.82 402.914 310.906 401.508 310.906C400.242 310.906 399.023 311.68 398.906 313.414H396.375C396.469 310.438 398.719 308.797 401.508 308.797C404.555 308.797 406.594 310.625 406.594 313.297C406.594 315.172 405.703 316.438 404.203 317.352C402.797 318.195 402.258 319.062 402.211 320.961V321.102H399.82V320.961ZM401.109 326.164C400.195 326.164 399.422 325.414 399.445 324.5C399.422 323.586 400.195 322.836 401.109 322.836C402 322.836 402.773 323.586 402.773 324.5C402.773 325.414 402 326.164 401.109 326.164Z" fill="#5C5C5C"/>
</svg>
