<svg width="1440" height="450" viewBox="0 0 1440 450" fill="none" xmlns="http://www.w3.org/2000/svg">
<g clip-path="url(#clip0_274_32227)">
<rect width="1440" height="450" fill="#F9F1C6"/>
<path d="M194.508 110.297V115.289C194.508 120 194.508 125.414 193.242 132.305H201.469V139.477H176.578V148.688H194.578V171.469H185.578V155.719H148.805V148.688H167.578V139.477H142.898V132.305H184.172C185.367 126.328 185.543 121.617 185.578 117.398H150.07V110.297H194.508ZM260.32 107.484V171.469H251.672V139.477H245.695V168.375H237.258V108.539H245.695V132.234H251.672V107.484H260.32ZM216.727 114.586V147.984C221.859 147.879 227.484 147.422 233.672 146.227L234.586 153.961C226.008 155.438 218.695 155.859 212.086 155.859H207.727V114.586H216.727ZM301.594 111.984C307.324 111.984 312.105 115.148 315.023 120.633H329.086V107.484H337.945V171.609H329.086V147.633H315.727C312.844 153.961 307.781 157.617 301.594 157.617C291.891 157.617 284.93 148.828 285 134.766C284.93 120.844 291.891 111.984 301.594 111.984ZM301.594 120.07C296.812 120.07 293.508 125.273 293.578 134.766C293.508 144.328 296.812 149.461 301.594 149.461C306.445 149.461 309.609 144.328 309.609 134.766C309.609 125.273 306.445 120.07 301.594 120.07ZM317.555 127.875C317.941 129.984 318.188 132.305 318.188 134.766C318.188 136.77 318.012 138.668 317.766 140.461H329.086V127.875H317.555ZM401.156 107.484V147.633H392.648V130.617H387.516V145.523H379.148V108.68H387.516V123.305H392.648V107.484H401.156ZM377.25 114.094V121.055H345.82V114.094H357.141V108.047H366.07V114.094H377.25ZM361.641 123.164C369.797 123.164 375.562 127.664 375.633 134.344C375.562 140.953 369.797 145.453 361.641 145.453C353.625 145.453 347.789 140.953 347.789 134.344C347.789 127.664 353.625 123.164 361.641 123.164ZM361.641 129.633C358.125 129.633 355.805 131.391 355.805 134.344C355.805 137.297 358.125 139.125 361.641 139.055C365.156 139.125 367.477 137.297 367.547 134.344C367.477 131.391 365.156 129.633 361.641 129.633ZM379.289 148.195C393.141 148.195 401.438 152.414 401.508 159.867C401.438 167.25 393.141 171.469 379.289 171.469C365.508 171.469 357.141 167.25 357.141 159.867C357.141 152.414 365.508 148.195 379.289 148.195ZM379.289 154.945C370.641 154.945 366.07 156.492 366.141 159.867C366.07 163.102 370.641 164.719 379.289 164.719C388.008 164.719 392.438 163.102 392.438 159.867C392.438 156.492 388.008 154.945 379.289 154.945ZM432.023 124.922C431.953 134.695 437.156 145.945 447.703 150.797L442.711 157.828C435.574 154.559 430.477 148.02 427.664 140.32C424.781 148.793 419.543 155.965 412.125 159.445L406.922 152.344C417.609 147.352 422.953 135.469 423.023 124.922V120.984H409.453V113.672H444.891V120.984H432.023V124.922ZM458.883 107.484V131.883H468.305V139.406H458.883V171.469H449.883V107.484H458.883ZM529.125 132.445V139.477H470.625V132.445H529.125ZM522.164 121.898V128.93H477.938V108.75H521.672V115.922H486.867V121.898H522.164ZM521.883 143.273V160.008H486.234V163.945H523.57V170.906H477.445V153.609H513.023V150.023H477.375V143.273H521.883ZM568.852 113.883V119.016C568.781 125.062 568.781 132.938 567.094 143.555L558.234 142.852C559.676 133.57 559.816 126.715 559.922 121.055H535.664V113.883H568.852ZM552.891 132.234V150.797C559.184 150.551 565.582 150.094 571.453 149.32L572.016 156C558.867 158.25 544.312 158.461 533.133 158.391L532.289 151.219C535.875 151.184 539.883 151.184 544.031 151.078V132.234H552.891ZM583.547 107.484V133.219H592.266V140.672H583.547V171.469H574.477V107.484H583.547ZM385.055 193.484V257.469H376.477V193.484H385.055ZM371.695 194.398V254.516H363.258V224.281H358.125C357.281 236.867 351.938 244.461 344.062 244.461C335.625 244.461 330.141 235.602 330.141 221.188C330.141 206.844 335.625 198.055 344.062 198.055C351.762 198.055 357.035 205.227 358.055 217.18H363.258V194.398H371.695ZM344.062 206.492C340.477 206.492 338.367 211.414 338.438 221.188C338.367 231.031 340.477 235.883 344.062 235.812C347.719 235.883 349.898 231.031 349.898 221.188C349.898 211.414 347.719 206.492 344.062 206.492ZM415.992 207.969C415.992 219.992 420.844 231.664 431.531 236.305L426.047 243.477C418.945 239.996 414.199 233.633 411.562 225.758C408.75 234.125 403.828 240.98 396.516 244.602L390.891 237.289C401.859 232.367 406.852 219.992 406.922 207.969V198.406H415.992V207.969ZM445.805 193.484V257.609H436.945V220.836H424.359V213.594H436.945V193.484H445.805ZM298.219 289.258V296.359H267.281V289.258H278.391V281.242H287.25V289.258H298.219ZM282.891 299.242C291.047 299.242 296.883 305.57 296.953 314.43C296.883 323.359 291.047 329.688 282.891 329.688C274.734 329.688 268.758 323.359 268.758 314.43C268.758 305.57 274.734 299.242 282.891 299.242ZM282.891 306.695C279.164 306.695 276.633 309.578 276.633 314.43C276.633 319.281 279.164 322.094 282.891 322.094C286.477 322.094 289.008 319.281 289.078 314.43C289.008 309.578 286.477 306.695 282.891 306.695ZM322.688 279.484V343.469H314.18V312.672H308.977V340.727H300.609V280.75H308.977V305.5H314.18V279.484H322.688ZM388.148 328.633V336.016H329.578V328.633H342.656V312.953C337.699 310 334.711 305.465 334.711 299.805C334.711 289.469 344.836 282.578 358.758 282.578C372.609 282.578 382.805 289.469 382.875 299.805C382.84 305.324 379.922 309.824 375.141 312.812V328.633H388.148ZM358.758 289.68C349.617 289.68 343.57 293.336 343.57 299.805C343.57 306.062 349.617 309.93 358.758 309.93C367.828 309.93 373.945 306.062 374.016 299.805C373.945 293.336 367.828 289.68 358.758 289.68ZM351.516 328.633H366.07V316.188C363.785 316.645 361.324 316.891 358.758 316.891C356.191 316.891 353.766 316.68 351.516 316.188V328.633ZM406.359 286.094L405.445 321.742H396.445L395.531 286.094H406.359ZM401.016 337.633C397.711 337.633 395.039 334.961 395.109 331.727C395.039 328.492 397.711 325.891 401.016 325.891C404.109 325.891 406.852 328.492 406.852 331.727C406.852 334.961 404.109 337.633 401.016 337.633Z" fill="#333333"/>
<path d="M153.164 199.18V213.594H161.883V199.18H170.18V242.281H144.727V199.18H153.164ZM153.164 235.109H161.883V220.625H153.164V235.109ZM198.375 193.484V257.469H189.797V225.195H184.031V254.516H175.523V194.398H184.031V217.883H189.797V193.484H198.375ZM264.68 217.742V225.055H255.609V257.328H246.609V193.484H255.609V217.742H264.68ZM216.094 199.602V234.266C224.285 234.16 233.074 233.387 242.32 231.523L243.234 238.977C232.547 241.156 222.141 241.719 212.719 241.719H207.164V199.602H216.094ZM318.117 193.484V208.25H326.766V215.633H318.117V230.891H309.117V193.484H318.117ZM297.023 231.664C310.172 231.594 318.75 236.656 318.75 244.531C318.75 252.688 310.172 257.539 297.023 257.539C283.734 257.539 275.086 252.688 275.086 244.531C275.086 236.656 283.734 231.594 297.023 231.664ZM297.023 238.836C288.727 238.836 283.875 240.734 283.945 244.531C283.875 248.398 288.727 250.438 297.023 250.438C305.039 250.438 309.891 248.398 309.891 244.531C309.891 240.734 305.039 238.836 297.023 238.836ZM278.953 197.07V219.57C286.688 219.465 295.02 218.727 303.914 216.969L304.969 224.211C294.422 226.32 284.508 226.953 275.438 226.953H269.953V197.07H278.953ZM201.469 328.633V335.805H142.898V328.633H167.367V314.148H176.297V328.633H201.469ZM176.578 287.711C176.578 296.852 184.805 306.484 199.43 308.734L195.633 316.188C184.383 314.148 176.016 308.137 171.797 300.156C167.578 308.102 159.281 314.184 148.102 316.188L144.305 308.734C158.789 306.484 166.945 296.781 167.016 287.711V283.141H176.578V287.711ZM263.484 312.461V319.492H204.984V312.461H229.734V308.523H212.297V281.031H256.664V287.922H221.297V291.508H255.188V297.977H221.297V301.633H257.227V308.523H238.734V312.461H263.484ZM234.234 322.445C248.367 322.375 256.453 326.172 256.523 332.922C256.453 339.812 248.367 343.469 234.234 343.469C219.891 343.469 211.805 339.812 211.805 332.922C211.805 326.172 219.891 322.375 234.234 322.445ZM234.234 329.055C225.023 329.055 220.734 330.25 220.805 332.922C220.734 335.664 225.023 336.859 234.234 336.859C243.234 336.859 247.453 335.664 247.523 332.922C247.453 330.25 243.234 329.055 234.234 329.055Z" fill="#DDB900"/>
<path d="M859.832 467.37C850.112 462.231 835.864 450.064 821.907 429.713C816.959 422.499 823.818 413.626 832.268 415.889C859.108 423.077 890.143 432.287 885.543 439.077C881.235 445.437 874.521 456.536 870.21 463.774C868.002 467.483 863.648 469.387 859.832 467.37Z" fill="#917800"/>
<path d="M1013.17 467.37C1022.89 462.231 1037.14 450.064 1051.09 429.713C1056.04 422.499 1049.18 413.626 1040.73 415.889C1013.89 423.077 982.857 432.287 987.457 439.077C991.765 445.437 998.479 456.536 1002.79 463.774C1005 467.483 1009.35 469.387 1013.17 467.37Z" fill="#917800"/>
<ellipse cx="1149" cy="329.5" rx="47" ry="38.5" fill="#DDB900"/>
<ellipse cx="729" cy="341.5" rx="47" ry="38.5" fill="#DDB900"/>
<ellipse cx="938" cy="288" rx="217" ry="163" fill="#FFD700"/>
<ellipse cx="848.5" cy="243" rx="39.5" ry="45" fill="#F7F7F7"/>
<ellipse cx="849.017" cy="242.5" rx="25.0167" ry="28.5" fill="#333333"/>
<ellipse cx="1025.5" cy="243" rx="39.5" ry="45" fill="#F7F7F7"/>
<ellipse cx="1026.02" cy="242.5" rx="25.0167" ry="28.5" fill="#333333"/>
<path d="M964.5 95.5C965 101.167 961.1 116.5 941.5 132.5C969.5 138.167 1024.2 148 1019 142C1013.8 136 1016.83 116.5 1019 107.5L1045 113.5L1050 95.5L946.5 71L941.5 90L964.5 95.5Z" fill="#FFD700"/>
<path d="M1239.83 467.37C1230.11 462.231 1215.86 450.064 1201.91 429.713C1196.96 422.499 1203.82 413.626 1212.27 415.889C1239.11 423.077 1270.14 432.287 1265.54 439.077C1261.23 445.437 1254.52 456.536 1250.21 463.774C1248 467.483 1243.65 469.387 1239.83 467.37Z" fill="#917800"/>
<path d="M1393.17 467.37C1402.89 462.231 1417.14 450.064 1431.09 429.713C1436.04 422.499 1429.18 413.626 1420.73 415.889C1393.89 423.077 1362.86 432.287 1367.46 439.077C1371.77 445.437 1378.48 456.536 1382.79 463.774C1385 467.483 1389.35 469.387 1393.17 467.37Z" fill="#917800"/>
<ellipse cx="1109" cy="341.5" rx="47" ry="38.5" fill="#DDB900"/>
<ellipse cx="1318" cy="288" rx="217" ry="163" fill="#FFD700"/>
<ellipse cx="1228.5" cy="243" rx="39.5" ry="45" fill="#F7F7F7"/>
<path d="M1254.03 246.347C1254.03 230.607 1242.83 217.847 1229.02 217.847C1215.2 217.847 1204 230.607 1204 246.347C1204 262.087 1215.2 232.847 1229.02 232.847C1242.83 232.847 1254.03 262.087 1254.03 246.347Z" fill="#333333"/>
<ellipse cx="1405.5" cy="243" rx="39.5" ry="45" fill="#F7F7F7"/>
<path d="M1431.03 246.347C1431.03 230.607 1419.83 217.847 1406.02 217.847C1392.2 217.847 1381 230.607 1381 246.347C1381 262.087 1392.2 232.847 1406.02 232.847C1419.83 232.847 1431.03 262.087 1431.03 246.347Z" fill="#333333"/>
<path d="M1344.5 95.5C1345 101.167 1341.1 116.5 1321.5 132.5C1349.5 138.167 1404.2 148 1399 142C1393.8 136 1396.83 116.5 1399 107.5L1425 113.5L1430 95.5L1326.5 71L1321.5 90L1344.5 95.5Z" fill="url(#paint0_linear_274_32227)"/>
</g>
<defs>
<linearGradient id="paint0_linear_274_32227" x1="1375.75" y1="71" x2="1375.75" y2="143.874" gradientUnits="userSpaceOnUse">
<stop stop-color="#ABD551"/>
<stop offset="1" stop-color="#FFD700"/>
</linearGradient>
<clipPath id="clip0_274_32227">
<rect width="1440" height="450" fill="white"/>
</clipPath>
</defs>
</svg>
