<svg width="24" height="22" viewBox="0 0 24 22" fill="none" xmlns="http://www.w3.org/2000/svg">
<g clip-path="url(#clip0_286_46583)">
<rect width="24" height="21" transform="translate(0 0.5)" fill="white" fill-opacity="0.01"/>
<path d="M12.5305 2.00334C12.4608 1.94223 12.3781 1.89374 12.287 1.86066C12.1958 1.82758 12.0982 1.81055 11.9995 1.81055C11.9009 1.81055 11.8032 1.82758 11.7121 1.86066C11.6209 1.89374 11.5382 1.94223 11.4685 2.00334L2.46851 9.87834C2.39891 9.9394 2.34374 10.0119 2.30617 10.0916C2.26859 10.1713 2.24934 10.2567 2.24951 10.343V19.5305C2.24951 19.7045 2.32853 19.8714 2.46918 19.9945C2.60984 20.1176 2.8006 20.1867 2.99951 20.1867H9.74951C9.94843 20.1867 10.1392 20.1176 10.2798 19.9945C10.4205 19.8714 10.4995 19.7045 10.4995 19.5305V14.2805H13.4995V19.5305C13.4995 19.7045 13.5785 19.8714 13.7192 19.9945C13.8598 20.1176 14.0506 20.1867 14.2495 20.1867H20.9995C21.1984 20.1867 21.3892 20.1176 21.5298 19.9945C21.6705 19.8714 21.7495 19.7045 21.7495 19.5305V10.343C21.7497 10.2567 21.7304 10.1713 21.6929 10.0916C21.6553 10.0119 21.6001 9.9394 21.5305 9.87834L19.4995 8.10253V3.78047C19.4995 3.60642 19.4205 3.4395 19.2798 3.31643C19.1392 3.19336 18.9484 3.12422 18.7495 3.12422H17.2495C17.0506 3.12422 16.8598 3.19336 16.7192 3.31643C16.5785 3.4395 16.4995 3.60642 16.4995 3.78047V5.47753L12.5305 2.00334ZM3.74951 18.8742V10.6147L11.9995 3.39591L20.2495 10.6147V18.8742H14.9995V13.6242C14.9995 13.4502 14.9205 13.2833 14.7798 13.1602C14.6392 13.0371 14.4484 12.968 14.2495 12.968H9.74951C9.5506 12.968 9.35984 13.0371 9.21918 13.1602C9.07853 13.2833 8.99951 13.4502 8.99951 13.6242V18.8742H3.74951Z" fill="#DDB900"/>
</g>
<defs>
<clipPath id="clip0_286_46583">
<rect width="24" height="21" fill="white" transform="translate(0 0.5)"/>
</clipPath>
</defs>
</svg>
