<svg width="408" height="64" viewBox="0 0 408 64" fill="none" xmlns="http://www.w3.org/2000/svg">
<rect width="408" height="64" rx="32" fill="#FFD700"/>
<path d="M76.3359 40.0547L74.625 38.3672L79.7578 33.2578H67.3125V30.7969H79.7578L74.625 25.6875L76.3359 24L84.3516 32.0156L76.3359 40.0547ZM109.547 21.3984V29.4375H112.805V31.5703H109.547V42.6094H106.945V21.3984H109.547ZM103.734 23.4141V25.5234H96.4219V35.25C99.7148 35.25 102.316 35.0859 105.234 34.5703L105.539 36.7734C102.258 37.3359 99.3984 37.4297 95.5781 37.4297H93.8203V23.4141H103.734ZM133.031 32.9531V35.0391H113.672V32.9531H133.031ZM131.109 40.0547V42.1641H116.156V36.375H118.781V40.0547H131.109ZM130.641 21.9609V27.6094H118.711V29.4141H131.062V31.3828H116.133V25.7344H128.039V24H116.062V21.9609H130.641ZM148.125 27.4219C148.125 30.8906 150.164 34.5469 153.586 35.9766L152.156 38.0391C149.648 36.9609 147.82 34.7344 146.859 32.0391C145.875 34.9453 144.023 37.3828 141.539 38.5547L140.039 36.5156C143.391 34.9688 145.477 31.0312 145.477 27.4219V25.6406H140.812V23.4844H152.766V25.6406H148.125V27.4219ZM157.758 21.3984V42.5859H155.133V21.3984H157.758ZM178.617 34.9219V42.5859H176.016V36.9844H164.18V34.9219H178.617ZM178.617 21.3984V33.9141H176.016V31.1016H171.047C170.039 32.2266 168.516 32.9062 166.758 32.9062C163.57 32.9062 161.156 30.75 161.156 27.7031C161.156 24.7031 163.57 22.5469 166.758 22.5703C168.504 22.5586 170.027 23.2148 171.023 24.3281H176.016V21.3984H178.617ZM166.758 24.7734C164.93 24.7734 163.641 25.9453 163.641 27.7031C163.641 29.5312 164.93 30.6797 166.758 30.7031C168.492 30.6797 169.805 29.5312 169.828 27.7031C169.805 25.9453 168.492 24.7734 166.758 24.7734ZM172.148 28.9922H176.016V26.4609H172.172C172.254 26.8594 172.312 27.2695 172.312 27.7031C172.312 28.1484 172.254 28.582 172.148 28.9922ZM205.078 21.4219V33.7734H202.453V32.9062H198.492V31.3125H202.453V21.4219H205.078ZM187.289 29.0625C191.391 29.0625 196.5 29.0156 201.047 28.5703L201.188 30.2109C199.254 30.4805 197.262 30.6445 195.305 30.7266V33.7969H192.727V30.8438C190.91 30.8906 189.164 30.9023 187.57 30.8906L187.289 29.0625ZM205.078 34.4297V39.1875H193.031V40.5469H205.641V42.3984H190.477V37.4766H202.5V36.2109H190.383V34.4297H205.078ZM194.133 21.75C197.273 21.75 199.43 23.0156 199.43 24.9375C199.43 26.9062 197.273 28.1016 194.133 28.1016C190.922 28.1016 188.789 26.9062 188.789 24.9375C188.789 23.0156 190.922 21.75 194.133 21.75ZM194.133 23.4844C192.352 23.4844 191.25 24.0469 191.273 24.9375C191.25 25.8281 192.352 26.3672 194.133 26.3672C195.867 26.3672 196.992 25.8281 196.992 24.9375C196.992 24.0469 195.867 23.4844 194.133 23.4844ZM225.258 31.3359V33.4219H210.398V23.25H225.094V25.3594H212.977V31.3359H225.258ZM227.414 37.7344V39.8906H208.055V37.7344H227.414ZM246.539 21.3984V33.0703H243.938V28.8281H239.836V26.7188H243.938V21.3984H246.539ZM235.195 34.0312V36.1406H243.961V34.0312H246.539V42.3281H232.641V34.0312H235.195ZM235.195 40.2188H243.961V38.1562H235.195V40.2188ZM239.953 22.4062C239.93 28.0781 237.023 31.875 230.227 33.8906L229.219 31.8047C232.324 30.9258 234.387 29.6953 235.641 28.1484L229.57 28.6172L229.172 26.5547L236.742 26.2734C236.941 25.7109 237.082 25.125 237.164 24.5156H230.25V22.4062H239.953ZM271.828 21.3984V29.8359H275.086V31.9922H271.828V42.5859H269.25V21.3984H271.828ZM267.609 24.6562V26.7422H255.117V24.6562H260.133V21.7031H262.734V24.6562H267.609ZM261.445 28.125C264.492 28.125 266.766 30.1875 266.766 33.1172C266.766 36.0469 264.492 38.0859 261.445 38.0859C258.352 38.0859 256.078 36.0469 256.102 33.1172C256.078 30.1875 258.352 28.125 261.445 28.125ZM261.445 30.2578C259.781 30.2578 258.586 31.3828 258.586 33.1172C258.586 34.8516 259.781 35.9531 261.445 35.9297C263.062 35.9531 264.258 34.8516 264.281 33.1172C264.258 31.3828 263.062 30.2578 261.445 30.2578ZM293.719 21.3984V42.6094H291.117V31.3359H287.484V29.2031H291.117V21.3984H293.719ZM286.266 23.25V31.0078H279.328V35.4609C282.469 35.4492 285.012 35.3438 287.859 34.8281L288.07 36.9609C284.906 37.5234 282.094 37.6406 278.438 37.6406H276.75V28.8984H283.711V25.3594H276.68V23.25H286.266ZM319.008 21.3984V29.6719H322.148V31.8516H319.008V42.5391H316.406V21.3984H319.008ZM313.406 23.6016C313.406 29.8359 310.828 35.2969 303.773 38.7656L302.297 36.75C307.453 34.1836 310.242 30.5742 310.781 25.7578H303.445V23.6016H313.406ZM340.852 21.3984V42.5859H338.227V21.3984H340.852ZM334.523 23.6484C334.523 29.9531 332.086 35.3203 324.656 38.8359L323.297 36.75C328.84 34.1133 331.418 30.5273 331.875 25.7109H324.375V23.6484H334.523Z" fill="#333333"/>
</svg>
