<svg width="1440" height="450" viewBox="0 0 1440 450" fill="none" xmlns="http://www.w3.org/2000/svg">
<g clip-path="url(#clip0_678_2386)">
<rect width="1440" height="450" fill="#F9F1C6"/>
<g clip-path="url(#clip1_678_2386)">
<path d="M865.107 405.538C805.623 371.373 781.597 383.71 779.74 386.194C777.884 388.678 745.707 448.319 816.297 490.585C884.941 531.694 922.04 475.788 924.593 472.52C926.701 469.824 927.294 441.263 865.107 405.538Z" fill="#D4D2D6"/>
<path d="M783.812 389.406C780.276 395.532 755.717 449.487 820.36 486.809C884.821 524.026 920.587 470.402 919.466 471.022C918.345 471.641 897.986 474.842 897.986 474.842C897.986 474.842 875.024 470.711 873.284 470.209C871.543 469.708 832.005 449.933 832.005 449.933L797.387 422.087C797.387 422.087 786.145 402.915 785.655 401.122C785.164 399.328 784.143 388.834 783.812 389.406Z" fill="#F6F6F6"/>
<path d="M834.902 463.817L833.806 463.184C799.434 443.096 784.399 424.446 778.05 411.199C775.838 406.593 774.616 402.072 774.067 398.946C774.058 398.876 774.621 397.479 775.904 394.161C777.045 391.199 778.513 388.263 778.513 388.263C778.494 388.577 773.606 421.738 836.65 458.314C837.003 458.518 837.361 458.741 837.709 458.926C896.48 491.851 922.63 474.879 922.903 474.744C922.903 474.744 920.712 477.555 919.156 479.433C917.698 481.173 916.243 482.623 916.166 482.643C911.401 483.838 904.402 485.61 895.721 485.177C881.85 484.509 862.303 479.637 834.902 463.817Z" fill="#FF635F"/>
<path d="M785.643 396.698C785.643 396.698 792.986 391.292 816.338 399.221C849.267 410.389 876.356 428.888 890.025 441.943C900.876 452.316 911.294 471.142 911.294 471.142L899.633 474.38L859.312 464.286C859.312 464.286 827.342 447.436 826.149 446.747C824.943 446.051 814.195 436.289 810.116 432.863C806.038 429.436 792.791 416.267 792.791 416.267L785.643 396.698Z" fill="#FEC56C"/>
<path d="M876.549 459.689C876.549 459.689 879.825 461.889 878.379 464.675C876.799 467.692 874.294 467.334 874.294 467.334L868.132 464.929L876.549 459.689ZM881.388 469.335C881.388 469.335 879.537 468.266 880.678 466.684C881.818 465.102 885.692 466.802 888.563 467.453C891.435 468.105 894.531 468.593 895.007 469.793C895.471 470.987 893.607 472.217 893.607 472.217L881.388 469.335ZM824.334 433.521C822.849 432.972 819.698 438.963 824.477 442.161C829.263 445.346 829.893 441.358 832.84 443.482C835.787 445.605 833.695 448.976 835.893 450.343C838.092 451.71 843.922 451.991 843.922 451.991L839.208 443.505C839.208 443.505 837.661 438.309 833.032 437.665C829.995 437.244 828.926 440.248 826.743 438.63C824.132 436.684 827.86 434.81 824.334 433.521ZM789.628 402.311C789.394 403.167 791.297 405.776 796.534 407.76C801.763 409.756 801.659 409.176 804.298 411.074C806.938 412.971 808.968 414.939 810.631 415.461C812.307 415.99 813.111 412.573 813.111 412.573C813.111 412.573 807.028 408.623 805.359 407.578C803.689 406.532 797.087 404.637 795.162 403.526C793.238 402.415 790.211 400.148 789.628 402.311ZM792.214 398.592C792.237 399.986 794.367 400.712 796.518 400.784C798.668 400.857 800.983 400.278 800.875 398.835C800.761 397.372 798.154 396.825 796.472 396.813C794.798 396.788 792.178 396.882 792.214 398.592ZM802.018 400.144C801.932 401.053 802.965 401.795 804.99 401.86C807.003 401.918 807.69 401.373 807.751 400.369C807.811 399.364 806.423 398.872 805.123 398.705C803.815 398.551 802.164 398.767 802.018 400.144ZM810.917 404.925C810.798 403.979 811.454 402.588 813.59 402.068C815.725 401.547 817.548 401.933 819.444 403.093C821.333 404.265 823.12 405.361 822.247 406.254C821.362 407.14 819.11 405.612 818.235 405.188C816.467 404.313 815.705 405.773 815.705 405.773L811.995 406.489L810.917 404.925ZM825.849 407.018C825.067 408.71 827.012 409.589 829.31 410.559C831.615 411.516 833.289 411.541 833.865 410.038C834.44 408.536 832.42 407.45 830.868 406.847C829.312 406.224 826.761 405.044 825.849 407.018ZM837.834 411.291C836.964 412.039 837.115 413.295 838.563 414.359C840 415.415 840.811 414.91 841.265 414.376C841.977 413.537 840.932 412.787 840.352 412.16C839.613 411.36 838.752 410.489 837.834 411.291ZM872.618 439.947C872.565 440.826 875.065 442.318 876.94 442.361C878.808 442.417 883.907 443.006 883.907 443.006L882.633 438.097C882.633 438.097 880.019 437.027 877.191 437.229C874.363 437.431 872.72 438.252 872.618 439.947ZM868.745 428.992C867.026 429.298 867.803 431.89 868.955 433.578C870.108 435.266 870.696 436.272 872.504 436.066C874.312 435.859 872.977 433.334 872.324 431.934C871.671 430.534 870.79 428.629 868.745 428.992ZM860.836 428.095C859.431 427.771 858.665 430.365 859.868 431.936C861.158 433.639 862.747 433.306 863.49 435.197C864.234 437.087 862.298 439.428 862.298 439.428L866.673 440.119C866.673 440.119 868.056 438.06 867.49 435.525C866.743 432.236 865.18 431.398 863.221 430.348C860.908 429.094 861.669 428.283 860.836 428.095ZM816.424 412.797C816.424 412.797 816.782 411.023 818.704 409.859C820.626 408.696 823.075 409.151 825.671 410.504C828.268 411.857 833.254 415.905 834.883 416.261C836.513 416.617 837.428 415.538 838.161 416.546C838.895 417.554 836.437 420.179 834.234 419.41C832.024 418.654 828.399 416.187 826.54 414.822C824.681 413.456 822.376 412.499 821.303 413.487C820.229 414.474 819.867 416.62 819.867 416.62C819.867 416.62 816.432 412.136 816.424 412.797Z" fill="#FCA72E"/>
<path d="M793.223 412.539L794.043 411.258L797.533 411.682L800.523 412.044L806.447 413.792C806.447 413.792 807.87 414.76 808.321 415.946C808.78 417.12 809.094 418.827 809.487 418.145C809.881 417.463 812.727 412.563 813.116 412.592C813.504 412.622 819.07 414.991 819.07 414.991L819.872 416.639L821.921 417.562L824.41 421.435C824.41 421.435 827.688 423.409 827.966 423.715C828.243 424.022 830.393 423.785 829.611 424.86C828.828 425.934 827.283 428.047 827.283 428.047L827.771 431.673C827.771 431.673 832.148 434.639 831.285 435.066C830.441 435.488 829.744 437.538 825.226 434.085C820.726 430.658 823.583 428.184 823.583 428.184C823.583 428.184 822.814 427.772 821.631 427.852C821.46 427.867 821.458 430.74 818.097 431.836C817.178 432.134 823.834 435.034 823.834 435.034C823.834 435.034 823.887 436.657 822.167 436.881C820.446 437.105 818.052 437.932 818.052 437.932C818.052 437.932 805.757 429.697 805.819 429.196C805.88 428.696 806.093 426.838 806.093 426.838C806.093 426.838 805.348 424.865 805.385 423.084C804.354 423.155 802.653 422.952 801.445 422.401C800.256 421.844 793.288 410.822 793.223 412.539Z" fill="#709823"/>
<path d="M792.876 410.552C792.876 410.552 796.13 409.021 798.293 410.984C800.456 412.947 799.304 415.027 798.704 415.898C798.367 416.369 797.341 417.303 797.341 417.303L795.483 415.289C795.483 415.289 796.963 414.048 796.102 413.064C795.241 412.08 794.117 413.071 794.117 413.071L792.876 410.552Z" fill="#A7C32F"/>
<path d="M806.19 414.715C805.892 414.754 804.736 413.437 804.045 414.24C803.184 415.253 804.003 416.31 805.529 417.013C807.037 417.721 807.85 418.028 807.589 418.592C807.329 419.156 806.185 421.305 802.341 419.02C798.489 416.748 799.387 412.914 801.308 411.669C802.809 410.7 805.121 410.688 806.396 411.911C807.652 413.14 806.9 414.638 806.19 414.715ZM809.997 419.933C811.304 419.583 811.113 416.567 812.336 415.405C813.418 414.374 815.774 414.484 816.417 415.846C817.06 417.207 815.226 417.626 814.511 417.993C813.796 418.36 812.793 419.534 814.689 420.076C816.572 420.612 818.283 420.235 819.384 418.89C820.486 417.545 820.598 415.353 819.542 413.752C818.606 412.335 815.252 409.961 811.238 411.654C809.066 412.576 808.359 415.318 808.475 417.479C808.622 419.643 809.21 420.144 809.997 419.933ZM811.228 431.978C812.594 433.043 813.456 433.265 813.456 433.265C813.456 433.265 814.244 432.323 815.964 433.673C816.898 434.391 817.263 435.137 819.034 435.218C820.171 435.274 820.811 434.701 821.608 434.951C822.413 435.188 823.301 435.928 823.805 435.618C824.309 435.308 824.667 433.225 822.295 432.327C820.897 431.796 820.429 432.24 819.217 431.752C817.328 431.002 817.496 430.092 815.21 429.552C812.309 428.867 811.253 430.612 810.688 431C810.135 431.396 811.228 431.978 811.228 431.978Z" fill="#A7C32F"/>
<path d="M836.161 454.914C796.057 431.76 786.043 411.333 783.643 401.146C782.5 396.264 782.339 391.592 783.791 389.443L783.833 389.369C788.924 381.819 820.122 384.34 862.644 408.257C901.198 429.931 918.173 452.056 920.954 464.395C921.597 467.219 921.404 469.381 920.386 470.806C916.991 475.618 893.017 487.189 837.763 455.823C837.22 455.526 836.684 455.217 836.161 454.914ZM788.576 392.546C788.106 393.557 787.198 400.276 793.44 410.813C798.998 420.225 811.619 434.9 840.398 451.174C890.699 479.729 913.46 470.85 915.941 467.818C916.634 464.986 909.711 440.838 860.016 412.893C817.706 389.116 791.299 389.263 788.576 392.546Z" fill="white"/>
<path d="M960.45 399.643C960.331 400.467 956.059 410.764 956.059 410.764L863.976 376.923C863.976 376.923 949.13 423.862 949.088 424.552C949.047 425.243 943.355 434.736 943.355 434.736C943.355 434.736 857.813 381.89 855.484 380.383C852.397 378.389 850.637 376.431 851.912 374.391C853.298 372.187 856.128 373.529 856.128 373.529C856.128 373.529 852.781 372.521 853.564 369.759C854.328 367.001 858.022 367.493 863.662 369.142C869.264 370.802 960.45 399.643 960.45 399.643Z" fill="#AE5731"/>
<path d="M867.546 387.785C867.546 387.785 863.305 391.361 861.583 392.348C859.86 393.334 856.941 395.578 857.454 397.839C857.96 400.113 857.668 405.4 856.932 406.956C856.196 408.512 849.782 415.347 849.782 415.347L845.809 426.222C845.809 426.222 849.005 427.24 849.286 426.752C849.567 426.265 861.7 415.798 861.7 415.798L865.105 410.181C865.105 410.181 863.578 399.41 864.685 398.084C865.786 396.739 870.685 391.319 871.325 390.211C869.353 388.958 867.546 387.785 867.546 387.785Z" fill="#FEC56C"/>
<path d="M830.063 420.672C830.063 420.672 832.154 420.482 833.479 422.124C834.805 423.766 835.698 427.14 835.698 427.14C835.698 427.14 840.719 416.334 843.721 411.978C845.501 409.401 848.477 407.173 849.084 405.023C849.81 402.389 847.144 399.243 849.163 394.481C851.169 389.713 855.804 388.492 858.278 385.162C861.568 380.729 862.534 378.494 863.046 377.409C863.559 376.325 864.893 375.195 866.074 375.877C867.268 376.567 867.176 377.569 866.737 378.696C866.297 379.822 864.178 384.59 860.172 388.773C857.187 391.889 855.052 391.678 853.172 395.806C850.893 400.822 855.096 401.755 852.761 406.756C851.213 410.084 848.738 411.838 846.761 414.756C845.274 416.967 838.254 432.107 837.632 432.819C837.009 433.532 834.342 433.145 833.545 431.938C832.761 430.738 832.477 425.914 831.192 424.652C829.907 423.39 826.746 422.621 826.746 422.621L830.063 420.672Z" fill="#FCA72E"/>
<path d="M857.006 438.581C857.006 438.581 857.539 435.886 859.577 434.578C861.615 433.27 864.121 433.093 865.027 434.476C865.933 435.86 865.379 437.213 864.601 437.576C863.778 437.961 863.187 438.984 863.187 438.984L857.006 438.581Z" fill="#A7C32F"/>
<path d="M805.798 404.567C805.354 405.448 807.375 407.995 809.95 409.384C811.055 409.974 815.248 410.024 815.711 409.447C816.162 408.863 817.645 406.52 817.645 406.52L808.059 402.366C808.059 402.366 806.528 403.105 805.798 404.567ZM798.391 403.896C798.391 403.896 794.694 405.237 794.504 406.101C794.32 406.953 794.375 408.771 795.036 409.088C795.698 409.405 801.467 410.381 802.085 409.845C802.71 409.296 803.23 407.664 802.837 407.08C802.451 406.483 798.391 403.896 798.391 403.896Z" fill="#709823"/>
<path d="M799.199 402.722C798.164 402.433 793.533 405.897 794.633 406.354C795.795 406.846 797.207 406.509 799.1 406.887C800.999 407.253 802.701 408.187 803.082 407.611C803.463 407.035 801.094 403.264 799.199 402.722ZM807.676 402.972C807.709 403.787 809.794 406.729 811.188 407.241C812.588 407.74 815.825 407.872 816.689 407.527C817.554 407.182 818.265 406.147 817.266 405.262C816.267 404.376 813.06 405.123 812.666 404.23C812.272 403.337 813.321 402.562 812.236 401.74C811.156 400.938 807.633 401.811 807.676 402.972ZM806.851 423.021C806.884 423.722 809.384 424.061 811.515 425.292C813.647 426.522 815.083 427.465 815.624 426.754C816.152 426.036 814.736 422.442 812.872 421.788C811.009 421.135 806.787 421.36 806.851 423.021ZM816.875 421.436C816.512 422.347 817.967 424.242 818.255 425.318C818.543 426.394 816.491 430.145 817.413 430.32C818.335 430.495 820.572 430.699 821.591 429.047C822.61 427.394 821.393 424.58 821.076 423.553C820.76 422.526 820.273 420.979 819.773 420.804C819.274 420.629 817.156 420.754 816.875 421.436ZM829.631 426.82C827.969 426.38 828.056 426.089 827.008 426.751C825.961 427.412 824.406 428.756 824.596 429.466C824.787 430.177 826.007 432.197 827.109 433.158C828.847 434.648 829.979 434.993 830.976 435.179C831.474 435.272 834.036 431.734 833.833 430.821C833.629 429.908 831.206 427.242 829.631 426.82Z" fill="#A7C32F"/>
<path d="M828.696 429.593C828.063 429.763 828.184 430.677 828.465 431.034C828.753 431.379 829.808 431.745 830.252 431.709C830.702 431.66 831.039 431.075 830.569 430.625C830.117 430.17 829.196 429.459 828.696 429.593Z" fill="#FEC56C"/>
<path d="M821.481 417.34C821.189 417.902 822.868 422.785 824.817 423.797C826.766 424.808 829.376 424.984 829.656 424.724C829.924 424.456 831.07 422.584 831.042 421.902C831.013 421.22 829.837 417.829 827.178 416.164C824.499 414.504 821.924 416.46 821.481 417.34Z" fill="#A7C32F"/>
<path d="M826.121 418.753C825.717 418.779 825.21 420.078 825.491 420.549C825.759 421.012 826.843 421.525 827.307 421.256C827.765 420.969 826.748 418.709 826.121 418.753Z" fill="#FEC56C"/>
<path d="M879.704 433.045C879.132 434.176 880.507 437.926 879.067 442.193C877.626 446.46 875.615 451.518 875.615 451.518L877.29 462.341C877.29 462.341 878.92 465.312 888.469 466.717C898.748 468.235 902.314 470.862 906.808 470.728C911.294 470.607 916.404 468.507 917.372 467.815C918.339 467.124 918.551 458.656 917.043 454.294C916.221 451.92 913.213 448.608 913.705 443.453C914.198 438.297 914.556 436.637 913.497 435.911C912.438 435.186 906.101 434.012 902.705 434.212C899.317 434.399 895.982 436.435 890.041 435.165C884.084 433.869 880.455 431.547 879.704 433.045Z" fill="#363B34"/>
<path d="M876.598 370.7C874.865 370.382 873.519 372.771 873.519 372.771L870.729 380.724L875.107 383.155C875.107 383.155 877.116 378.014 877.787 377.021C878.458 376.028 879.632 371.267 876.598 370.7Z" fill="#FEC56C"/>
<path d="M885.973 374.684C884.157 374.285 883.742 377.423 882.6 380.385C879.593 388.181 876.135 393.637 874.067 396.064C871.988 398.485 869.341 400.594 868.317 401.805C867.274 403.022 866.258 405.033 866.258 405.033C866.258 405.033 865.639 401.607 866.883 399.451C868.627 396.431 871.482 395.059 876.067 387.622C878.559 383.589 878.882 382.297 880.416 378.458C882.175 374.034 880.962 372.928 879.438 372.616C877.913 372.304 877.315 375.758 876.727 377.676C875.815 380.69 874.664 383.191 873.384 385.407C872.104 387.624 869.73 391.173 867.502 393.232C864.019 396.482 862.289 397.903 862.026 401.339C861.851 403.723 863.702 408.364 861.204 412.297C859.924 414.318 858.201 415.726 856.51 416.828C854.956 417.831 852.529 419.223 850.39 421.69C849.699 422.493 847.756 425.577 847.756 425.577C847.756 425.577 849.43 419.528 853.054 415.613C856.672 411.71 858.119 410.272 858.907 407.333C859.694 404.394 857.411 400.867 859.31 397.157C861.458 392.958 864.424 392.884 867.213 389.346C870.356 385.364 871.954 381.107 872.92 378.027C873.527 376.104 874.555 371.453 874.555 371.453C874.555 371.453 873.203 369.633 871.594 370.929C870.568 371.75 869.879 374.94 869.301 376.814C868.816 378.386 866.8 383.002 865.427 385.409C863.955 387.985 862.11 389.128 860.182 390.499C858.253 391.871 855.968 393.636 855.183 397.779C854.542 401.224 855.912 405.263 854.774 407.431C853.636 409.6 850.755 412.255 848.625 415.101C845.708 418.971 844.24 422.751 842.546 426.417C841.394 428.918 838.375 434.71 838.375 434.71C838.375 434.71 842.434 437.102 842.467 437.072C842.686 436.89 845.561 430.983 845.561 430.983C845.561 430.983 844.399 432.91 844.632 435.545C844.756 436.933 845.927 439.573 845.927 439.573L850.266 438.864C850.266 438.864 848.866 436.789 849.62 432.417C850.066 429.817 851.687 426.531 853.924 424.429C856.161 422.326 857.084 421.853 857.913 421.26C858.986 420.499 859.985 419.809 859.985 419.809C859.985 419.809 858.675 421.261 857.032 422.927C855.395 424.58 853.552 427.267 852.797 428.828C851.832 430.837 850.883 433.942 851.46 436.094C852.036 438.245 852.526 439.535 852.526 439.535L856.793 438.978C856.793 438.978 854.571 436.218 856.406 431.464C857.756 427.973 863.649 421.843 865.348 419.885C867.047 417.927 868.546 415.415 869.045 412.358C869.331 410.624 869.19 407.099 871.135 404.715C873.08 402.331 876.759 400.655 880.571 394.25C884.383 387.844 886.211 383.103 887.162 379.008C887.598 377.1 887.888 375.108 885.973 374.684Z" fill="#FCA72E"/>
<path d="M838.381 450.675C838.381 450.675 835.767 446.568 838.231 442.891C840.694 439.215 847.54 434.529 863.185 438.284C878.607 441.976 881.857 448.496 882.399 451.862C882.923 455.087 879.456 462.049 871.584 464.519C863.724 466.995 838.381 450.675 838.381 450.675Z" fill="white"/>
<path d="M848.726 446.678C848.032 450.58 853.505 455.332 861.338 456.785C868.285 458.084 872.782 455.581 873.795 451.295C874.796 447.002 868.829 441.868 861.955 440.838C857.346 440.158 849.789 440.731 848.726 446.678Z" fill="#FE8D06"/>
<path d="M784.002 426.035C781.739 426.466 779.367 433.443 783.877 443.548C788.386 453.653 794.054 456.829 796.77 455.36C798.821 454.255 795.139 446.738 791.937 439.628C788.747 432.525 786.913 425.491 784.002 426.035Z" fill="white"/>
<path d="M834.669 432.749C834.349 433.977 835.318 437.053 836.802 437.715C838.28 438.39 840.714 436.791 840.905 436.235C841.108 435.687 836.857 432.193 836.561 431.974C836.266 431.755 834.823 432.172 834.669 432.749Z" fill="#709823"/>
<path d="M841.999 435.211C842.01 435.867 839.795 437.511 838.833 436.955C837.871 436.4 836.149 432.434 836.568 431.962C836.98 431.501 841.972 434.189 841.999 435.211Z" fill="#A7C32F"/>
</g>
<g clip-path="url(#clip2_678_2386)">
<path d="M102.718 261.862C102.718 261.862 104.957 273.056 112.127 281.04C118.119 287.731 130.013 295.086 148.445 297.288C166.877 299.49 185.766 295.751 212.354 286.686C238.948 277.637 263.823 261.604 272.68 245.435C281.549 229.242 282.605 217.958 278.429 207.642C274.254 197.325 267.254 195.379 267.254 195.379L102.718 261.862Z" fill="#FCB745"/>
<path d="M106.388 248.46L101.491 258.963C101.491 258.963 103.146 270.024 118.819 276.94C130.683 282.164 151.579 291.137 203.423 272.708C251.951 255.466 263.292 239.291 269.895 228.378C276.515 217.46 275.276 203.129 273.014 199.803C270.768 196.471 267.13 195.405 267.13 195.405L106.388 248.46Z" fill="#E78B20"/>
<path d="M113.681 258.254C113.681 258.254 112.849 262.745 114.413 264.834C115.64 266.472 119.472 273.586 144.737 275.175C158.107 276.026 179.227 273.005 204.436 262.988C234.341 251.109 256.342 236.218 264.053 220.944C271.959 205.312 267.223 199.444 267.223 199.444L113.681 258.254Z" fill="#FFD290"/>
<path d="M98.1095 234.857C98.1095 234.857 93.5622 244.849 93.5556 248.561C93.549 252.063 95.3357 256.499 98.6494 259.404C103.104 263.29 106.632 262.58 111.672 263.556C117.118 264.595 127.222 270.345 145.964 267.673C164.707 265 188.222 258.316 200.497 253.848C212.773 249.38 229.016 243.257 242.361 232.587C255.707 221.917 269.446 205.5 270.212 195.048C270.978 184.597 265.193 180.679 265.193 180.679L254.263 178.022L98.1095 234.857Z" fill="#6D544D"/>
<path d="M90.4896 227.056C90.4896 227.056 84.7916 228.843 86.5321 237.828C87.8021 244.364 93.6794 246.642 93.6794 246.642C93.6794 246.642 92.5507 250.896 96.8533 254.207C100.889 257.308 103.973 257.218 109.978 256.065C114.304 255.236 116.006 253.24 122.394 254.242C130.403 255.495 135.654 261.042 145.554 259.714C155.454 258.386 165.056 252.826 164.876 251.228C164.696 249.63 149.511 248.942 120.813 244.224C111.135 242.641 101.542 239.191 98.4017 236.816C95.2616 234.44 90.4896 227.056 90.4896 227.056ZM222.055 229.805C222.921 232.186 230.407 228.218 233.34 224.875C236.273 221.532 240.264 214.267 244.777 210.119C249.297 205.988 252.038 207.266 258.404 200.799C264.77 194.333 265.857 184.185 265.857 184.185C265.857 184.185 267.921 178.194 267.045 174.842C265.717 169.722 264.355 167.503 260.477 167.671C256.6 167.84 253.166 181.997 252.536 183.679C251.906 185.362 239.982 203.144 235.232 210.056C230.481 216.967 221.588 228.522 222.055 229.805Z" fill="#9B7169"/>
<path d="M95.3811 218.219C95.3811 218.219 86.6119 222.654 86.7299 226.971C86.8478 231.288 92.9483 235.492 106.175 238.786C117.02 241.474 152.005 244.707 166.514 247.744C183.14 251.235 198.905 258.825 200.869 258.282C203.317 257.602 213.456 234.024 230.718 210.264C247.119 187.658 260.708 178.601 262.087 165.842C262.827 158.995 254.714 158.142 254.714 158.142L154.166 156.763L95.3811 218.219Z" fill="#FFE869"/>
<path d="M198.365 247.988C200.99 246.689 210.264 227.671 223.267 210.911C236.269 194.151 257.05 173.699 258.384 165.966C259.719 158.233 249.38 157.197 249.38 157.197L140.466 177.334L88.9594 222.851C88.9594 222.851 86.0663 225.147 89.2631 227.101C92.4599 229.054 97.6037 232.364 107.036 234.323C118.499 236.71 146.006 237.578 164.202 240.287C182.431 242.984 195.201 249.541 198.365 247.988Z" fill="#FFBE01"/>
<path d="M98.2287 222.576L104.53 229.958C104.53 229.958 135.919 244.749 181.925 229.037C227.712 213.405 245.319 182.501 245.319 182.501L245.817 165.798L98.2287 222.576Z" fill="#F4482B"/>
<path d="M163.241 214.899L161.74 221.966C161.74 221.966 171.101 223.779 173.601 223.768C177.188 223.744 180.164 222.202 184.313 219.047C188.467 215.909 205.07 201.109 205.07 201.109C205.07 201.109 221.214 195.5 231.362 192.017C240.356 188.935 248.137 182.47 250.848 175.364C253.558 168.258 256.603 154.033 256.603 154.033C256.603 154.033 260.06 151.761 261.525 147.958C262.99 144.155 262.26 141.571 262.26 141.571C262.26 141.571 259.764 136.973 256.624 136.7C253.462 136.417 130.459 172.85 130.459 172.85L83.5609 193.992L81.5295 213.681L116.641 226.774L155.2 215.187L163.241 214.899Z" fill="#A6B732"/>
<path d="M78.6802 198.025C75.5131 197.781 72.7148 198.972 72.7575 203.029C72.8001 207.087 73.7662 208.533 73.7662 208.533C73.7662 208.533 70.351 210.655 71.5852 215.465C73.0729 221.233 79.9044 220.984 79.9044 220.984C79.9044 220.984 80.9781 223.041 84.1793 224.324C87.8288 225.787 90.4889 224.532 90.4889 224.532C90.4889 224.532 100.349 229.032 106.257 230.132C112.164 231.233 119.897 230.675 126.854 227.932C133.81 225.19 134.967 221.117 140.835 221.008C146.704 220.899 163.182 223.143 168.797 221.233C177.679 218.211 191.764 197.595 196.154 196.208C200.544 194.82 221.26 190.741 231.695 186.943C242.13 183.145 244.8 178.712 246.018 174.808C247.236 170.904 248.389 161.726 247.055 162.001C245.721 162.276 239.936 172.126 233.813 173.743C227.673 175.366 221.231 173.848 213.852 176.534C206.473 179.219 172.21 196.987 170.257 198.922C168.303 200.857 161.054 212.253 158.95 212.617C156.845 212.982 147.911 209.713 145.12 209.295C142.329 208.876 117.5 216.996 114.204 218.922C111.837 220.299 108.485 222.227 108.485 222.227C108.485 222.227 106.812 216.526 102.575 214.396C98.3393 212.267 86.2308 210.364 86.2308 210.364C86.2308 210.364 83.2828 198.376 78.6802 198.025ZM241.744 149.669C241.744 149.669 252.72 145.675 255.708 144.376C258.697 143.078 262.232 141.6 262.232 141.6C262.232 141.6 259.372 137 256.82 134.927C251.599 130.67 243.251 132.007 243.251 132.007L241.744 149.669Z" fill="#C2DD1F"/>
<path d="M73.7429 192.287L74.4738 198.026C74.4738 198.026 101.771 221.381 176.775 195.344C220.68 180.11 240.947 157.723 248.078 142.851C252.348 133.935 250.269 127.54 250.269 127.54L73.7429 192.287Z" fill="#DE8010"/>
<path d="M64.6386 179.042C69.0397 194.076 74.5368 198.041 74.5368 198.041C74.5368 198.041 107.36 211.412 170.784 189.494C235.784 167.021 248.99 137.949 250.397 130.362C251.3 125.54 250.341 117.073 244.725 106.267C235.438 88.4222 200.916 60.7163 132.714 85.8457C64.5126 110.975 58.2612 157.212 64.6386 179.042Z" fill="url(#paint0_radial_678_2386)"/>
<path d="M114.195 113.295C115.763 115.975 106.29 130.246 101.079 121.76C96.1826 113.77 112.74 110.823 114.195 113.295ZM125.366 129.594C126.687 131.121 140.887 128.84 136.746 121.876C132.427 114.633 122.654 126.451 125.366 129.594ZM129.527 104.827C130.793 107.254 147.341 104.596 144.402 97.5202C140.781 88.78 128.063 102.014 129.527 104.827ZM113.638 140.556C113.931 141.099 111.22 145.47 107.76 148.049C104.724 150.32 101.069 151.154 99.1384 147.057C97.2796 143.106 99.6431 140.563 103.25 139.651C107.394 138.583 113.069 139.52 113.638 140.556ZM150.115 140.798C148.496 138.347 132.6 139.907 136.671 148.044C140.746 156.14 151.846 143.4 150.115 140.798ZM156.688 116.511C155.677 115.942 152.406 117.305 148.741 119.843C146.103 121.683 145.14 125.763 148.303 128.149C151.994 130.936 155.403 127.955 156.811 123.943C157.962 120.694 157.819 117.151 156.688 116.511ZM165.071 91.1063C164.437 90.7825 160.988 91.6555 158.749 93.962C156.493 96.2747 155.272 100.276 158.874 102.292C162.516 104.313 165.711 101.218 166.381 97.4369C166.901 94.3987 166.034 91.5972 165.071 91.1063ZM184.86 113.007C183.419 110.415 169.412 109.968 172.225 117.434C175.106 125.086 186.152 115.348 184.86 113.007ZM196.821 93.2799C195.648 91.3168 179.476 95.2716 184.984 102.158C190.717 109.346 198.245 95.6682 196.821 93.2799ZM185.465 128.697C184.706 126.296 170.897 125.184 172.6 132.595C174.303 140.007 186.448 131.819 185.465 128.697Z" fill="#FDEAC8"/>
</g>
<path d="M700.398 141.273V148.586H675.367V169.539H666.508V148.586H641.828V141.273H700.398ZM670.938 107.594C684.648 107.594 694.281 113.289 694.281 122.148C694.281 130.867 684.648 136.422 670.938 136.422C657.227 136.422 647.664 130.867 647.734 122.148C647.664 113.289 657.227 107.594 670.938 107.594ZM670.938 114.766C662.359 114.766 656.875 117.438 656.945 122.148C656.875 126.719 662.359 129.32 670.938 129.32C679.586 129.32 685 126.719 685 122.148C685 117.438 679.586 114.766 670.938 114.766ZM757.773 105.484V169.609H748.844V105.484H757.773ZM737.945 110.828V135.508H716.852V147.25C726.59 147.215 734.887 146.652 744.273 145.141L745.047 152.383C734.5 154.211 725.008 154.633 713.336 154.633H707.57V128.406H728.805V118.07H707.5V110.828H737.945ZM807.766 122.922C807.766 133.258 813.039 144.297 823.797 148.797L818.945 155.828C811.387 152.629 806.184 146.266 803.336 138.461C800.418 146.934 795.109 153.965 787.586 157.445L782.453 150.344C793.07 145.633 798.555 133.75 798.555 122.922V118.984H784.984V111.672H821.125V118.984H807.766V122.922ZM836.523 105.484V169.469H827.453V105.484H836.523ZM899.102 146.195V169.469H890.172V153.227H855.156V146.195H899.102ZM899.102 105.484V143.312H890.172V135.227H875.828C872.77 138.531 868.234 140.5 863.031 140.5C853.328 140.5 845.945 133.82 846.016 124.539C845.945 115.469 853.328 108.859 863.031 108.93C868.234 108.895 872.77 110.828 875.828 114.062H890.172V105.484H899.102ZM863.031 116.453C858.039 116.453 854.453 119.547 854.523 124.539C854.453 129.812 858.039 132.836 863.031 132.836C867.742 132.836 871.398 129.812 871.398 124.539C871.398 119.547 867.742 116.453 863.031 116.453ZM879.555 128.055H890.172V121.305H879.625C879.801 122.324 879.906 123.414 879.906 124.539C879.906 125.77 879.766 126.93 879.555 128.055ZM1021.59 208.922V215.953H976.867V193.734H985.797V208.922H1021.59ZM1028.12 222.844V229.875H969.555V222.844H1028.12ZM1022.01 246.891V254.062H976.305V235.078H985.305V246.891H1022.01ZM1043.03 232.969C1043.1 224.25 1045.42 221.508 1049.64 218.906C1052.66 216.938 1054.98 214.758 1054.98 211.523C1054.98 208.008 1052.24 205.688 1048.87 205.688C1045.56 205.688 1042.54 207.867 1042.4 212.016H1032.41C1032.62 202.102 1039.94 197.391 1048.94 197.391C1058.71 197.391 1065.67 202.523 1065.67 211.172C1065.67 216.938 1062.72 220.664 1058.08 223.406C1054.14 225.797 1052.38 228.047 1052.31 232.969V233.742H1043.03V232.969ZM1047.88 249.633C1044.58 249.633 1041.91 246.961 1041.98 243.727C1041.91 240.492 1044.58 237.891 1047.88 237.891C1050.98 237.891 1053.72 240.492 1053.72 243.727C1053.72 246.961 1050.98 249.633 1047.88 249.633ZM652.164 283.18V297.594H660.883V283.18H669.18V326.281H643.727V283.18H652.164ZM652.164 319.109H660.883V304.625H652.164V319.109ZM697.375 277.484V341.469H688.797V309.195H683.031V338.516H674.523V278.398H683.031V301.883H688.797V277.484H697.375ZM763.68 301.742V309.055H754.609V341.328H745.609V277.484H754.609V301.742H763.68ZM715.094 283.602V318.266C723.285 318.16 732.074 317.387 741.32 315.523L742.234 322.977C731.547 325.156 721.141 325.719 711.719 325.719H706.164V283.602H715.094ZM817.117 277.484V292.25H825.766V299.633H817.117V314.891H808.117V277.484H817.117ZM796.023 315.664C809.172 315.594 817.75 320.656 817.75 328.531C817.75 336.688 809.172 341.539 796.023 341.539C782.734 341.539 774.086 336.688 774.086 328.531C774.086 320.656 782.734 315.594 796.023 315.664ZM796.023 322.836C787.727 322.836 782.875 324.734 782.945 328.531C782.875 332.398 787.727 334.438 796.023 334.438C804.039 334.438 808.891 332.398 808.891 328.531C808.891 324.734 804.039 322.836 796.023 322.836ZM777.953 281.07V303.57C785.688 303.465 794.02 302.727 802.914 300.969L803.969 308.211C793.422 310.32 783.508 310.953 774.438 310.953H768.953V281.07H777.953ZM884.055 277.484V341.469H875.477V277.484H884.055ZM870.695 278.398V338.516H862.258V308.281H857.125C856.281 320.867 850.938 328.461 843.062 328.461C834.625 328.461 829.141 319.602 829.141 305.188C829.141 290.844 834.625 282.055 843.062 282.055C850.762 282.055 856.035 289.227 857.055 301.18H862.258V278.398H870.695ZM843.062 290.492C839.477 290.492 837.367 295.414 837.438 305.188C837.367 315.031 839.477 319.883 843.062 319.812C846.719 319.883 848.898 315.031 848.898 305.188C848.898 295.414 846.719 290.492 843.062 290.492ZM914.992 291.969C914.992 303.992 919.844 315.664 930.531 320.305L925.047 327.477C917.945 323.996 913.199 317.633 910.562 309.758C907.75 318.125 902.828 324.98 895.516 328.602L889.891 321.289C900.859 316.367 905.852 303.992 905.922 291.969V282.406H914.992V291.969ZM944.805 277.484V341.609H935.945V304.836H923.359V297.594H935.945V277.484H944.805ZM1020.81 277.555V295.836H1028.97V303.219H1020.81V321.008H1011.81V277.555H1020.81ZM968.922 312.781C973.598 312.781 978.941 312.781 984.461 312.641V309.055C977.5 308.07 973.141 304.695 973.211 299.773C973.141 293.867 979.398 290.211 988.891 290.211C998.312 290.211 1004.5 293.867 1004.57 299.773C1004.5 304.695 1000.25 308.035 993.391 308.984V312.289C998.664 312.078 1003.9 311.656 1008.86 311.023L1009.49 317.211C995.992 319.602 981.156 319.742 969.836 319.742L968.922 312.781ZM1020.81 323.609V341.469H1011.81V330.5H977.078V323.609H1020.81ZM1007.24 282.195V288.734H970.609V282.195H984.461V276.992H993.391V282.195H1007.24ZM988.891 296.188C984.32 296.188 981.719 297.312 981.789 299.773C981.719 302.094 984.32 303.43 988.891 303.43C993.391 303.43 995.922 302.094 995.992 299.773C995.922 297.312 993.391 296.188 988.891 296.188ZM1085.43 277.555V323.539H1076.43V277.555H1085.43ZM1087.12 333.172V340.344H1042.54V318.898H1051.61V333.172H1087.12ZM1050.34 281.633C1060.19 281.633 1067.85 288.383 1067.85 297.734C1067.85 307.297 1060.19 313.977 1050.34 313.977C1040.5 313.977 1032.84 307.297 1032.84 297.734C1032.84 288.383 1040.5 281.633 1050.34 281.633ZM1050.34 289.438C1045.35 289.367 1041.55 292.531 1041.62 297.734C1041.55 303.078 1045.35 306.172 1050.34 306.172C1055.2 306.172 1058.99 303.078 1058.99 297.734C1058.99 292.531 1055.2 289.367 1050.34 289.438ZM1124.95 287.258V294.359H1094.01V287.258H1105.12V279.242H1113.98V287.258H1124.95ZM1109.62 297.242C1117.77 297.242 1123.61 303.57 1123.68 312.43C1123.61 321.359 1117.77 327.688 1109.62 327.688C1101.46 327.688 1095.48 321.359 1095.48 312.43C1095.48 303.57 1101.46 297.242 1109.62 297.242ZM1109.62 304.695C1105.89 304.695 1103.36 307.578 1103.36 312.43C1103.36 317.281 1105.89 320.094 1109.62 320.094C1113.2 320.094 1115.73 317.281 1115.8 312.43C1115.73 307.578 1113.2 304.695 1109.62 304.695ZM1149.41 277.484V341.469H1140.91V310.672H1135.7V338.727H1127.34V278.75H1135.7V303.5H1140.91V277.484H1149.41ZM1168.26 282.547V290.562H1182.95V282.547H1191.95V312.008H1180.21V321.711C1185.17 321.465 1190.12 321.078 1194.77 320.445L1195.4 326.984C1182.04 329.375 1167.62 329.445 1156.73 329.445L1155.53 322.133C1160.24 322.098 1165.62 322.098 1171.28 321.992V312.008H1159.47V282.547H1168.26ZM1168.26 304.977H1182.95V297.383H1168.26V304.977ZM1207.14 277.484V303.078H1215.86V310.531H1207.14V341.469H1198.14V277.484H1207.14ZM1233.09 284.094L1232.17 319.742H1223.17L1222.26 284.094H1233.09ZM1227.74 335.633C1224.44 335.633 1221.77 332.961 1221.84 329.727C1221.77 326.492 1224.44 323.891 1227.74 323.891C1230.84 323.891 1233.58 326.492 1233.58 329.727C1233.58 332.961 1230.84 335.633 1227.74 335.633Z" fill="#333333"/>
<path d="M674.242 195.914V225.445H643.797V195.914H674.242ZM652.656 203.016V218.344H665.383V203.016H652.656ZM692.664 191.484V207.445H701.312V214.898H692.664V233.742H683.664V191.484H692.664ZM676.562 232.336C676.562 239.438 683.312 246.398 696.953 248.156L693.438 255.188C683.418 253.641 676.105 249.316 672.203 243.305C668.301 249.316 660.988 253.641 650.898 255.188L647.453 248.156C660.953 246.398 667.703 239.438 667.703 232.336V230.719H676.562V232.336ZM741.953 195V202.172H729.156C729.578 208.922 734.395 215.672 744.414 218.414L739.914 225.375C732.602 223.301 727.469 218.906 724.586 213.281C721.668 219.363 716.43 224.18 708.836 226.5L704.336 219.469C714.531 216.516 719.488 209.414 719.945 202.172H706.797V195H741.953ZM757.703 191.484V226.219H748.703V191.484H757.703ZM723.742 228.891V234.867H748.773V228.891H757.703V254.766H714.883V228.891H723.742ZM723.742 247.594H748.773V241.828H723.742V247.594ZM808.609 226.078V235.711C813.848 235.395 819.156 234.902 824.148 234.164L824.852 240.703C810.648 243.445 795.461 243.586 784.281 243.586L783.227 236.344C788.043 236.309 793.703 236.273 799.68 236.062V226.078H808.609ZM821.828 199.008V206.25H808.75C809.348 212.438 814.164 218.238 823.797 220.594L819.719 227.555C812.23 225.656 807.062 221.508 804.18 216.164C801.332 221.754 796.234 226.113 788.711 228.047L784.492 221.297C794.16 218.73 798.836 212.719 799.469 206.25H786.531V199.008H799.68V192.047H808.609V199.008H821.828ZM836.734 191.484V255.609H827.805V191.484H836.734ZM895.938 191.484V206.531H904.586V213.844H895.938V228.609H886.938V191.484H895.938ZM878.078 195.703C878.148 212.789 867.391 224.742 848.336 230.016L844.75 222.773C858.848 219.012 866.934 211.77 868.305 202.875H847.773V195.703H878.078ZM875.055 229.383C888.062 229.383 896.641 234.445 896.641 242.461C896.641 250.547 888.062 255.539 875.055 255.539C862.047 255.539 853.328 250.547 853.398 242.461C853.328 234.445 862.047 229.383 875.055 229.383ZM875.055 236.344C866.969 236.344 862.188 238.523 862.258 242.461C862.188 246.328 866.969 248.578 875.055 248.508C883 248.578 887.781 246.328 887.781 242.461C887.781 238.523 883 236.344 875.055 236.344ZM931.023 208.922C930.953 218.695 936.156 229.945 946.703 234.797L941.711 241.828C934.574 238.559 929.477 232.02 926.664 224.32C923.781 232.793 918.543 239.965 911.125 243.445L905.922 236.344C916.609 231.352 921.953 219.469 922.023 208.922V204.984H908.453V197.672H943.891V204.984H931.023V208.922ZM957.883 191.484V215.883H967.305V223.406H957.883V255.469H948.883V191.484H957.883Z" fill="#DDB900"/>
<ellipse cx="541" cy="440.5" rx="47" ry="38.5" fill="#DDB900"/>
<ellipse cx="121" cy="452.5" rx="47" ry="38.5" fill="#DDB900"/>
<ellipse cx="330" cy="399" rx="217" ry="163" fill="#FFD700"/>
<path d="M210 328C204.514 324.733 199.714 321.972 198 321" stroke="#333333" stroke-width="5"/>
<path d="M203.742 337.531C198.716 335.16 194.325 333.168 192.759 332.469" stroke="#333333" stroke-width="5"/>
<ellipse cx="240.5" cy="354" rx="39.5" ry="45" fill="#F7F7F7"/>
<path d="M266.033 353.5C266.033 369.24 254.833 382 241.017 382C227.2 382 216 369.24 216 353.5C216 337.76 227.2 340 241.017 340C254.833 340 266.033 337.76 266.033 353.5Z" fill="#333333"/>
<path d="M448 328C453.486 324.733 458.286 321.972 460 321" stroke="#333333" stroke-width="5"/>
<path d="M454.258 337.531C459.284 335.16 463.675 333.168 465.241 332.469" stroke="#333333" stroke-width="5"/>
<ellipse cx="39.5" cy="45" rx="39.5" ry="45" transform="matrix(-1 0 0 1 457 309)" fill="#F7F7F7"/>
<path d="M391.967 353.5C391.967 369.24 403.167 382 416.983 382C430.8 382 442 369.24 442 353.5C442 337.76 430.8 340 416.983 340C403.167 340 391.967 337.76 391.967 353.5Z" fill="#333333"/>
<path d="M356.5 206.5C357 212.167 353.1 227.5 333.5 243.5C361.5 249.167 416.2 259 411 253C405.8 247 408.833 227.5 411 218.5L437 224.5L442 206.5L338.5 182L333.5 201L356.5 206.5Z" fill="#FFD700"/>
<g clip-path="url(#clip3_678_2386)">
<path d="M393.275 196.34C383.658 169.723 362.853 152.128 332 153.128C301.397 154.123 281.863 172.929 273.866 199.717C256.238 200.865 242.175 203.187 231.074 208.88C219.749 214.704 214.13 218.571 210.769 230.35C204.371 252.749 242.38 299.302 320.416 300.505C400.812 301.754 450.685 258.457 452.416 224.295C453.559 201.834 429.79 196.666 393.275 196.34Z" fill="#FADA80"/>
<path d="M386.412 283.533C383.099 283.275 384.594 280.864 385.894 280.276C390.754 278.093 391.231 277.24 395.214 274.179C396.858 272.906 398.962 274.509 397.909 277.126C396.878 279.661 392.308 283.986 386.412 283.533ZM383.148 269.76C380.697 269.074 382.261 267.663 384.167 266.724C387.709 264.979 387.994 263.913 391.245 260.905C392.57 259.678 394.946 261.193 394.105 264.057C393.081 267.443 387.942 271.103 383.148 269.76Z" fill="#FADA80"/>
<path d="M359.791 175.465C356.114 178.096 353.24 177.238 351.783 176.394C350.335 175.567 351.189 174.566 352.388 174.081C356.865 172.236 358.347 170.202 359.673 169.46C360.514 168.997 361.543 169.858 361.995 170.682C362.708 171.957 362.67 173.411 359.791 175.465ZM370.308 187.36C367.703 189.049 365.138 189.006 363.288 188.042C361.217 186.974 362.033 185.787 363.211 185.268C366.64 183.728 368.121 182.572 371.364 179.43C372.71 178.121 373.814 180.233 373.939 181.569C374.056 182.772 373.887 185.04 370.308 187.36ZM373.952 202.993C371.158 204.352 368.233 204.286 366.489 203.145C365.108 202.233 365.656 201.062 367.739 200.391C371.306 199.209 373.438 197.701 376.823 194.684C378.031 193.617 379.178 195.403 378.83 197.521C378.5 199.628 377.601 201.232 373.952 202.993Z" fill="#FADA80"/>
<path d="M395.127 201.667C395.127 201.667 395.646 207.326 381.205 214.994C374.31 218.651 355.824 224.913 332.352 224.978C308.897 225.033 292.959 222.988 281.245 215.779C273.45 210.996 272.261 205.817 272.261 205.817C272.261 205.817 268.411 213.189 267.95 216.711C266.991 224.009 272.492 232.818 281.193 238.488C293.483 246.495 309.68 249.869 333.152 249.804C356.624 249.739 367.426 244.727 378.223 240.11C387.763 236.033 398.121 226.613 398.207 216.402C398.239 211.418 395.127 201.667 395.127 201.667ZM390.435 243.821C404.653 269.006 425.626 292.093 433.628 299.112C434.621 299.994 436.158 299.175 436.043 297.856L436.015 284.247C435.993 284.036 436.017 283.823 436.086 283.623C436.155 283.422 436.267 283.239 436.414 283.086C436.561 282.933 436.739 282.814 436.937 282.737C437.134 282.66 437.346 282.627 437.558 282.64L452.618 285.285C453.941 285.375 454.678 283.772 453.76 282.824L407.912 230.012C431.917 244.189 459.95 250.544 468.114 250.565C468.432 250.566 468.744 250.481 469.017 250.319C469.291 250.157 469.515 249.924 469.666 249.645C469.818 249.365 469.891 249.05 469.877 248.733C469.864 248.415 469.765 248.108 469.59 247.842L461.957 238.901C461.425 238.099 461.639 237.029 462.43 236.48L471.081 230.584C472.372 229.7 471.967 227.718 470.442 227.397L402.117 213.774L390.435 243.821Z" fill="#ABD551"/>
<path d="M359.05 222.22C350.586 223.956 341.976 224.875 333.337 224.964C333.563 241.715 342.71 249.159 343.12 249.43C351.711 248.789 358.321 247.397 363.924 245.663C362.623 239.209 360.21 227.67 359.05 222.22ZM393.062 248.332C393.062 248.332 399.768 259.425 403.412 264.018C403.412 264.018 412.961 245.157 407.912 230.013C407.912 230.013 424.838 231.049 437.26 220.644L420.929 217.278L407.913 218.373L398.745 226.414L393.062 248.332Z" fill="#6F8441"/>
<path d="M368.076 208.695C358.852 207.438 337.87 211.216 341.626 223.642C346.091 238.454 356.492 250.67 371.864 261.056C378.037 265.228 381.5 263.506 385.521 260.63C399.327 250.743 399.364 228.366 399.364 228.366C399.364 228.366 405.846 222.915 407.254 219.793C419.379 219.074 444.967 216.633 436.622 200.459C430.386 188.378 404.136 160.232 388.268 171.587C381.438 176.478 386.997 195.346 387.176 204.896C385.073 206.734 382.762 209.731 382.762 209.731C382.762 209.731 372.137 208.729 368.076 208.695Z" fill="#ABD551"/>
<path d="M389.498 204.479C389.498 204.479 388.347 180.525 389.749 176.713C391.281 172.526 396.25 172.613 396.725 177.836C397.192 183.085 392.501 207.04 392.501 207.04L389.498 204.479ZM385.607 211.298C385.607 211.298 357.819 210.968 351.317 212.828C347.371 213.952 344.162 217.513 349.216 219.468C354.271 221.422 387.228 213.387 387.228 213.387L385.607 211.298Z" fill="#6E8B2F"/>
<path d="M398.854 227.644C397.482 224.788 392.434 215.924 384.859 213.323C381.95 212.324 381.936 209.26 384.191 206.966C388.438 202.643 390.935 201.848 393.845 202.847C407.641 207.583 407.868 218.376 407.952 218.881C408.446 221.298 400.562 231.162 398.854 227.644ZM366.845 231.483C369.63 235.626 373.702 239.279 377.566 242.452C381.355 245.415 386.918 248.53 386.245 253.884C385.894 256.396 383.005 259.473 380.458 259.42C373.764 259.266 356.782 242.813 350.95 232.231C348.376 227.574 349.901 224.015 355.338 223.231C362.232 222.253 362.34 224.8 366.845 231.483Z" fill="#D2F489"/>
</g>
<g clip-path="url(#clip4_678_2386)">
<path d="M1387.86 94.9872C1387.86 94.9872 1323.06 187.863 1329.28 192.402C1335.5 196.94 1357.85 213.95 1368.57 213.963C1379.29 213.977 1408.34 204.465 1428.85 196.084C1449.35 187.703 1485.72 171.56 1498.08 156.013C1510.45 140.465 1509.46 92.6111 1504.19 86.1299C1498.93 79.6487 1475.05 62.3594 1475.05 62.3594L1387.86 94.9872Z" fill="#C9CABB"/>
<path d="M1313.38 81.5722L1300.22 115.801C1300.22 115.801 1308.55 121.644 1314.89 124.667C1322.54 128.314 1340.58 136.9 1356.95 128.497C1373.31 120.11 1448.71 62.393 1451.07 57.1182C1453.44 51.8434 1453.75 29.6274 1453.77 21.3639C1453.79 13.0851 1358.09 21.2876 1358.09 21.2876L1313.38 81.5722Z" fill="#C9CABB"/>
<path d="M1320.55 68.921L1301.13 104.818C1301.13 104.818 1333.19 125.508 1343.15 123.132C1353.11 120.756 1435.65 61.0941 1438.94 55.9223C1442.25 50.7352 1443.94 22.7775 1443.94 22.7775C1443.94 22.7775 1431.63 4.4904 1430.84 4.19066C1430.08 3.88846 1320.55 68.921 1320.55 68.921ZM1337.61 186.576C1337.61 186.576 1360.54 203.75 1366.94 203.928C1373.36 204.118 1400.49 198.551 1429.43 185.5C1458.37 172.449 1482.55 156.79 1489.9 148.438C1497.24 140.087 1498.55 96.9302 1496.19 91.501C1493.82 86.0719 1467.33 71.0989 1467.33 71.0989L1337.61 186.576Z" fill="white"/>
<path d="M1303.46 125.099C1312.46 120.82 1302.41 104.507 1320.08 83.0441C1337.75 61.5809 1365.28 51.8333 1383.21 44.0609C1401.14 36.2884 1446.59 27.4287 1456 21.1536C1465.42 14.8784 1463.57 0.191298 1452.25 -8.96852C1440.93 -18.1283 1406.98 -38.6527 1361.97 -24.5651C1316.97 -10.4775 1285.4 29.9752 1277.01 63.0341C1268.62 96.234 1286.56 133.136 1303.46 125.099Z" fill="#FF6110"/>
<path d="M1320.94 106.635C1323.58 108.305 1326.62 105.314 1328.92 101.422C1330.61 98.5625 1332.13 94.1427 1328.86 92.2418C1326.47 90.8329 1322.57 94.2972 1320.77 97.7763C1318.98 101.255 1318.31 104.976 1320.94 106.635ZM1384.83 62.2891C1387.25 65.1295 1391.24 62.5516 1394.79 59.1604C1398.33 55.7563 1400.57 52.9343 1398.36 50.1177C1396.15 47.301 1391.65 50.0232 1388.95 52.5876C1386.25 55.152 1382.32 59.3716 1384.83 62.2891ZM1414.44 45.4886C1414.49 48.5079 1417.44 49.8111 1423.4 48.9914C1429.35 48.1589 1431.25 45.8914 1430.89 43.3678C1430.53 40.8442 1425.34 40.0917 1421.91 40.5333C1418.49 41.0031 1414.37 42.2721 1414.44 45.4886ZM1363.05 195.935C1363.75 200.076 1368.35 200.511 1374.35 199.461C1380.34 198.411 1385.66 197.804 1385.35 193.757C1384.94 188.299 1377.06 189.443 1372.76 190.117C1368.46 190.791 1362.28 191.403 1363.05 195.935ZM1375.83 182.012C1376.91 184.743 1380.04 185.307 1384.96 183.172C1389.75 181.107 1391.29 179.084 1390.37 176.226C1389.45 173.367 1384.38 173.967 1380.84 175.696C1377.3 177.454 1374.76 179.338 1375.83 182.012ZM1394.36 192.315C1396.54 194.382 1399.05 195.071 1405.6 188.635C1412.16 182.212 1411.12 179.095 1409.38 177.529C1406.9 175.291 1403.36 176.551 1398.7 181.388C1394.06 186.238 1391.59 189.704 1394.36 192.315Z" fill="#D4D3D4"/>
<path d="M1308.37 111.88C1303.36 109.066 1296.73 105.118 1290.8 97.8434C1281.34 86.2495 1277.72 69.2466 1281.88 48.8234C1285.09 40.8626 1290.06 32.4777 1294.45 26.188C1296.1 23.8147 1297.68 21.7458 1299.04 20.0936C1297.32 24.3617 1292.97 32.9331 1290.34 42.7882C1284.76 63.6906 1287.95 81.2273 1296.75 91.9995C1300.94 97.1403 1305.76 100.865 1309.74 103.37C1309.18 106.3 1308.61 109.317 1308.37 111.88ZM1330.59 72.4144C1325.32 68.0637 1318.94 60.8566 1317.29 50.4672C1314.57 33.3291 1321.06 15.1723 1326.13 4.30888C1328.79 -1.41817 1332.56 -7.46922 1336.54 -13.1124C1339.35 -14.8058 1344.48 -17.8101 1351.6 -20.7615C1345.87 -14.1128 1339 -5.12222 1334.87 3.75725C1326.92 20.8489 1323.39 37.5689 1325.13 48.5604C1326.53 57.4382 1332.6 63.707 1337.2 67.2795C1334.41 69.3545 1332.75 70.6497 1330.59 72.4144ZM1366.4 51.2382C1363.13 45.7752 1359.83 37.8871 1359.92 28.2539C1360.19 3.23115 1372.3 -14.041 1375.99 -19.488C1378.28 -22.8681 1380.69 -26.0608 1382.99 -28.8596C1386.42 -29.2167 1390.89 -29.4653 1393.76 -29.348C1390.76 -26.0753 1386.96 -21.5839 1383.59 -16.5327C1381.2 -12.9737 1368.51 6.71899 1368.29 27.5218C1368.2 35.9617 1371.27 43.1038 1374.14 47.9354C1371.48 49.1044 1369.59 49.838 1366.4 51.2382ZM1404.65 36.9893C1403.18 31.8372 1401.56 23.5605 1402.73 14.1742C1404.66 -1.5397 1410.21 -12.7293 1419.79 -24.1433C1420.08 -24.4957 1420.38 -24.8481 1420.69 -25.1876C1424.09 -24.2363 1427.02 -23.0586 1428.98 -22.3068C1427.97 -21.3244 1426.94 -20.2267 1425.92 -19.001C1417.39 -8.84329 1412.71 1.27628 1410.98 15.3545C1409.99 23.3766 1411.29 30.5025 1412.46 34.8443C1408.73 35.8944 1406.41 36.537 1404.65 36.9893Z" fill="#FE8E6E"/>
<path d="M1280.65 91.2638C1282.73 90.4437 1286.12 94.2349 1287.46 98.5901C1288.77 102.932 1289.44 106.835 1286.59 108.149C1283.75 109.476 1280.32 104.041 1279.29 100.88C1278.26 97.6908 1277.21 92.6298 1280.65 91.2638ZM1300.1 56.9542C1305.99 56.8359 1303.58 64.4998 1306.49 67.5108C1309.39 70.5219 1310.31 66.7223 1313.54 69.7191C1317.23 73.1579 1308.22 89.406 1299.71 85.5078C1291.18 81.6122 1291.88 57.1056 1300.1 56.9542ZM1334.45 32.4415C1330.25 32.7524 1327.45 40.0949 1328.19 46.3763C1328.92 52.6578 1334.29 58.6476 1341.58 54.5035C1348.88 50.344 1346.75 46.1295 1344.98 45.3475C1343.82 44.8238 1341 43.7361 1340.19 41.5644C1339.4 39.362 1339.51 32.0694 1334.45 32.4415Z" fill="#F6FFFE"/>
<path d="M1351.9 124.368C1351.9 124.368 1312.51 184.13 1316.61 189.422C1321.48 195.697 1326.71 198.39 1331.67 198.453C1340.27 198.567 1356.59 182.787 1387.07 168.706C1414.83 155.887 1427.33 151.911 1444.09 144.752C1460.85 137.592 1471.14 130.532 1476.5 119.628C1481.86 108.725 1486.84 95.1722 1487.16 80.6077C1487.39 69.5998 1481.92 60.9643 1473.86 55.2239C1467 50.3301 1457.27 47.9873 1450.28 49.3797C1443.28 50.7874 1351.36 123.621 1351.9 124.368Z" fill="#CC1935"/>
<path d="M1324.1 124.586C1303.7 160.654 1312.58 187.19 1317.27 189.846C1320.23 191.518 1324.44 183.925 1354.76 165.982C1398.64 140.011 1438.73 123.6 1449.18 114.637C1463.53 102.294 1467.58 80.8153 1468.17 71.5652C1469.1 56.6059 1462.93 49.5506 1455.48 49.0951C1447.99 48.6574 1412.3 52.6745 1376.84 73.4934C1348.59 90.1039 1335.17 104.977 1324.1 124.586Z" fill="#FF605F"/>
<path d="M1317.52 156.69C1314.14 159.911 1311.41 179.499 1322.45 181.032C1333.52 182.562 1350.41 160.287 1345.46 155.354C1339.77 149.662 1329.28 162.192 1325.15 161.758C1321.04 161.337 1321.51 152.906 1317.52 156.69Z" fill="#F9FFFF"/>
</g>
<g clip-path="url(#clip5_678_2386)">
<path d="M462.603 27.2439L465.509 5.06322L476.371 -2.75222L509.509 1.04732L541.987 22.1397L571.77 54.5142L582.554 74.3326C582.554 74.3326 585.867 94.96 584.229 97.2771C582.591 99.5942 569.604 108.095 568.972 108.483C568.341 108.871 556.142 118.644 546.973 115.254C537.804 111.864 487.012 80.3403 486.593 79.3566C486.174 78.3729 462.603 27.2439 462.603 27.2439Z" fill="#2F2F2F"/>
<path d="M461.518 18.644C461.518 18.644 464.364 15.8108 467.967 13.6324C472.79 10.7039 500.546 3.684 536.49 33.8448C572.434 64.0056 577.449 98.3807 568.04 105.559C558.631 112.737 515.239 114.204 515.239 114.204C515.239 114.204 477.49 71.1476 476.923 70.3654C476.353 69.5613 461.518 18.644 461.518 18.644Z" fill="#F7B03A"/>
<path d="M487.077 22.1417C485.833 21.4853 484.339 21.3942 483.411 22.6955C482.47 23.9867 483.113 25.5053 484.259 26.1814C486.048 27.2337 487.544 26.5926 488.255 25.3327C488.885 24.1685 488.216 22.7298 487.077 22.1417ZM481.301 26.9836C480.959 29.5312 477.428 30.5055 473.401 28.8393C469.373 27.1732 467.581 24.8124 469.038 22.3226C470.494 19.8328 474.486 20.8366 476.368 21.5592C478.25 22.2818 481.648 24.358 481.301 26.9836ZM508.462 29.2544C507.178 30.9305 508.734 33.7666 512.354 36.0896C515.973 38.4126 519.227 38.0835 520.425 36.315C521.624 34.5466 519.858 31.9838 517.084 29.9418C514.31 27.8998 510.095 27.1373 508.462 29.2544ZM523.222 34.44C522.007 35.8883 523.317 37.8033 525.642 39.5297C528.396 41.5956 529.978 41.1689 530.901 40.3117C531.824 39.4546 531.509 36.6207 529.142 34.9202C526.799 33.2398 524.558 32.848 523.222 34.44ZM533.805 66.4093C532.101 68.1 531.67 71.1654 536.943 74.8964C542.216 78.6274 545.265 76.9632 545.998 76.0895C546.731 75.2157 548.147 71.8755 543.503 67.8566C540.706 65.4284 536.376 63.8552 533.805 66.4093ZM557.648 84.6415C556.769 85.4948 555.039 88.1637 559.591 91.7582C564.12 95.3546 564.847 93.3945 565.409 92.7242C565.971 92.0539 566.532 88.3227 563.678 85.3562C561.407 82.9818 559.121 83.2261 557.648 84.6415ZM557.9 95.8877C556.872 96.9425 557.422 98.9129 560.327 101.065C562.794 102.89 564.846 102.511 565.559 101.539C566.6 100.128 565.87 98.3734 563.789 96.7699C561.969 95.3653 559.357 94.4182 557.9 95.8877ZM497.715 64.4983C496.959 65.496 498.052 68.3505 501.355 71.1226C504.659 73.8946 506.436 73.0404 507.28 72.0349C508.124 71.0295 508.027 69.0306 505.085 66.3378C502.456 63.9282 498.997 62.8001 497.715 64.4983Z" fill="#FFE36A"/>
<path d="M466.194 32.4198C466.555 32.233 467.753 31.0967 469.248 30.5556C470.56 30.086 472.15 30.1354 473.251 31.0594C475.178 32.6764 478.89 37.0763 478.741 39.2964C478.627 40.9145 475.444 44.5868 471.708 43.0837C467.962 41.5925 466.194 32.4198 466.194 32.4198ZM491.286 20.6755C490.703 21.4918 490.65 24.0583 492.39 25.3146C494.119 26.5608 500.674 28.3496 501.955 27.7718C503.213 27.1959 503.126 23.4105 501.869 22.3559C500.612 21.3013 492.492 18.9951 491.286 20.6755ZM528.658 74.002C527.333 74.5836 524.358 77.0843 525.816 79.674C527.283 82.2517 535.209 89.5548 537.208 87.1728C539.206 84.7909 538.296 81.1107 537.533 80.2459C536.758 79.371 530.677 73.1265 528.658 74.002ZM541.581 78.217C538.471 79.1768 538.848 83.7354 539.954 86.1118C542.333 91.2494 544.569 92.5954 546.81 92.721C550.632 92.9301 551.306 90.4976 548.25 83.9553C546.077 79.2766 543.698 77.566 541.581 78.217Z" fill="#D64C12"/>
<path d="M529.985 47.2123C528.091 49.3966 531.168 55.7929 534.645 58.8936C538.121 61.9943 540.461 61.102 541.387 60.5329C542.313 59.9639 543.336 56.1923 542.898 53.8461C542.46 51.4999 539.85 47.2698 538.041 46.1194C536.242 44.9569 532.403 44.4277 529.985 47.2123Z" fill="#7F594B"/>
<path d="M491.089 34.4007C490.073 36.0977 491.505 39.0334 495.306 42.6714C499.917 47.0703 504.853 47.4592 505.744 46.616C506.645 45.7608 505.827 40.9746 500.86 36.8065C494.837 31.7326 491.99 32.9133 491.089 34.4007Z" fill="#FE8D00"/>
<path d="M481.893 41.8597C479.498 44.3983 480.453 47.0764 483.165 49.1682C485.876 51.26 492.855 52.9342 496.228 50.931C498.327 49.6938 498.006 44.121 493.579 40.671C491.02 38.6878 483.983 39.6362 481.893 41.8597Z" fill="#7F594B"/>
<path d="M541.237 64.7719C541.808 66.2303 546.658 68.4234 550.268 70.3922C553.879 72.361 557.298 74.6793 558.598 74.0775C559.899 73.4758 562.576 68.5834 558.279 64.3456C553.982 60.1078 549.905 59.6438 547.799 59.9167C545.683 60.2017 543.728 61.0493 543.317 61.418C542.907 61.8087 540.838 63.7643 541.237 64.7719ZM553.394 88.3741C555.111 89.3662 557.918 84.0522 557.854 81.6733C557.79 79.2943 554.913 75.8196 552.538 74.275C550.174 72.7406 548.22 72.0798 547.098 73.1983C545.976 74.3168 548.098 79.5655 549.332 82.1305C550.598 84.6815 552.366 87.7764 553.394 88.3741Z" fill="#FE8D00"/>
<path d="M499.107 48.5944C499.979 50.0598 503.554 51.6324 505.117 49.8431C506.679 48.0539 506.466 44.9783 504.538 43.9935C503.574 43.49 500.097 44.1825 499.449 45.0265C498.792 45.8825 498.654 47.8466 499.107 48.5944ZM514.3 42.7402C513.192 44.2789 515.146 48.4888 517.063 48.4653C518.88 48.4394 521.513 44.0611 520.149 42.9161C518.449 41.4899 514.754 42.1016 514.3 42.7402ZM511.505 52.2455C511.097 52.7803 509.862 55.783 511.747 57.3038C513.633 58.8247 517.733 59.0426 518.537 58.0851C519.34 57.1275 519.001 51.6008 517.594 50.4817C516.641 49.7222 512.302 51.2219 511.505 52.2455Z" fill="#92A51E"/>
<path d="M523.354 50.5208C522.064 51.6207 522.911 52.5559 523.64 53.4126C524.369 54.2693 525.226 55.4366 525.124 57.8189C525.022 60.2013 523.59 64.1196 523.45 64.5532C522.983 65.9361 524.377 68.0434 526.79 67.8655C529.203 67.6877 531.363 59.7907 530.555 56.0128C529.736 52.2249 525.749 48.4923 523.354 50.5208Z" fill="#FBE0BC"/>
<path d="M520.204 53.059C519.39 54.3946 520.267 58.8429 522.961 59.4722C525.656 60.1016 526.584 54.8632 526.08 53.7872C525.776 53.1039 521.387 51.1145 520.204 53.059ZM533.655 59.3685C532.835 58.6195 531.878 58.3262 530.709 59.7926C529.529 61.2711 528.714 63.3609 530.515 65.0555C532.315 66.7501 534.574 64.4231 534.825 64.1239C535.076 63.8246 535.474 61.0172 533.655 59.3685ZM527.627 67.6705C527.061 66.9103 522.437 65.5182 521.21 66.8345C519.993 68.1387 520.376 70.2347 522.298 72.2958C524.219 74.3569 525.668 75.5722 526.841 74.7819C528.002 73.9816 529.302 69.9528 527.627 67.6705Z" fill="#92A51E"/>
<path d="M532.6 93.0766C532.059 93.9891 533.829 97.6161 534.95 98.1281C536.058 98.63 542.149 95.8679 546.258 97.7043C550.377 99.5288 551.137 100.86 552.014 100.739C552.89 100.618 554.171 97.7552 553.401 96.4362C552.631 95.1172 550.135 92.0638 544.606 91.1168C538.952 90.1253 533.198 92.0484 532.6 93.0766ZM506.792 52.003C505.084 50.7328 500.864 51.3127 498.071 52.7216C493.82 54.8458 491.035 57.2411 490.838 58.2787C490.652 59.3264 492.713 62.7284 494.549 62.9227C495.019 62.9703 498.432 59.5109 502.252 57.9234C504.843 56.8538 507.139 57.4958 507.69 57.4477C508.24 57.3995 509.57 54.089 506.792 52.003ZM507.009 23.3033C506.215 23.3506 503.379 24.2753 500.911 28.018C499.043 30.8765 498.077 32.7578 498.593 33.8439C498.988 34.6855 503.227 39.0171 504.648 38.1497C506.07 37.2822 506.021 31.5304 506.222 30.6588C506.423 29.7872 509.222 26.1597 509.546 25.6766C509.88 25.1816 508.268 23.2376 507.009 23.3033Z" fill="#FBE0AF"/>
<path d="M601.53 101.964C603 95.8127 602.02 92.2163 600.033 90.5491C598.046 88.8819 588.455 86.3826 588.455 86.3826C588.455 86.3826 586.935 56.9588 548.398 23.6643C511.109 -8.56368 481.951 -6.41198 481.951 -6.41198C481.951 -6.41198 479.992 -15.1132 474.297 -18.9736C468.605 -22.8121 452.572 -12.8695 451.584 -6.92714C450.595 -0.984747 454.181 1.71821 455.671 5.43636C457.161 9.1545 458.332 12.9116 458.118 14.2613C457.903 15.6109 442.698 37.0376 440.188 50.311C437.668 63.5964 437.078 83.7223 471.522 113.848C505.966 143.974 527.293 137.76 538.324 133.268C551.421 127.941 568.622 112.207 568.622 112.207C568.622 112.207 574.968 111.984 580.298 113.703C586.198 115.594 588.436 116.839 591.221 116.097C594.005 115.332 600.061 108.114 601.53 101.964ZM504.004 77.6896C466.564 45.6411 458.314 18.4031 470.224 5.32769C478.005 -3.21642 507.991 -3.00063 542.377 26.4647C577.124 56.2533 588.362 87.2225 578.34 98.8019C568.296 110.383 540.736 109.123 504.004 77.6896Z" fill="#6A6E70"/>
<path opacity="0.6" d="M530.316 43.5125C534.475 46.3094 538.133 38.4255 546.472 34.8568C565.563 26.6651 580.856 37.0501 590.636 24.5936C601.333 10.9699 586.173 -12.7245 575.644 -12.8903C572.257 -12.9378 582.207 -1.38665 574.04 4.65142C565.861 10.6794 551.485 -0.506614 537.924 8.77611C521.818 19.7787 527.627 41.6848 530.316 43.5125Z" fill="#EAEAEA"/>
</g>
</g>
<defs>
<radialGradient id="paint0_radial_678_2386" cx="0" cy="0" r="1" gradientUnits="userSpaceOnUse" gradientTransform="translate(140.701 105.872) rotate(69.3582) scale(79.135 137.891)">
<stop offset="0.517" stop-color="#DF8016"/>
<stop offset="0.643" stop-color="#E58C21"/>
<stop offset="1" stop-color="#F5AC3C"/>
</radialGradient>
<clipPath id="clip0_678_2386">
<rect width="1440" height="450" fill="white"/>
</clipPath>
<clipPath id="clip1_678_2386">
<rect width="180" height="180" fill="white" transform="translate(819 307) rotate(30)"/>
</clipPath>
<clipPath id="clip2_678_2386">
<rect width="230" height="230" fill="white" transform="translate(24 118.665) rotate(-20)"/>
</clipPath>
<clipPath id="clip3_678_2386">
<rect width="256" height="256" fill="white" transform="translate(162 188) rotate(-30)"/>
</clipPath>
<clipPath id="clip4_678_2386">
<rect width="256" height="256" fill="white" transform="translate(1211 112.107) rotate(-50)"/>
</clipPath>
<clipPath id="clip5_678_2386">
<rect width="200" height="200" fill="white" transform="translate(511.558 -89) rotate(40)"/>
</clipPath>
</defs>
</svg>
