<svg width="408" height="64" viewBox="0 0 408 64" fill="none" xmlns="http://www.w3.org/2000/svg">
<rect width="408" height="64" rx="32" fill="#FFD700"/>
<path d="M68.8359 40.0547L67.125 38.3672L72.2578 33.2578H59.8125V30.7969H72.2578L67.125 25.6875L68.8359 24L76.8516 32.0156L68.8359 40.0547ZM103.219 21.4219V33.7734H100.594V32.9062H96.6328V31.3125H100.594V21.4219H103.219ZM85.4297 29.0625C89.5312 29.0625 94.6406 29.0156 99.1875 28.5703L99.3281 30.2109C97.3945 30.4805 95.4023 30.6445 93.4453 30.7266V33.7969H90.8672V30.8438C89.0508 30.8906 87.3047 30.9023 85.7109 30.8906L85.4297 29.0625ZM103.219 34.4297V39.1875H91.1719V40.5469H103.781V42.3984H88.6172V37.4766H100.641V36.2109H88.5234V34.4297H103.219ZM92.2734 21.75C95.4141 21.75 97.5703 23.0156 97.5703 24.9375C97.5703 26.9062 95.4141 28.1016 92.2734 28.1016C89.0625 28.1016 86.9297 26.9062 86.9297 24.9375C86.9297 23.0156 89.0625 21.75 92.2734 21.75ZM92.2734 23.4844C90.4922 23.4844 89.3906 24.0469 89.4141 24.9375C89.3906 25.8281 90.4922 26.3672 92.2734 26.3672C94.0078 26.3672 95.1328 25.8281 95.1328 24.9375C95.1328 24.0469 94.0078 23.4844 92.2734 23.4844ZM123.398 31.3359V33.4219H108.539V23.25H123.234V25.3594H111.117V31.3359H123.398ZM125.555 37.7344V39.8906H106.195V37.7344H125.555ZM144.68 21.3984V33.0703H142.078V28.8281H137.977V26.7188H142.078V21.3984H144.68ZM133.336 34.0312V36.1406H142.102V34.0312H144.68V42.3281H130.781V34.0312H133.336ZM133.336 40.2188H142.102V38.1562H133.336V40.2188ZM138.094 22.4062C138.07 28.0781 135.164 31.875 128.367 33.8906L127.359 31.8047C130.465 30.9258 132.527 29.6953 133.781 28.1484L127.711 28.6172L127.312 26.5547L134.883 26.2734C135.082 25.7109 135.223 25.125 135.305 24.5156H128.391V22.4062H138.094ZM164.367 22.7578C164.367 25.2656 167.297 27.8438 171.633 28.4531L170.648 30.5156C167.168 29.9766 164.391 28.2891 163.055 26.0156C161.684 28.3242 158.895 30.0234 155.414 30.5625L154.43 28.5234C158.742 27.8672 161.672 25.3359 161.695 22.7578V21.9375H164.367V22.7578ZM172.711 31.9219V34.0312H164.531V37.8984H161.953V34.0312H153.352V31.9219H172.711ZM170.578 40.0547V42.1641H155.695V36H158.297V40.0547H170.578ZM181.031 22.3359C184.242 22.3125 186.586 24.1406 186.586 26.7891C186.586 29.3906 184.242 31.2422 181.031 31.2188C177.844 31.2422 175.523 29.3906 175.523 26.7891C175.523 24.1406 177.844 22.3125 181.031 22.3359ZM181.031 24.4453C179.297 24.4219 178.031 25.3359 178.055 26.7891C178.031 28.2188 179.297 29.0859 181.031 29.0859C182.836 29.0859 184.102 28.2188 184.102 26.7891C184.102 25.3359 182.836 24.4219 181.031 24.4453ZM191.836 21.4219V42.5625H189.258V21.4219H191.836ZM174.141 32.6719C177.961 32.6719 183.305 32.6016 187.875 31.9219L188.062 33.8438C186.234 34.1953 184.336 34.418 182.484 34.5469V41.9297H179.859V34.7109C177.902 34.793 176.062 34.8047 174.469 34.8281L174.141 32.6719ZM208.148 27.4219C208.148 30.7031 210.094 34.4297 213.445 35.9766L211.992 38.0391C209.602 36.9141 207.832 34.6406 206.883 31.9922C205.922 34.8984 204.07 37.3828 201.633 38.5547L200.109 36.5156C203.484 34.9219 205.523 30.9375 205.547 27.4219V25.6406H200.93V23.4844H212.578V25.6406H208.148V27.4219ZM217.148 21.3984V29.6484H220.406V31.8281H217.148V42.5859H214.547V21.3984H217.148ZM227.906 26.9531C227.906 30.375 229.102 33.9375 231.961 35.7422L230.531 37.7344C228.621 36.5859 227.379 34.6055 226.688 32.2734C225.914 34.8398 224.555 37.0078 222.562 38.2266L220.945 36.2812C224.016 34.4062 225.398 30.6797 225.398 27.0703V23.2734H227.906V26.9531ZM239.578 21.3984V42.5859H237.07V21.3984H239.578ZM235.172 21.7734V41.5547H232.711V30.8438H229.688V28.6875H232.711V21.7734H235.172ZM259.664 21.3984V42.5859H257.039V21.3984H259.664ZM255.188 24.6797V26.7656H242.484V24.6797H247.523V21.6562H250.172V24.6797H255.188ZM248.883 28.125C251.977 28.125 254.273 30.1875 254.273 33.1172C254.273 36.0469 251.977 38.0859 248.883 38.0859C245.766 38.0859 243.492 36.0469 243.492 33.1172C243.492 30.1875 245.766 28.125 248.883 28.125ZM248.883 30.2578C247.195 30.2578 245.977 31.3828 245.977 33.1172C245.977 34.8516 247.195 35.9531 248.883 35.9297C250.57 35.9531 251.766 34.8516 251.766 33.1172C251.766 31.3828 250.57 30.2578 248.883 30.2578ZM287.836 37.8984V40.0312H268.477V37.8984H276.82V33.7734H270.609V22.8047H273.211V26.2734H283.031V22.8047H285.633V33.7734H279.398V37.8984H287.836ZM273.211 31.6641H283.031V28.3594H273.211V31.6641ZM306.961 21.3984V42.6094H304.359V31.3359H300.727V29.2031H304.359V21.3984H306.961ZM299.508 23.25V31.0078H292.57V35.4609C295.711 35.4492 298.254 35.3438 301.102 34.8281L301.312 36.9609C298.148 37.5234 295.336 37.6406 291.68 37.6406H289.992V28.8984H296.953V25.3594H289.922V23.25H299.508ZM326.555 21.3984V29.6719H329.695V31.8516H326.555V42.5391H323.953V21.3984H326.555ZM320.953 23.6016C320.953 29.8359 318.375 35.2969 311.32 38.7656L309.844 36.75C315 34.1836 317.789 30.5742 318.328 25.7578H310.992V23.6016H320.953ZM348.398 21.3984V42.5859H345.773V21.3984H348.398ZM342.07 23.6484C342.07 29.9531 339.633 35.3203 332.203 38.8359L330.844 36.75C336.387 34.1133 338.965 30.5273 339.422 25.7109H331.922V23.6484H342.07Z" fill="#333333"/>
</svg>
