<svg width="304" height="56" viewBox="0 0 304 56" fill="none" xmlns="http://www.w3.org/2000/svg">
<rect x="1" y="0.5" width="302" height="55" rx="9.5" fill="#FFD700"/>
<rect x="1" y="0.5" width="302" height="55" rx="9.5" stroke="#E6E6E6"/>
<path d="M59.5 38.9498V36.9498C57.4167 36.7165 55.629 35.8541 54.137 34.3628C52.645 32.8715 51.7827 31.0838 51.55 28.9998H49.55V26.9998H51.55C51.7834 24.9165 52.646 23.1288 54.138 21.6368C55.63 20.1448 57.4174 19.2825 59.5 19.0498V17.0498H61.5V19.0498C63.5834 19.2831 65.3711 20.1458 66.8631 21.6378C68.3551 23.1298 69.2174 24.9171 69.4501 26.9998H71.4501V28.9998H69.4501C69.2167 31.0831 68.3544 32.8708 66.8631 34.3628C65.3717 35.8548 63.584 36.7171 61.5 36.9498V38.9498H59.5ZM60.5 34.9998C62.4334 34.9998 64.0834 34.3165 65.45 32.9498C66.8167 31.5831 67.5 29.9331 67.5 27.9998C67.5 26.0665 66.8167 24.4165 65.45 23.0498C64.0834 21.6831 62.4334 20.9998 60.5 20.9998C58.5667 20.9998 56.9167 21.6831 55.55 23.0498C54.1834 24.4165 53.5 26.0665 53.5 27.9998C53.5 29.9331 54.1834 31.5831 55.55 32.9498C56.9167 34.3165 58.5667 34.9998 60.5 34.9998ZM60.5 31.9998C59.4 31.9998 58.4584 31.6081 57.675 30.8248C56.8917 30.0415 56.5 29.0998 56.5 27.9998C56.5 26.8998 56.8917 25.9581 57.675 25.1748C58.4584 24.3915 59.4 23.9998 60.5 23.9998C61.6 23.9998 62.5417 24.3915 63.325 25.1748C64.1084 25.9581 64.5 26.8998 64.5 27.9998C64.5 29.0998 64.1084 30.0415 63.325 30.8248C62.5417 31.6081 61.6 31.9998 60.5 31.9998Z" fill="#262627"/>
<path d="M100.127 19.1797V32.5195H98.2715V28.9062H95.459V27.4219H98.2715V25.2539H95.459V23.7305H98.2715V19.1797H100.127ZM95.4004 21.2109V22.7148H85.5566V21.2109H89.6582V19.1602H91.4941V21.2109H95.4004ZM90.5566 23.5547C92.9199 23.5547 94.5801 24.9219 94.5996 26.9141C94.5801 28.9258 92.9199 30.293 90.5566 30.293C88.1934 30.293 86.5332 28.9258 86.5332 26.9141C86.5332 24.9219 88.1934 23.5547 90.5566 23.5547ZM90.5566 25C89.1895 25.0195 88.2715 25.7617 88.2715 26.9141C88.2715 28.1055 89.1895 28.8477 90.5566 28.8477C91.9043 28.8477 92.8418 28.1055 92.8613 26.9141C92.8418 25.7617 91.9043 25.0195 90.5566 25ZM100.518 34.7852V36.2891H88.7012V31.3477H90.5762V34.7852H100.518ZM117.939 19.1602V36.6602H116.162V27.6758H114.072V35.8008H112.314V19.4922H114.072V26.1133H116.162V19.1602H117.939ZM108.135 23.7891C108.135 26.9336 109.326 29.7852 111.865 31.0938L110.771 32.5195C109.053 31.5918 107.9 29.9609 107.275 27.9297C106.68 30.2344 105.518 32.0703 103.74 33.125L102.588 31.7188C105.146 30.2734 106.338 27.2656 106.338 23.7891V22.6562H103.057V21.1523H111.182V22.6562H108.135V23.7891ZM130.732 19.9609C133.369 19.9609 135.283 21.4258 135.283 23.5938C135.283 25.7422 133.369 27.2266 130.732 27.207C128.096 27.2266 126.221 25.7422 126.221 23.5938C126.221 21.4258 128.096 19.9609 130.732 19.9609ZM130.732 21.4648C129.15 21.4648 127.998 22.3047 128.018 23.5938C127.998 24.8633 129.15 25.7031 130.732 25.6836C132.354 25.7031 133.506 24.8633 133.506 23.5938C133.506 22.3047 132.354 21.4648 130.732 21.4648ZM139.541 19.1797V36.6602H137.705V19.1797H139.541ZM124.971 28.5742C128.193 28.5742 132.666 28.4961 136.494 27.9297L136.631 29.3164C135.039 29.6191 133.379 29.8047 131.768 29.9219V36.1133H129.912V30.0195C128.213 30.0977 126.611 30.1074 125.225 30.1172L124.971 28.5742ZM156.768 19.1602V36.6602H154.912V19.1602H156.768ZM148.857 24.7852C148.857 27.5781 150.713 30.4297 153.428 31.582L152.412 33.0078C150.4 32.1289 148.789 30.3125 147.979 28.1055C147.188 30.4395 145.605 32.3828 143.564 33.3008L142.529 31.875C145.244 30.6641 147.041 27.7148 147.041 24.7852V23.6328H143.057V22.1484H147.021V19.5117H148.857V22.1484H152.783V23.6328H148.857V24.7852ZM175.576 33.0078V34.5703H159.561V33.0078H166.611V29.9414H161.514V24.375H171.787V21.9141H161.475V20.3906H173.623V25.8594H163.35V28.418H174.033V29.9414H168.447V33.0078H175.576ZM195.361 19.1602V25.9375H198.174V27.5H195.361V36.6602H193.506V19.1602H195.361ZM184.229 20.625V25.1172H188.857V20.625H190.693V32.5H182.393V20.625H184.229ZM184.229 30.9766H188.857V26.582H184.229V30.9766ZM215.029 33.0078V34.5703H199.014V33.0078H206.064V29.9414H200.967V24.375H211.24V21.9141H200.928V20.3906H213.076V25.8594H202.803V28.418H213.486V29.9414H207.9V33.0078H215.029ZM227.607 23.6133C227.588 26.8164 229.521 30.0195 232.236 31.2305L231.123 32.6953C229.111 31.7383 227.52 29.7754 226.709 27.3828C225.889 29.9414 224.277 32.0605 222.178 33.0859L221.045 31.5234C223.799 30.293 225.732 26.9531 225.732 23.6133V20.625H227.607V23.6133ZM235.674 19.1602V36.6992H233.818V19.1602H235.674ZM244.58 22.3047C244.58 24.5312 246.123 26.6602 248.799 27.5586L247.861 29.0039C245.879 28.3203 244.424 26.9531 243.662 25.2344C242.9 27.1289 241.387 28.6133 239.326 29.3359L238.33 27.8906C241.064 26.9531 242.705 24.707 242.725 22.2852V21.8164H238.877V20.3125H248.35V21.8164H244.58V22.3047ZM252.217 19.1602V23.6523H254.756V25.2148H252.217V29.707H250.361V19.1602H252.217ZM252.217 30.5664V36.6602H250.361V32.0703H240.654V30.5664H252.217Z" fill="#262627"/>
</svg>
