<svg width="1200" height="630" viewBox="0 0 1200 630" fill="none" xmlns="http://www.w3.org/2000/svg">
<g clip-path="url(#clip0_387_49718)">
<rect width="1200" height="630" fill="white"/>
<ellipse cx="442" cy="596.5" rx="47" ry="38.5" fill="#DDB900"/>
<ellipse cx="22" cy="608.5" rx="47" ry="38.5" fill="#DDB900"/>
<ellipse cx="231" cy="555" rx="217" ry="163" fill="#FFD700"/>
<ellipse cx="141.5" cy="510" rx="39.5" ry="45" fill="#F7F7F7"/>
<ellipse cx="142.017" cy="509.5" rx="25.0167" ry="28.5" fill="#333333"/>
<ellipse cx="318.5" cy="510" rx="39.5" ry="45" fill="#F7F7F7"/>
<ellipse cx="319.017" cy="509.5" rx="25.0167" ry="28.5" fill="#333333"/>
<path d="M257.5 362.5C258 368.167 254.1 383.5 234.5 399.5C262.5 405.167 317.2 415 312 409C306.8 403 309.833 383.5 312 374.5L338 380.5L343 362.5L239.5 338L234.5 357L257.5 362.5Z" fill="#FFD700"/>
<ellipse cx="825" cy="596.5" rx="47" ry="38.5" fill="#DDB900"/>
<ellipse cx="405" cy="608.5" rx="47" ry="38.5" fill="#DDB900"/>
<ellipse cx="614" cy="555" rx="217" ry="163" fill="#FFD700"/>
<ellipse cx="524.5" cy="510" rx="39.5" ry="45" fill="#F7F7F7"/>
<path d="M550.033 513.347C550.033 497.607 538.833 484.847 525.017 484.847C511.2 484.847 500 497.607 500 513.347C500 529.087 511.2 499.847 525.017 499.847C538.833 499.847 550.033 529.087 550.033 513.347Z" fill="#333333"/>
<ellipse cx="701.5" cy="510" rx="39.5" ry="45" fill="#F7F7F7"/>
<path d="M727.033 513.347C727.033 497.607 715.833 484.847 702.017 484.847C688.2 484.847 677 497.607 677 513.347C677 529.087 688.2 499.847 702.017 499.847C715.833 499.847 727.033 529.087 727.033 513.347Z" fill="#333333"/>
<path d="M640.5 362.5C641 368.167 637.1 383.5 617.5 399.5C645.5 405.167 700.2 415 695 409C689.8 403 692.833 383.5 695 374.5L721 380.5L726 362.5L622.5 338L617.5 357L640.5 362.5Z" fill="url(#paint0_linear_387_49718)"/>
<ellipse cx="1169" cy="596.5" rx="47" ry="38.5" fill="#DDB900"/>
<ellipse cx="749" cy="608.5" rx="47" ry="38.5" fill="#DDB900"/>
<ellipse cx="958" cy="555" rx="217" ry="163" fill="#FFD700"/>
<ellipse cx="868.5" cy="510" rx="39.5" ry="45" fill="#F7F7F7"/>
<ellipse cx="869.017" cy="509.5" rx="25.0167" ry="28.5" fill="#333333"/>
<ellipse cx="1045.5" cy="510" rx="39.5" ry="45" fill="#F7F7F7"/>
<ellipse cx="1046.02" cy="509.5" rx="25.0167" ry="28.5" fill="#333333"/>
<path d="M984.5 362.5C985 368.167 981.1 383.5 961.5 399.5C989.5 405.167 1044.2 415 1039 409C1033.8 403 1036.83 383.5 1039 374.5L1065 380.5L1070 362.5L966.5 338L961.5 357L984.5 362.5Z" fill="#FFD700"/>
<circle cx="1068" cy="517" r="75" stroke="#333333" stroke-width="10"/>
<circle cx="856" cy="517" r="75" stroke="#333333" stroke-width="10"/>
<line x1="931.996" y1="515.5" x2="996.004" y2="515.5" stroke="#333333" stroke-width="10"/>
<path d="M150.562 135.375V139.812C150.562 144 150.562 148.812 149.438 154.938H156.75V161.312H134.625V169.5H150.625V189.75H142.625V175.75H109.938V169.5H126.625V161.312H104.688V154.938H141.375C142.438 149.625 142.594 145.438 142.625 141.688H111.062V135.375H150.562ZM209.062 132.875V189.75H201.375V161.312H196.062V187H188.562V133.812H196.062V154.875H201.375V132.875H209.062ZM170.312 139.188V168.875C174.875 168.781 179.875 168.375 185.375 167.312L186.188 174.188C178.562 175.5 172.062 175.875 166.188 175.875H162.312V139.188H170.312ZM245.75 136.875C250.844 136.875 255.094 139.688 257.688 144.562H270.188V132.875H278.062V189.875H270.188V168.562H258.312C255.75 174.188 251.25 177.438 245.75 177.438C237.125 177.438 230.938 169.625 231 157.125C230.938 144.75 237.125 136.875 245.75 136.875ZM245.75 144.062C241.5 144.062 238.562 148.688 238.625 157.125C238.562 165.625 241.5 170.188 245.75 170.188C250.062 170.188 252.875 165.625 252.875 157.125C252.875 148.688 250.062 144.062 245.75 144.062ZM259.938 151C260.281 152.875 260.5 154.938 260.5 157.125C260.5 158.906 260.344 160.594 260.125 162.188H270.188V151H259.938ZM334.25 132.875V168.562H326.688V153.438H322.125V166.688H314.688V133.938H322.125V146.938H326.688V132.875H334.25ZM313 138.75V144.938H285.062V138.75H295.125V133.375H303.062V138.75H313ZM299.125 146.812C306.375 146.812 311.5 150.812 311.562 156.75C311.5 162.625 306.375 166.625 299.125 166.625C292 166.625 286.812 162.625 286.812 156.75C286.812 150.812 292 146.812 299.125 146.812ZM299.125 152.562C296 152.562 293.938 154.125 293.938 156.75C293.938 159.375 296 161 299.125 160.938C302.25 161 304.312 159.375 304.375 156.75C304.312 154.125 302.25 152.562 299.125 152.562ZM314.812 169.062C327.125 169.062 334.5 172.812 334.562 179.438C334.5 186 327.125 189.75 314.812 189.75C302.562 189.75 295.125 186 295.125 179.438C295.125 172.812 302.562 169.062 314.812 169.062ZM314.812 175.062C307.125 175.062 303.062 176.438 303.125 179.438C303.062 182.312 307.125 183.75 314.812 183.75C322.562 183.75 326.5 182.312 326.5 179.438C326.5 176.438 322.562 175.062 314.812 175.062ZM361.688 148.375C361.625 157.062 366.25 167.062 375.625 171.375L371.188 177.625C364.844 174.719 360.312 168.906 357.812 162.062C355.25 169.594 350.594 175.969 344 179.062L339.375 172.75C348.875 168.312 353.625 157.75 353.688 148.375V144.875H341.625V138.375H373.125V144.875H361.688V148.375ZM385.562 132.875V154.562H393.938V161.25H385.562V189.75H377.562V132.875H385.562ZM448 155.062V161.312H396V155.062H448ZM441.812 145.688V151.938H402.5V134H441.375V140.375H410.438V145.688H441.812ZM441.562 164.688V179.562H409.875V183.062H443.062V189.25H402.062V173.875H433.688V170.688H402V164.688H441.562Z" fill="#DDB900"/>
<path d="M477.25 133.688C490.312 133.688 497.875 137.125 497.938 143.375C497.875 149.688 490.312 153.125 477.25 153.125C464.125 153.125 456.5 149.688 456.5 143.375C456.5 137.125 464.125 133.688 477.25 133.688ZM477.25 139.5C468.875 139.5 464.812 140.875 464.875 143.375C464.812 146.188 468.875 147.25 477.25 147.25C485.688 147.25 489.688 146.188 489.688 143.375C489.688 140.875 485.688 139.5 477.25 139.5ZM503.188 155.812V162.125H451.312V155.812H503.188ZM496.875 165.438V179.938H465.188V183.375H498.375V189.375H457.375V174.375H489V171.25H457.312V165.438H496.875ZM539.938 135.25C548.625 135.188 554.938 140.125 554.938 147.312C554.938 154.438 548.625 159.438 539.938 159.375C531.25 159.438 524.938 154.438 525 147.312C524.938 140.125 531.25 135.188 539.938 135.25ZM539.938 141.625C535.688 141.625 532.688 143.688 532.688 147.312C532.688 150.875 535.688 152.938 539.938 152.875C544.312 152.938 547.375 150.875 547.375 147.312C547.375 143.688 544.312 141.625 539.938 141.625ZM569.312 132.938V189.75H561.438V132.938H569.312ZM521.5 162.875C531.562 162.875 545.875 162.625 558 160.812L558.5 166.688C553.812 167.625 549 168.219 544.25 168.562V188.062H536.312V169.062C531.312 169.281 526.594 169.312 522.5 169.375L521.5 162.875ZM621.812 132.938V150.375H629.5V156.875H621.812V175.375H613.812V132.938H621.812ZM610.438 138.875V145.188H576.688V138.875H589.625V132.812H597.562V138.875H610.438ZM593.562 147.188C601.812 147.188 607.562 151.625 607.562 158.188C607.562 164.75 601.812 169.062 593.562 169.062C585.25 169.062 579.438 164.75 579.438 158.188C579.438 151.625 585.25 147.188 593.562 147.188ZM593.562 153.25C589.75 153.312 587.188 155.062 587.25 158.188C587.188 161.312 589.75 163 593.562 163C597.375 163 600 161.312 600 158.188C600 155.062 597.375 153.312 593.562 153.25ZM623.875 182.375V188.75H584.938V172.125H592.875V182.375H623.875ZM156.562 238.188V244.438H104.562V238.188H126.562V234.688H111.062V210.25H150.5V216.375H119.062V219.562H149.188V225.312H119.062V228.562H151V234.688H134.562V238.188H156.562ZM130.562 247.062C143.125 247 150.312 250.375 150.375 256.375C150.312 262.5 143.125 265.75 130.562 265.75C117.812 265.75 110.625 262.5 110.625 256.375C110.625 250.375 117.812 247 130.562 247.062ZM130.562 252.938C122.375 252.938 118.562 254 118.625 256.375C118.562 258.812 122.375 259.875 130.562 259.875C138.562 259.875 142.312 258.812 142.375 256.375C142.312 254 138.562 252.938 130.562 252.938ZM205.125 208.875V222.562H212.812V229.188H205.125V242.188H197.125V208.875H205.125ZM175.812 244.375V248.688H197.125V244.375H205.125V265.125H167.875V244.375H175.812ZM175.812 258.875H197.125V254.812H175.812V258.875ZM193.75 213.875V220.125H160V213.875H172.938V208.5H180.875V213.875H193.75ZM176.875 221.75C185.125 221.75 190.875 225.75 190.875 231.812C190.875 237.875 185.125 241.875 176.875 241.875C168.5 241.875 162.75 237.875 162.75 231.812C162.75 225.75 168.5 221.75 176.875 221.75ZM176.875 227.625C173.062 227.562 170.5 229.125 170.562 231.812C170.5 234.562 173.062 236.062 176.875 236.062C180.688 236.062 183.312 234.562 183.312 231.812C183.312 229.125 180.688 227.562 176.875 227.625ZM259.25 214.312C259.188 231.812 254.5 246.5 234 257.125L229.625 251.125C238.625 246.375 244.219 241.094 247.5 234.812L231 236.312L229.938 229.562L250 228.375C250.656 225.969 251.062 223.406 251.312 220.688H233V214.312H259.25ZM278 208.875V265.75H270.062V237.25H259.125V230.75H270.062V208.875H278ZM337.375 240.625V247H325.625V265.875H317.625V247H305.375V265.875H297.375V247H285.312V240.625H337.375ZM331.125 211.562V234.5H291.438V211.562H331.125ZM299.312 217.875V228.125H323.188V217.875H299.312ZM388.5 208.875V265.75H380.562V208.875H388.5ZM351.625 214.312V244.875C359.312 244.781 367.562 244.062 375.938 242.438L376.938 249C366.938 251.062 357.562 251.75 348.75 251.688H343.75V214.312H351.625ZM428.062 213.562V220.062H407V229.438H425.688V235.688H407V246.438C415.719 246.375 422.688 246.062 430.625 244.812L431.375 251.25C422.438 252.562 414.25 252.812 404 252.812H399.125V213.562H428.062ZM443.812 208.875V265.75H435.75V208.875H443.812ZM513.312 210.438V216.375H505.875V223.875H512.938V229.812H471V223.875H478V216.375H470.625V210.438H513.312ZM517.938 232.812V239.062H466.062V232.812H517.938ZM511.625 242.312V256.375H479.938V259.5H513.125V265.375H472.125V250.938H503.75V248.062H472.062V242.312H511.625ZM486 223.875H497.875V216.375H486V223.875ZM570.25 208.938V247.125H562.688V229.125H557.75V242.438H550.312V209.938H557.75V222.688H562.688V208.938H570.25ZM545.312 212.812V230.125H531.375V235.688C537.594 235.656 542.219 235.312 547.625 234.25L548.312 240.5C541.75 241.812 536.188 242 527.625 242H523.688V224.375H537.625V219.188H523.625V212.812H545.312ZM554.5 245.625C554.438 251.625 560.625 257.812 572.875 259.312L569.688 265.5C560.625 264.219 554 260.375 550.562 255.062C547 260.375 540.375 264.219 531.375 265.5L528.188 259.312C540.375 257.812 546.5 251.625 546.5 245.625V244.625H554.5V245.625ZM628.562 236.438V242.75H576.688V236.438H598.562V231.875H581.625V225.5H588.625V216.812H581.25V210.438H623.938V216.812H616.5V225.5H623.562V231.875H606.562V236.438H628.562ZM622.375 246.625V265.125H582.688V246.625H622.375ZM590.562 252.875V258.75H614.562V252.875H590.562ZM596.625 225.5H608.5V216.812H596.625V225.5Z" fill="black"/>
<path d="M699.37 163.45L699.54 145.02L708 142.43L717.75 159.16L699.37 163.45Z" fill="#C62828"/>
<path opacity="0.59" d="M704.76 157.48C704.76 157.48 702.16 145.59 705.1 144.41C710.33 142.32 714.41 156.06 714.41 156.06L704.76 157.48Z" fill="#37474F"/>
<path d="M688.59 169.81C688.5 168.18 686.3 155.18 689.64 147.93C691.17 144.62 697.45 142.42 703.07 141.17C704.46 140.86 708.05 140.66 710.28 143.22C712.29 145.53 715.26 150.59 718.19 158.22L716.08 162.76C716.08 162.76 713.17 155.06 710.26 148.7C707.85 143.43 704.79 145.18 704.48 146.41C703.92 148.67 706.78 160.92 706.78 160.92C702.62 162.69 688.59 169.81 688.59 169.81Z" fill="#F47C36"/>
<path d="M710.36 154.37L712.11 145.87L719 141.88L727.29 141.9L734.19 147.49L736.1 158.39L727.77 155.58L726.64 147.77L719 147.58L717.98 153.79L710.36 154.37Z" fill="#455A64"/>
<path d="M703.06 141.18C697.44 142.42 691.79 144.21 689.63 147.94C688.39 150.08 687.67 155.69 687.81 160.9C688.9 159.18 693.35 156.21 696.67 154.77C699.98 153.33 700.36 151.9 700.41 151.27C700.66 148.41 700.42 146.05 701.26 144.03C702.32 141.47 703.83 141.15 704.71 141.02C704.04 141.02 703.45 141.09 703.06 141.18ZM707.59 141.46C707.05 141.27 706.51 141.15 705.99 141.09C706.53 141.23 707.06 141.41 707.59 141.46Z" fill="#FFB055"/>
<path d="M757.99 246.24C772.87 242.29 777.31 225.48 781.53 224.07" stroke="#784D30" stroke-width="0.5" stroke-miterlimit="10"/>
<path d="M772.48 211.9C773.57 218.99 775.71 219.52 779.44 219.33C785.09 219.05 785.71 217.75 786.97 208.07C788.53 196.05 784.02 179.3 780.13 167.82C778.07 161.74 778.28 157.57 773.69 152.93C771.17 150.38 761.36 146.63 758.51 151.51C756.55 154.87 757.53 158.28 759.4 160.98C764.83 168.84 769.83 194.75 772.48 211.9Z" fill="#C64D28"/>
<path opacity="0.59" d="M761.06 163.91C762.1 166.04 763.17 168.8 764.04 171.91C772.9 171.64 782.5 175.89 782.5 175.63C782.5 175.41 781.75 169.64 779.31 163.92C778.25 161.44 775.02 154.64 771.02 155.3C765.99 156.14 761.06 163.91 761.06 163.91Z" fill="#37474F"/>
<path d="M753.95 176.19C756.56 170.61 766.21 156.41 771.76 155.95C774.51 155.72 777.6 161.41 778.73 164.52C781.9 173.25 785.35 186.95 786.36 201.25C786.99 210.17 785.36 217.27 782 220.22C794.88 217.81 789.85 189.7 788.76 183.88C785.09 164.39 780.28 157.04 776.59 153.11C773.77 150.11 761.49 143.76 755.01 144.06C750.02 144.29 739.1 153.62 736.12 158.79C735.24 160.31 753.95 176.19 753.95 176.19Z" fill="#F48236"/>
<path d="M736.66 260.73C753.56 259.39 764.25 249.89 765.37 240.88C769.23 209.74 761.6 164.71 731.21 155.98C727.82 155.01 721.86 153.73 716.68 153.73C710.65 153.73 701.35 155 694.67 159.58C682.49 167.94 679.24 179.84 678.44 185.74C675.49 207.37 715.4 262.42 736.66 260.73Z" fill="#FFAD55"/>
<path d="M765.37 240.88C767.38 224.68 766.28 204.73 760.48 188.07C757.46 184.17 754.1 182.34 751.32 183.24C747.98 184.32 745.05 188.77 746.11 193.25C746.11 193.25 754.2 225.71 748.7 246.24C745.06 259.83 735.47 260.76 735.47 260.76C735.87 260.76 736.27 260.76 736.66 260.73C753.57 259.39 764.25 249.89 765.37 240.88Z" fill="#C66228"/>
<path d="M686.62 257.38C691.72 258.99 705.13 261 728.88 261C750.21 261 750.06 253.41 751.82 244.5C755.44 226.12 750.48 166.24 713.33 164.95C680.84 163.81 677.59 182.89 675.14 203.61C672.58 225.28 673.18 233.39 674.42 242.22C676.03 253.76 683.11 256.27 686.62 257.38Z" fill="#F49B36"/>
<path d="M758.05 196.81C757.19 192.29 755.97 187.32 753.96 182.47L751.54 182.58C753.35 186.69 754.85 191.52 755.93 197.21C759.38 215.44 759.78 227.66 759.6 234.29C759.49 238.27 761.68 238.29 761.79 234.04C761.96 227.23 761.5 215.05 758.05 196.81Z" fill="#37474F"/>
<path d="M760.53 232.21C759.943 232.413 759.447 232.818 759.13 233.353C758.813 233.888 758.696 234.517 758.8 235.13L760.1 242.67C760.149 243.016 760.28 243.345 760.482 243.63C760.684 243.915 760.952 244.147 761.262 244.308C761.572 244.468 761.916 244.552 762.266 244.553C762.615 244.553 762.959 244.47 763.27 244.31L766.89 242.46C768.07 241.86 768.45 240.35 767.7 239.26L763.53 233.2C763.206 232.731 762.737 232.381 762.196 232.202C761.655 232.023 761.07 232.026 760.53 232.21Z" fill="#E2A610"/>
<path d="M762.23 242.83C762.05 242.5 761.09 237.36 760.8 235.02C760.48 232.39 761.61 232.24 761.78 232.1C761.369 232.035 760.949 232.069 760.553 232.199C760.158 232.329 759.8 232.552 759.508 232.848C759.215 233.144 758.998 233.505 758.873 233.902C758.748 234.299 758.72 234.72 758.79 235.13L760.09 242.67C760.24 243.7 761.05 244.42 761.98 244.54C762.4 244.59 762.84 244.53 763.26 244.31L764.1 243.88C764.06 243.87 762.82 243.91 762.23 242.83Z" fill="#FFCA28"/>
<path d="M787.95 229.13L778.61 229.96C777.75 230.04 776.98 229.4 776.91 228.53L776.2 220.6C776.12 219.74 776.76 218.97 777.63 218.9L786.97 218.07C787.83 217.99 788.6 218.63 788.67 219.5L789.38 227.43C789.45 228.29 788.81 229.05 787.95 229.13Z" fill="#546E7A"/>
<path d="M785.41 229.43L776.57 230.22C775.71 230.3 774.94 229.66 774.87 228.79L774.15 220.7C774.07 219.84 774.71 219.07 775.58 219L784.42 218.21C785.28 218.13 786.05 218.77 786.12 219.64L786.84 227.73C786.91 228.59 786.27 229.35 785.41 229.43Z" fill="#37474F"/>
<path d="M779.28 238.56L776.57 224.28C776.52 224.04 776.69 223.81 776.94 223.79L784.07 223.07C784.27 223.05 784.46 223.18 784.51 223.38L788.03 236.56C788.26 237.42 787.73 238.31 786.86 238.51L781.18 239.81C780.31 240 779.44 239.44 779.28 238.56Z" fill="#A06841"/>
<path opacity="0.65" d="M717.47 195.81L702.04 195.35C700.69 195.35 699.59 194.25 699.59 192.9L699.8 184.96C699.8 183.63 700.86 182.54 702.19 182.51L717.45 182.92C717.773 182.911 718.095 182.966 718.397 183.082C718.699 183.198 718.975 183.373 719.209 183.596C719.443 183.819 719.631 184.086 719.762 184.382C719.892 184.678 719.963 184.997 719.97 185.32L719.94 193.31C719.95 194.68 718.85 195.81 717.47 195.81Z" fill="#FFF59D"/>
<path d="M755.01 144.05C751.23 144.17 743.92 149.67 739.43 154.54C741.75 154.35 747.24 156.92 751.8 160.44C752.71 161.14 754.95 161.01 756.41 159.44C757.74 158.01 758.99 156.91 760.33 155.49C768.19 147.16 774.37 151.29 774.37 151.29C767.87 147.06 759.95 143.9 755.01 144.05Z" fill="#FFB355"/>
<path d="M754.27 183.23C749.34 170.91 739.39 159.06 717.65 157.1C702.55 155.74 692.38 162.75 688.24 165.29C687.32 165.85 686.29 166.55 685.59 167.51C684.7 168.73 684.58 169.73 684.58 169.73C684.58 169.73 697.68 157.5 717.45 159.25C728.75 160.25 743.59 164.02 751.76 183.12C752.45 182.95 753.38 183.05 754.27 183.23Z" fill="#546E7A"/>
<path d="M737.35 251.25C737.35 251.25 721.37 252.36 703.4 251.38C693.93 250.86 686.99 249.5 685.58 247.67C683.84 245.41 681.78 243.22 681.78 231.6C681.78 223.77 684.67 217.46 690.27 217.32C694.55 217.21 739.48 216.72 736.09 216.72C732.7 216.72 729.64 224.15 729.95 232.16C730.71 251.79 737.35 251.25 737.35 251.25Z" fill="#FFCF55"/>
<path d="M721.67 231.6C722.02 231.5 725.2 231.78 727.74 230.01C728.7 229.34 729.46 228.78 730.07 228.14C730.66 222.14 733.02 217.25 735.66 216.77C735.75 216.75 735.84 216.73 735.92 216.72C732 216.8 699.95 215.62 689.94 215.77C685.3 215.84 681.72 221.3 682.04 227.72C682.71 228.91 683.79 230.19 685.44 230.44C688.68 230.93 721.32 231.71 721.67 231.6Z" fill="#FF7555"/>
<path opacity="0.45" d="M721.67 231.6C722.02 231.5 725.2 231.78 727.74 230.01C728.7 229.34 729.46 228.78 730.07 228.14C730.66 222.14 733.02 217.25 735.66 216.77C735.75 216.75 735.84 216.73 735.92 216.72C732 216.8 699.95 215.62 689.94 215.77C685.3 215.84 681.72 221.3 682.04 227.72C682.71 228.91 683.79 230.19 685.44 230.44C688.68 230.93 721.32 231.71 721.67 231.6Z" fill="#FFFC9D"/>
<path d="M742.42 226.7C742.08 221.48 740.85 219 739.73 217.82C738.7 216.72 737.09 216.63 734.8 216.74C733.38 216.81 730.79 218.17 729.7 226.2V226.19C728.84 228.14 726.59 230.08 722.86 230.08L687.11 228.92C683.53 228.69 682.22 225.27 682.05 224.96C682.05 224.96 681.53 227.37 682.02 228.9C682.64 230.82 684.92 231.96 687.11 231.96L722.86 233.12C725.71 233.12 727.88 231.99 729.28 230.94C729.22 232.18 729.19 233.53 729.19 234.99C729.19 250.35 733.62 251.51 736.45 251.38C739.28 251.24 742.05 250.16 742.5 247.65C743.14 244.14 743.07 236.76 742.42 226.7Z" fill="#C68928"/>
<path d="M475.178 104.231C474.896 103.948 474.738 103.566 474.738 103.167C474.738 102.768 474.896 102.386 475.178 102.104L477.968 99.3135C478.108 99.1738 478.274 99.0631 478.456 98.9876C478.639 98.9121 478.835 98.8733 479.033 98.8734C479.23 98.8736 479.426 98.9126 479.608 98.9884C479.791 99.0642 479.957 99.1751 480.096 99.315C480.236 99.4549 480.347 99.6209 480.422 99.8035C480.498 99.9862 480.537 100.182 480.537 100.38C480.536 100.577 480.497 100.773 480.422 100.955C480.346 101.138 480.235 101.304 480.095 101.444L477.305 104.231C477.023 104.512 476.64 104.671 476.241 104.671C475.843 104.671 475.46 104.512 475.178 104.231Z" fill="url(#paint1_radial_387_49718)"/>
<path d="M475.178 104.231C474.896 103.948 474.738 103.566 474.738 103.167C474.738 102.768 474.896 102.386 475.178 102.104L477.968 99.3135C478.108 99.1738 478.274 99.0631 478.456 98.9876C478.639 98.9121 478.835 98.8733 479.033 98.8734C479.23 98.8736 479.426 98.9126 479.608 98.9884C479.791 99.0642 479.957 99.1751 480.096 99.315C480.236 99.4549 480.347 99.6209 480.422 99.8035C480.498 99.9862 480.537 100.182 480.537 100.38C480.536 100.577 480.497 100.773 480.422 100.955C480.346 101.138 480.235 101.304 480.095 101.444L477.305 104.231C477.023 104.512 476.64 104.671 476.241 104.671C475.843 104.671 475.46 104.512 475.178 104.231Z" fill="url(#paint2_linear_387_49718)"/>
<path d="M475.178 104.231C474.896 103.948 474.738 103.566 474.738 103.167C474.738 102.768 474.896 102.386 475.178 102.104L477.968 99.3135C478.108 99.1738 478.274 99.0631 478.456 98.9876C478.639 98.9121 478.835 98.8733 479.033 98.8734C479.23 98.8736 479.426 98.9126 479.608 98.9884C479.791 99.0642 479.957 99.1751 480.096 99.315C480.236 99.4549 480.347 99.6209 480.422 99.8035C480.498 99.9862 480.537 100.182 480.537 100.38C480.536 100.577 480.497 100.773 480.422 100.955C480.346 101.138 480.235 101.304 480.095 101.444L477.305 104.231C477.023 104.512 476.64 104.671 476.241 104.671C475.843 104.671 475.46 104.512 475.178 104.231Z" fill="url(#paint3_linear_387_49718)"/>
<path d="M455.69 84.75C455.55 84.6103 455.439 84.4444 455.364 84.2618C455.288 84.0792 455.249 83.8834 455.249 83.6857C455.249 83.4881 455.288 83.2923 455.364 83.1097C455.439 82.9271 455.55 82.7612 455.69 82.6215L458.478 79.833C458.761 79.5509 459.143 79.3926 459.542 79.3927C459.942 79.3928 460.324 79.5515 460.606 79.8337C460.888 80.116 461.047 80.4987 461.047 80.8978C461.046 81.2968 460.888 81.6794 460.605 81.9615L457.82 84.7485C457.68 84.8883 457.514 84.9992 457.332 85.0749C457.149 85.1506 456.953 85.1896 456.756 85.1896C456.558 85.1896 456.362 85.1506 456.18 85.0749C455.997 84.9992 455.831 84.8883 455.691 84.7485" fill="url(#paint4_radial_387_49718)"/>
<path d="M455.69 84.75C455.55 84.6103 455.439 84.4444 455.364 84.2618C455.288 84.0792 455.249 83.8834 455.249 83.6857C455.249 83.4881 455.288 83.2923 455.364 83.1097C455.439 82.9271 455.55 82.7612 455.69 82.6215L458.478 79.833C458.761 79.5509 459.143 79.3926 459.542 79.3927C459.942 79.3928 460.324 79.5515 460.606 79.8337C460.888 80.116 461.047 80.4987 461.047 80.8978C461.046 81.2968 460.888 81.6794 460.605 81.9615L457.82 84.7485C457.68 84.8883 457.514 84.9992 457.332 85.0749C457.149 85.1506 456.953 85.1896 456.756 85.1896C456.558 85.1896 456.362 85.1506 456.18 85.0749C455.997 84.9992 455.831 84.8883 455.691 84.7485" fill="url(#paint5_linear_387_49718)"/>
<path d="M455.69 84.75C455.55 84.6103 455.439 84.4444 455.364 84.2618C455.288 84.0792 455.249 83.8834 455.249 83.6857C455.249 83.4881 455.288 83.2923 455.364 83.1097C455.439 82.9271 455.55 82.7612 455.69 82.6215L458.478 79.833C458.761 79.5509 459.143 79.3926 459.542 79.3927C459.942 79.3928 460.324 79.5515 460.606 79.8337C460.888 80.116 461.047 80.4987 461.047 80.8978C461.046 81.2968 460.888 81.6794 460.605 81.9615L457.82 84.7485C457.68 84.8883 457.514 84.9992 457.332 85.0749C457.149 85.1506 456.953 85.1896 456.756 85.1896C456.558 85.1896 456.362 85.1506 456.18 85.0749C455.997 84.9992 455.831 84.8883 455.691 84.7485" fill="url(#paint6_linear_387_49718)"/>
<g filter="url(#filter0_ii_387_49718)">
<path d="M462.901 93.87L447.446 85.395C446.837 85.0599 446.37 84.5164 446.13 83.8643C445.89 83.2123 445.893 82.4956 446.139 81.8457C446.385 81.1958 446.857 80.6564 447.468 80.3267C448.08 79.9969 448.79 79.8988 449.468 80.0505L468.971 84.4455L462.901 93.87Z" fill="#4282DA"/>
<path d="M462.901 93.87L447.446 85.395C446.837 85.0599 446.37 84.5164 446.13 83.8643C445.89 83.2123 445.893 82.4956 446.139 81.8457C446.385 81.1958 446.857 80.6564 447.468 80.3267C448.08 79.9969 448.79 79.8988 449.468 80.0505L468.971 84.4455L462.901 93.87Z" fill="url(#paint7_linear_387_49718)"/>
</g>
<g filter="url(#filter1_ii_387_49718)">
<path d="M466.064 97.035L474.536 112.486C474.871 113.096 475.414 113.564 476.066 113.805C476.719 114.046 477.436 114.044 478.086 113.798C478.737 113.552 479.277 113.079 479.607 112.467C479.936 111.855 480.034 111.144 479.882 110.466L475.487 90.963L466.064 97.035Z" fill="#4282DA"/>
<path d="M466.064 97.035L474.536 112.486C474.871 113.096 475.414 113.564 476.066 113.805C476.719 114.046 477.436 114.044 478.086 113.798C478.737 113.552 479.277 113.079 479.607 112.467C479.936 111.855 480.034 111.144 479.882 110.466L475.487 90.963L466.064 97.035Z" fill="url(#paint8_linear_387_49718)"/>
</g>
<g filter="url(#filter2_ii_387_49718)">
<path d="M449.07 103.054C449.284 103.114 449.51 103.113 449.723 103.053C449.936 102.992 450.128 102.873 450.278 102.709L471.083 80.0355C471.658 79.4151 472.353 78.9173 473.125 78.5719C473.898 78.2264 474.732 78.0405 475.578 78.0252C476.424 78.0099 477.264 78.1656 478.048 78.4829C478.833 78.8002 479.545 79.2726 480.142 79.8718C480.74 80.471 481.21 81.1846 481.525 81.9699C481.84 82.7552 481.993 83.596 481.975 84.4418C481.957 85.2877 481.769 86.1213 481.421 86.8926C481.073 87.6639 480.573 88.3571 479.951 88.9305L457.1 109.77C456.934 109.922 456.813 110.117 456.752 110.333C456.692 110.55 456.693 110.78 456.756 110.995L458.714 117.672C458.814 118.013 458.798 118.378 458.667 118.708C458.537 119.039 458.301 119.317 457.995 119.499C457.689 119.68 457.332 119.754 456.979 119.71C456.626 119.666 456.298 119.506 456.047 119.254L440.607 103.836C440.296 103.524 440.113 103.107 440.095 102.666C440.077 102.225 440.226 101.794 440.511 101.458C440.675 101.267 440.889 101.127 441.129 101.053C441.369 100.98 441.625 100.976 441.867 101.043L449.07 103.054Z" fill="url(#paint9_linear_387_49718)"/>
</g>
<path d="M449.07 103.054C449.284 103.114 449.51 103.113 449.723 103.053C449.936 102.992 450.128 102.873 450.278 102.709L471.083 80.0355C471.658 79.4151 472.353 78.9173 473.125 78.5719C473.898 78.2264 474.732 78.0405 475.578 78.0252C476.424 78.0099 477.264 78.1656 478.048 78.4829C478.833 78.8002 479.545 79.2726 480.142 79.8718C480.74 80.471 481.21 81.1846 481.525 81.9699C481.84 82.7552 481.993 83.596 481.975 84.4418C481.957 85.2877 481.769 86.1213 481.421 86.8926C481.073 87.6639 480.573 88.3571 479.951 88.9305L457.1 109.77C456.934 109.922 456.813 110.117 456.752 110.333C456.692 110.55 456.693 110.78 456.756 110.995L458.714 117.672C458.814 118.013 458.798 118.378 458.667 118.708C458.537 119.039 458.301 119.317 457.995 119.499C457.689 119.68 457.332 119.754 456.979 119.71C456.626 119.666 456.298 119.506 456.047 119.254L440.607 103.836C440.296 103.524 440.113 103.107 440.095 102.666C440.077 102.225 440.226 101.794 440.511 101.458C440.675 101.267 440.889 101.127 441.129 101.053C441.369 100.98 441.625 100.976 441.867 101.043L449.07 103.054Z" fill="url(#paint10_linear_387_49718)"/>
<path d="M449.07 103.054C449.284 103.114 449.51 103.113 449.723 103.053C449.936 102.992 450.128 102.873 450.278 102.709L471.083 80.0355C471.658 79.4151 472.353 78.9173 473.125 78.5719C473.898 78.2264 474.732 78.0405 475.578 78.0252C476.424 78.0099 477.264 78.1656 478.048 78.4829C478.833 78.8002 479.545 79.2726 480.142 79.8718C480.74 80.471 481.21 81.1846 481.525 81.9699C481.84 82.7552 481.993 83.596 481.975 84.4418C481.957 85.2877 481.769 86.1213 481.421 86.8926C481.073 87.6639 480.573 88.3571 479.951 88.9305L457.1 109.77C456.934 109.922 456.813 110.117 456.752 110.333C456.692 110.55 456.693 110.78 456.756 110.995L458.714 117.672C458.814 118.013 458.798 118.378 458.667 118.708C458.537 119.039 458.301 119.317 457.995 119.499C457.689 119.68 457.332 119.754 456.979 119.71C456.626 119.666 456.298 119.506 456.047 119.254L440.607 103.836C440.296 103.524 440.113 103.107 440.095 102.666C440.077 102.225 440.226 101.794 440.511 101.458C440.675 101.267 440.889 101.127 441.129 101.053C441.369 100.98 441.625 100.976 441.867 101.043L449.07 103.054Z" fill="url(#paint11_radial_387_49718)"/>
<path d="M449.07 103.054C449.284 103.114 449.51 103.113 449.723 103.053C449.936 102.992 450.128 102.873 450.278 102.709L471.083 80.0355C471.658 79.4151 472.353 78.9173 473.125 78.5719C473.898 78.2264 474.732 78.0405 475.578 78.0252C476.424 78.0099 477.264 78.1656 478.048 78.4829C478.833 78.8002 479.545 79.2726 480.142 79.8718C480.74 80.471 481.21 81.1846 481.525 81.9699C481.84 82.7552 481.993 83.596 481.975 84.4418C481.957 85.2877 481.769 86.1213 481.421 86.8926C481.073 87.6639 480.573 88.3571 479.951 88.9305L457.1 109.77C456.934 109.922 456.813 110.117 456.752 110.333C456.692 110.55 456.693 110.78 456.756 110.995L458.714 117.672C458.814 118.013 458.798 118.378 458.667 118.708C458.537 119.039 458.301 119.317 457.995 119.499C457.689 119.68 457.332 119.754 456.979 119.71C456.626 119.666 456.298 119.506 456.047 119.254L440.607 103.836C440.296 103.524 440.113 103.107 440.095 102.666C440.077 102.225 440.226 101.794 440.511 101.458C440.675 101.267 440.889 101.127 441.129 101.053C441.369 100.98 441.625 100.976 441.867 101.043L449.07 103.054Z" fill="url(#paint12_radial_387_49718)"/>
<path d="M449.07 103.054C449.284 103.114 449.51 103.113 449.723 103.053C449.936 102.992 450.128 102.873 450.278 102.709L471.083 80.0355C471.658 79.4151 472.353 78.9173 473.125 78.5719C473.898 78.2264 474.732 78.0405 475.578 78.0252C476.424 78.0099 477.264 78.1656 478.048 78.4829C478.833 78.8002 479.545 79.2726 480.142 79.8718C480.74 80.471 481.21 81.1846 481.525 81.9699C481.84 82.7552 481.993 83.596 481.975 84.4418C481.957 85.2877 481.769 86.1213 481.421 86.8926C481.073 87.6639 480.573 88.3571 479.951 88.9305L457.1 109.77C456.934 109.922 456.813 110.117 456.752 110.333C456.692 110.55 456.693 110.78 456.756 110.995L458.714 117.672C458.814 118.013 458.798 118.378 458.667 118.708C458.537 119.039 458.301 119.317 457.995 119.499C457.689 119.68 457.332 119.754 456.979 119.71C456.626 119.666 456.298 119.506 456.047 119.254L440.607 103.836C440.296 103.524 440.113 103.107 440.095 102.666C440.077 102.225 440.226 101.794 440.511 101.458C440.675 101.267 440.889 101.127 441.129 101.053C441.369 100.98 441.625 100.976 441.867 101.043L449.07 103.054Z" fill="url(#paint13_radial_387_49718)"/>
<path d="M449.07 103.054C449.284 103.114 449.51 103.113 449.723 103.053C449.936 102.992 450.128 102.873 450.278 102.709L471.083 80.0355C471.658 79.4151 472.353 78.9173 473.125 78.5719C473.898 78.2264 474.732 78.0405 475.578 78.0252C476.424 78.0099 477.264 78.1656 478.048 78.4829C478.833 78.8002 479.545 79.2726 480.142 79.8718C480.74 80.471 481.21 81.1846 481.525 81.9699C481.84 82.7552 481.993 83.596 481.975 84.4418C481.957 85.2877 481.769 86.1213 481.421 86.8926C481.073 87.6639 480.573 88.3571 479.951 88.9305L457.1 109.77C456.934 109.922 456.813 110.117 456.752 110.333C456.692 110.55 456.693 110.78 456.756 110.995L458.714 117.672C458.814 118.013 458.798 118.378 458.667 118.708C458.537 119.039 458.301 119.317 457.995 119.499C457.689 119.68 457.332 119.754 456.979 119.71C456.626 119.666 456.298 119.506 456.047 119.254L440.607 103.836C440.296 103.524 440.113 103.107 440.095 102.666C440.077 102.225 440.226 101.794 440.511 101.458C440.675 101.267 440.889 101.127 441.129 101.053C441.369 100.98 441.625 100.976 441.867 101.043L449.07 103.054Z" fill="url(#paint14_radial_387_49718)"/>
<g filter="url(#filter3_i_387_49718)">
<path d="M478.961 83.852L476.046 80.9373C475.725 80.6163 475.205 80.6163 474.884 80.9373C474.563 81.2583 474.563 81.7788 474.884 82.0998L477.798 85.0145C478.119 85.3355 478.64 85.3355 478.961 85.0145C479.282 84.6935 479.282 84.173 478.961 83.852Z" fill="#48DBFF"/>
</g>
<path d="M450.639 106.736L445.16 112.216C444.473 112.902 444.473 114.015 445.16 114.702C445.847 115.389 446.96 115.389 447.646 114.702L453.126 109.223C453.812 108.536 453.812 107.423 453.126 106.736C452.439 106.05 451.326 106.05 450.639 106.736Z" fill="url(#paint15_radial_387_49718)"/>
<path d="M450.639 106.736L445.16 112.216C444.473 112.902 444.473 114.015 445.16 114.702C445.847 115.389 446.96 115.389 447.646 114.702L453.126 109.223C453.812 108.536 453.812 107.423 453.126 106.736C452.439 106.05 451.326 106.05 450.639 106.736Z" fill="url(#paint16_linear_387_49718)"/>
<path d="M450.639 106.736L445.16 112.216C444.473 112.902 444.473 114.015 445.16 114.702C445.847 115.389 446.96 115.389 447.646 114.702L453.126 109.223C453.812 108.536 453.812 107.423 453.126 106.736C452.439 106.05 451.326 106.05 450.639 106.736Z" fill="url(#paint17_radial_387_49718)"/>
<g filter="url(#filter4_f_387_49718)">
<path d="M442.088 102.378L449.729 104.721" stroke="#B3ADB8" stroke-width="2" stroke-linecap="round"/>
</g>
<g filter="url(#filter5_f_387_49718)">
<path d="M455.213 109.971L457.792 117.94" stroke="#D1C7DB" stroke-width="2" stroke-linecap="round"/>
</g>
</g>
<defs>
<filter id="filter0_ii_387_49718" x="445.952" y="78.7809" width="23.6189" height="16.0891" filterUnits="userSpaceOnUse" color-interpolation-filters="sRGB">
<feFlood flood-opacity="0" result="BackgroundImageFix"/>
<feBlend mode="normal" in="SourceGraphic" in2="BackgroundImageFix" result="shape"/>
<feColorMatrix in="SourceAlpha" type="matrix" values="0 0 0 0 0 0 0 0 0 0 0 0 0 0 0 0 0 0 127 0" result="hardAlpha"/>
<feOffset dy="1"/>
<feGaussianBlur stdDeviation="0.75"/>
<feComposite in2="hardAlpha" operator="arithmetic" k2="-1" k3="1"/>
<feColorMatrix type="matrix" values="0 0 0 0 0.258824 0 0 0 0 0.619608 0 0 0 0 0.901961 0 0 0 1 0"/>
<feBlend mode="normal" in2="shape" result="effect1_innerShadow_387_49718"/>
<feColorMatrix in="SourceAlpha" type="matrix" values="0 0 0 0 0 0 0 0 0 0 0 0 0 0 0 0 0 0 127 0" result="hardAlpha"/>
<feOffset dx="0.6" dy="-1.2"/>
<feGaussianBlur stdDeviation="0.75"/>
<feComposite in2="hardAlpha" operator="arithmetic" k2="-1" k3="1"/>
<feColorMatrix type="matrix" values="0 0 0 0 0.270588 0 0 0 0 0.352941 0 0 0 0 0.752941 0 0 0 1 0"/>
<feBlend mode="normal" in2="effect1_innerShadow_387_49718" result="effect2_innerShadow_387_49718"/>
</filter>
<filter id="filter1_ii_387_49718" x="466.064" y="89.763" width="14.4881" height="26.2211" filterUnits="userSpaceOnUse" color-interpolation-filters="sRGB">
<feFlood flood-opacity="0" result="BackgroundImageFix"/>
<feBlend mode="normal" in="SourceGraphic" in2="BackgroundImageFix" result="shape"/>
<feColorMatrix in="SourceAlpha" type="matrix" values="0 0 0 0 0 0 0 0 0 0 0 0 0 0 0 0 0 0 127 0" result="hardAlpha"/>
<feOffset dy="2"/>
<feGaussianBlur stdDeviation="1.25"/>
<feComposite in2="hardAlpha" operator="arithmetic" k2="-1" k3="1"/>
<feColorMatrix type="matrix" values="0 0 0 0 0.34902 0 0 0 0 0.784314 0 0 0 0 1 0 0 0 1 0"/>
<feBlend mode="normal" in2="shape" result="effect1_innerShadow_387_49718"/>
<feColorMatrix in="SourceAlpha" type="matrix" values="0 0 0 0 0 0 0 0 0 0 0 0 0 0 0 0 0 0 127 0" result="hardAlpha"/>
<feOffset dx="0.6" dy="-1.2"/>
<feGaussianBlur stdDeviation="0.75"/>
<feComposite in2="hardAlpha" operator="arithmetic" k2="-1" k3="1"/>
<feColorMatrix type="matrix" values="0 0 0 0 0.270588 0 0 0 0 0.352941 0 0 0 0 0.752941 0 0 0 1 0"/>
<feBlend mode="normal" in2="effect1_innerShadow_387_49718" result="effect2_innerShadow_387_49718"/>
</filter>
<filter id="filter2_ii_387_49718" x="438.094" y="77.0242" width="45.8827" height="43.6985" filterUnits="userSpaceOnUse" color-interpolation-filters="sRGB">
<feFlood flood-opacity="0" result="BackgroundImageFix"/>
<feBlend mode="normal" in="SourceGraphic" in2="BackgroundImageFix" result="shape"/>
<feColorMatrix in="SourceAlpha" type="matrix" values="0 0 0 0 0 0 0 0 0 0 0 0 0 0 0 0 0 0 127 0" result="hardAlpha"/>
<feOffset dx="2" dy="1"/>
<feGaussianBlur stdDeviation="2"/>
<feComposite in2="hardAlpha" operator="arithmetic" k2="-1" k3="1"/>
<feColorMatrix type="matrix" values="0 0 0 0 0.486275 0 0 0 0 0.482353 0 0 0 0 0.490196 0 0 0 1 0"/>
<feBlend mode="normal" in2="shape" result="effect1_innerShadow_387_49718"/>
<feColorMatrix in="SourceAlpha" type="matrix" values="0 0 0 0 0 0 0 0 0 0 0 0 0 0 0 0 0 0 127 0" result="hardAlpha"/>
<feOffset dx="-2" dy="-1"/>
<feGaussianBlur stdDeviation="2"/>
<feComposite in2="hardAlpha" operator="arithmetic" k2="-1" k3="1"/>
<feColorMatrix type="matrix" values="0 0 0 0 0.760784 0 0 0 0 0.639216 0 0 0 0 0.858824 0 0 0 1 0"/>
<feBlend mode="normal" in2="effect1_innerShadow_387_49718" result="effect2_innerShadow_387_49718"/>
</filter>
<filter id="filter3_i_387_49718" x="473.843" y="80.6965" width="5.35872" height="5.35869" filterUnits="userSpaceOnUse" color-interpolation-filters="sRGB">
<feFlood flood-opacity="0" result="BackgroundImageFix"/>
<feBlend mode="normal" in="SourceGraphic" in2="BackgroundImageFix" result="shape"/>
<feColorMatrix in="SourceAlpha" type="matrix" values="0 0 0 0 0 0 0 0 0 0 0 0 0 0 0 0 0 0 127 0" result="hardAlpha"/>
<feOffset dx="-0.8" dy="0.8"/>
<feGaussianBlur stdDeviation="0.4"/>
<feComposite in2="hardAlpha" operator="arithmetic" k2="-1" k3="1"/>
<feColorMatrix type="matrix" values="0 0 0 0 0.0823529 0 0 0 0 0.447059 0 0 0 0 0.792157 0 0 0 1 0"/>
<feBlend mode="normal" in2="shape" result="effect1_innerShadow_387_49718"/>
</filter>
<filter id="filter4_f_387_49718" x="439.088" y="99.3777" width="13.6415" height="8.34352" filterUnits="userSpaceOnUse" color-interpolation-filters="sRGB">
<feFlood flood-opacity="0" result="BackgroundImageFix"/>
<feBlend mode="normal" in="SourceGraphic" in2="BackgroundImageFix" result="shape"/>
<feGaussianBlur stdDeviation="1" result="effect1_foregroundBlur_387_49718"/>
</filter>
<filter id="filter5_f_387_49718" x="452.213" y="106.971" width="8.57898" height="13.97" filterUnits="userSpaceOnUse" color-interpolation-filters="sRGB">
<feFlood flood-opacity="0" result="BackgroundImageFix"/>
<feBlend mode="normal" in="SourceGraphic" in2="BackgroundImageFix" result="shape"/>
<feGaussianBlur stdDeviation="1" result="effect1_foregroundBlur_387_49718"/>
</filter>
<linearGradient id="paint0_linear_387_49718" x1="671.75" y1="338" x2="671.75" y2="410.874" gradientUnits="userSpaceOnUse">
<stop stop-color="#ABD551"/>
<stop offset="1" stop-color="#FFD700"/>
</linearGradient>
<radialGradient id="paint1_radial_387_49718" cx="0" cy="0" r="1" gradientUnits="userSpaceOnUse" gradientTransform="translate(480.535 99.8973) rotate(135) scale(5.11956 1.94922)">
<stop offset="0.233" stop-color="#86848F"/>
<stop offset="1" stop-color="#5A5C5E"/>
</radialGradient>
<linearGradient id="paint2_linear_387_49718" x1="479.739" y1="101.996" x2="478.979" y2="101.3" gradientUnits="userSpaceOnUse">
<stop stop-color="#7C758F"/>
<stop offset="1" stop-color="#7C758F" stop-opacity="0"/>
</linearGradient>
<linearGradient id="paint3_linear_387_49718" x1="480.534" y1="99.171" x2="479.435" y2="100.343" gradientUnits="userSpaceOnUse">
<stop offset="0.205" stop-color="#B3B2B4"/>
<stop offset="1" stop-color="#B3B2B4" stop-opacity="0"/>
</linearGradient>
<radialGradient id="paint4_radial_387_49718" cx="0" cy="0" r="1" gradientUnits="userSpaceOnUse" gradientTransform="translate(461.048 80.4171) rotate(135) scale(5.11956 2.36848)">
<stop offset="0.233" stop-color="#86848F"/>
<stop offset="1" stop-color="#5A5C5E"/>
</radialGradient>
<linearGradient id="paint5_linear_387_49718" x1="460.251" y1="82.515" x2="459.888" y2="82.1505" gradientUnits="userSpaceOnUse">
<stop stop-color="#7C758F"/>
<stop offset="1" stop-color="#7C758F" stop-opacity="0"/>
</linearGradient>
<linearGradient id="paint6_linear_387_49718" x1="461.046" y1="79.6905" x2="459.947" y2="80.862" gradientUnits="userSpaceOnUse">
<stop offset="0.205" stop-color="#B3B2B4"/>
<stop offset="1" stop-color="#B3B2B4" stop-opacity="0"/>
</linearGradient>
<linearGradient id="paint7_linear_387_49718" x1="464.026" y1="89.628" x2="462.455" y2="88.0575" gradientUnits="userSpaceOnUse">
<stop offset="0.104" stop-color="#256198"/>
<stop offset="1" stop-color="#256198" stop-opacity="0"/>
</linearGradient>
<linearGradient id="paint8_linear_387_49718" x1="471.009" y1="95.862" x2="472.041" y2="96.987" gradientUnits="userSpaceOnUse">
<stop stop-color="#256198"/>
<stop offset="1" stop-color="#256198" stop-opacity="0"/>
</linearGradient>
<linearGradient id="paint9_linear_387_49718" x1="471.414" y1="88.272" x2="444.776" y2="113.829" gradientUnits="userSpaceOnUse">
<stop stop-color="#CBBCD8"/>
<stop offset="1" stop-color="#B1A1D1"/>
</linearGradient>
<linearGradient id="paint10_linear_387_49718" x1="447.822" y1="111.765" x2="449.444" y2="110.142" gradientUnits="userSpaceOnUse">
<stop stop-color="#9871C0"/>
<stop offset="1" stop-color="#9871C0" stop-opacity="0"/>
</linearGradient>
<radialGradient id="paint11_radial_387_49718" cx="0" cy="0" r="1" gradientUnits="userSpaceOnUse" gradientTransform="translate(440.093 101.853) rotate(15.5742) scale(1.19392 2.84445)">
<stop stop-color="#76707B"/>
<stop offset="1" stop-color="#76707B" stop-opacity="0"/>
</radialGradient>
<radialGradient id="paint12_radial_387_49718" cx="0" cy="0" r="1" gradientUnits="userSpaceOnUse" gradientTransform="translate(448.276 109.55) rotate(153.435) scale(5.66004 2.49031)">
<stop offset="0.129" stop-color="#5F677B"/>
<stop offset="1" stop-color="#5F677B" stop-opacity="0"/>
</radialGradient>
<radialGradient id="paint13_radial_387_49718" cx="0" cy="0" r="1" gradientUnits="userSpaceOnUse" gradientTransform="translate(450.479 106.644) rotate(-88.5312) scale(7.3149 1.64128)">
<stop stop-color="#7D7D8A"/>
<stop offset="1" stop-color="#7D7D8A" stop-opacity="0"/>
</radialGradient>
<radialGradient id="paint14_radial_387_49718" cx="0" cy="0" r="1" gradientUnits="userSpaceOnUse" gradientTransform="translate(482.54 80.301) rotate(143.13) scale(10.3125 9.96599)">
<stop offset="0.175" stop-color="#EDEBEE"/>
<stop offset="1" stop-color="#EDEBEE" stop-opacity="0"/>
</radialGradient>
<radialGradient id="paint15_radial_387_49718" cx="0" cy="0" r="1" gradientUnits="userSpaceOnUse" gradientTransform="translate(451.931 107.863) rotate(134.772) scale(8.31962 6.08291)">
<stop stop-color="#4DC0FF"/>
<stop offset="1" stop-color="#4763E6"/>
</radialGradient>
<linearGradient id="paint16_linear_387_49718" x1="447.454" y1="109.035" x2="448.416" y2="109.855" gradientUnits="userSpaceOnUse">
<stop stop-color="#3F618F"/>
<stop offset="1" stop-color="#3F618F" stop-opacity="0"/>
</linearGradient>
<radialGradient id="paint17_radial_387_49718" cx="0" cy="0" r="1" gradientUnits="userSpaceOnUse" gradientTransform="translate(446.643 115.945) rotate(-88.6212) scale(2.04316 4.57239)">
<stop stop-color="#847FFF"/>
<stop offset="1" stop-color="#847FFF" stop-opacity="0"/>
</radialGradient>
<clipPath id="clip0_387_49718">
<rect width="1200" height="630" fill="white"/>
</clipPath>
</defs>
</svg>
